<svg enable-background="new 0 0 100 100" height="512" viewBox="0 0 100 100" width="512" xmlns="http://www.w3.org/2000/svg"><path d="m93.7149277 41.3970566v48.440567c0 1.5317383-.6539078 2.9080353-1.7207947 3.8373337-.9120712.825943-2.1166458 1.3250427-3.4415817 1.3250427h-77.108717c-1.3078194 0-2.5296202-.4990997-3.4415855-1.3250427-1.0497637-.9292984-1.7207928-2.3055954-1.7207928-3.8373337v-48.440567z" fill="#509fd7"/><path d="m91.994133 93.6749573c-.9120712.825943-2.1166458 1.3250427-3.4415817 1.3250427h-77.108717c-1.3078194 0-2.5296202-.4990997-3.4415855-1.3250427l34.4674225-26.8957901h15.0741577z" fill="#4388b9"/><path d="m57.5522232 66.7869186 36.1663208-25.3900909-43.7086945-36.3968277-43.7231855 36.3968277 36.1783247 25.3900909z" fill="#32796b"/><path d="m79.7912216 13.0607252v38.1160746l-22.2403335 15.6129646h-15.0890122l-22.2549133-15.6129646v-38.1160746z" fill="#e6e7e8"/><path d="m62.3872986 27.4748631-1.9729996-.0000019c-.0000305 0-.000061-.0000553-.000061-.0000553-.1191292-.8153763-.333107-1.5994301-.6279869-2.342783l.0000038-.0000191 1.7089462-.9865932-1.5349274-2.6585388-1.710762.987711c-.5038757-.6351814-1.0791435-1.2104263-1.7143135-1.7142849-.0000153-.0000134-.0000076-.0000534-.0000076-.0000534l.987751-1.7107601-2.6585579-1.5348797-.9866219 1.7088985c-.7434464-.2948265-1.5274887-.5088558-2.3428383-.6280479-.0000114-.0000019-.0000153-.0000191-.0000153-.0000191v-1.9729805h-3.0698166v1.9729805l-.0000153.0000191c-.8153534.1191921-1.5994034.3332233-2.342823.6280518l-.9866295-1.7089081-2.6585579 1.5348778.9877548 1.710762c.0000076.0000134-.0000076.0000401-.0000076.0000401-.6351509.5038662-1.2104416 1.0791187-1.7142944 1.7143135l-1.7107658-.9877148-1.5349274 2.6585331 1.7089462.9865932.0000076.0000191c-.2948837.7433529-.5088577 1.5274067-.6280136 2.3427849-.0000038.0000305-.0000648.0000534-.0000648.0000534l-1.9729996.0000019v3.0697861h1.9729996c.0000343 0 .0000648.0000534.0000648.0000534.1191559.8153782.3331299 1.599432.6280136 2.3427868l-.0000076.0000153-1.7089462.9865952 1.5349274 2.658535 1.7107658-.9877167c.5038528.6351929 1.0791397 1.2104416 1.7142868 1.7143059l-.9877281 1.7108154 2.6585464 1.5348701.9866295-1.7089043c.7434158.2948189 1.52742.5088692 2.3427696.6279411.0000381.0000076.0000687.0000801.0000687.0000801v1.9730301h3.0698166v-1.9730263c0-.000042.0000267-.0000725.0000687-.0000801.8153152-.119072 1.599369-.3331223 2.3427811-.6279449l.9866257 1.7089005 2.6585503-1.534874-.9877319-1.7108192c.63517-.5038605 1.210434-1.0791016 1.7143097-1.714283l1.710762.987709 1.5349274-2.6585388-1.7089462-.9865913-.0000038-.0000191c.2948799-.7433548.5088577-1.5274086.6279869-2.3427849.0000038-.0000324.000061-.0000553.000061-.0000553h1.9729996v-3.0697862zm-10.2350235 6.38138c-4.537323 1.8140831-8.8128128-2.4612732-6.9988251-6.9986496.4891739-1.2235813 1.470787-2.2051983 2.6943665-2.6943722 4.5373077-1.8139591 8.8126564 2.4613132 6.998764 6.9986267-.489151 1.2235776-1.4707413 2.2052022-2.6943054 2.6943951z" fill="#db584d"/><path d="m50.0000153 37.8189812c-4.8575096 0-8.8092842-3.9517746-8.8092842-8.8092842s3.9517746-8.8092842 8.8092842-8.8092842 8.8092842 3.9517746 8.8092842 8.8092842-3.9517746 8.8092842-8.8092842 8.8092842zm0-15.9391251c-3.9314804 0-7.1298447 3.1985664-7.1298447 7.1298409s3.1983643 7.1298409 7.1298447 7.1298409 7.1298409-3.1985664 7.1298409-7.1298409-3.1983643-7.1298409-7.1298409-7.1298409z" fill="#c14b44"/><g fill="#b0b1b5"><path d="m27.377411 44.440018h45.245178v1.74194h-45.245178z"/><path d="m27.377411 48.258061h45.245178v1.74194h-45.245178z"/><path d="m27.377411 52.076103h45.245178v1.74194h-45.245178z"/><path d="m36.41058 55.894142h27.178843v1.74194h-27.178843z"/></g></svg>