<?xml version="1.0" encoding="iso-8859-1"?>
<!-- Generator: Adobe Illustrator 19.0.0, SVG Export Plug-In . SVG Version: 6.00 Build 0)  -->
<svg version="1.1" id="Layer_1" xmlns="http://www.w3.org/2000/svg" xmlns:xlink="http://www.w3.org/1999/xlink" x="0px" y="0px"
	 viewBox="0 0 491.53 491.53" style="enable-background:new 0 0 491.53 491.53;" xml:space="preserve">
<path style="fill:#64798A;" d="M399.479,0H92.052c-8.375,0-15.164,6.789-15.164,15.164v307.428c0,8.374,6.788,15.163,15.164,15.163
	h307.427c8.374,0,15.164-6.789,15.164-15.163V15.164C414.642,6.789,407.852,0,399.479,0z"/>
<g>
	<rect x="101.453" y="62.776" style="fill:#EBF0F3;" width="288.614" height="250.414"/>
	<rect x="101.453" y="21.786" style="fill:#EBF0F3;" width="206.387" height="17.459"/>
</g>
<rect x="101.453" y="303.974" style="fill:#D5D6DB;" width="288.614" height="9.231"/>
<circle style="fill:#FCD462;" cx="326.902" cy="30.515" r="8.73"/>
<circle style="fill:#44C4A1;" cx="354.104" cy="30.515" r="8.73"/>
<circle style="fill:#E56353;" cx="381.343" cy="30.515" r="8.73"/>
<rect x="114.796" y="82.842" style="fill:#44C4A1;" width="261.222" height="71.731"/>
<rect x="114.796" y="146.975" style="fill:#3EA69B;" width="261.222" height="7.578"/>
<g>
	<rect x="114.796" y="208.548" style="fill:#E1E6E9;" width="261.222" height="13.199"/>
	<rect x="114.796" y="240.23" style="fill:#E1E6E9;" width="261.222" height="13.199"/>
	<rect x="114.796" y="176.963" style="fill:#E1E6E9;" width="261.222" height="13.199"/>
	<rect x="114.796" y="271.923" style="fill:#E1E6E9;" width="167.608" height="13.199"/>
</g>
<circle style="fill:#FFFFFF;" cx="181.673" cy="172.083" r="80.763"/>
<circle style="fill:#D15241;" cx="181.673" cy="176.963" r="36.89"/>
<path style="fill:#E56353;" d="M281.962,158.263h-12.533c-2.313-10.903-6.63-21.05-12.508-30.095l8.89-8.891
	c1.759-1.759,1.759-4.61,0-6.368l-20.079-20.08c-1.759-1.759-4.61-1.759-6.368,0l-8.891,8.892
	c-9.046-5.879-19.193-10.195-30.096-12.509V76.68c0-2.487-2.016-4.503-4.502-4.503h-28.397c-2.487,0-4.503,2.016-4.503,4.503v12.532
	c-10.903,2.314-21.048,6.63-30.094,12.509l-8.893-8.892c-1.759-1.759-4.61-1.759-6.369,0l-20.079,20.08
	c-1.759,1.758-1.759,4.61,0,6.368l8.892,8.891c-5.879,9.046-10.195,19.193-12.509,30.095H81.39c-2.486,0-4.502,2.016-4.502,4.503
	v28.397c0,2.486,2.016,4.503,4.502,4.503h12.532c2.314,10.902,6.629,21.049,12.509,30.094l-8.892,8.891
	c-1.759,1.76-1.759,4.61,0,6.369l20.079,20.08c1.759,1.759,4.61,1.759,6.369,0l8.893-8.892c9.046,5.879,19.191,10.196,30.094,12.508
	v12.533c0,2.487,2.016,4.503,4.503,4.503h28.397c2.486,0,4.502-2.016,4.502-4.503v-12.533c10.903-2.312,21.05-6.629,30.096-12.508
	l8.891,8.892c1.758,1.759,4.61,1.759,6.368,0l20.079-20.08c1.759-1.759,1.759-4.61,0-6.369l-8.89-8.891
	c5.878-9.046,10.194-19.193,12.508-30.094h12.533c2.487,0,4.501-2.017,4.501-4.503v-28.397
	C286.463,160.279,284.449,158.263,281.962,158.263z M181.676,245.045c-37.6,0-68.081-30.48-68.081-68.08s30.48-68.08,68.081-68.08
	c37.599,0,68.079,30.48,68.079,68.08S219.275,245.045,181.676,245.045z"/>
<path style="fill:#D15241;" d="M181.676,108.885c-37.6,0-68.081,30.48-68.081,68.08s30.48,68.08,68.081,68.08
	c37.599,0,68.079-30.48,68.079-68.08S219.275,108.885,181.676,108.885z M181.675,238.166c-33.801,0-61.202-27.401-61.202-61.202
	c0-33.8,27.401-61.201,61.202-61.201s61.203,27.401,61.203,61.201C242.879,210.766,215.477,238.166,181.675,238.166z"/>
<rect x="245.765" y="173.967" style="fill:#FCD462;" width="193.705" height="317.542"/>
<g>
	<polygon style="fill:#F6C358;" points="482.03,269.132 288.327,269.132 245.765,173.967 439.469,173.967 	"/>
	<rect x="52.075" y="173.988" style="fill:#F6C358;" width="193.705" height="317.542"/>
</g>
<polygon style="fill:#DC8744;" points="9.5,269.132 203.203,269.132 245.765,173.967 52.062,173.967 "/>
<g>
</g>
<g>
</g>
<g>
</g>
<g>
</g>
<g>
</g>
<g>
</g>
<g>
</g>
<g>
</g>
<g>
</g>
<g>
</g>
<g>
</g>
<g>
</g>
<g>
</g>
<g>
</g>
<g>
</g>
</svg>
