<svg enable-background="new 0 0 100 100" height="512" viewBox="0 0 100 100" width="512" xmlns="http://www.w3.org/2000/svg"><path d="m67.6389847 13.3629789h-52.5949631c-2.7785473 0-5.0309401 2.2523165-5.0309401 5.030942v71.5751419c.0000001 2.7783127 2.2523928 5.0309372 5.0309401 5.0309372h52.5949631c2.7785492 0 5.0309372-2.2526245 5.0309372-5.0309372v-71.5751419c0-2.7786255-2.252388-5.030942-5.0309372-5.030942z" fill="#32796b"/><path d="m15.0439253 90.206192c-.1305017 0-.237011-.1065063-.237011-.2375946v-71.5750923c0-.1299171.1065092-.2364254.237011-.2364254h52.5948677c.1305008 0 .2370148.1065083.2370148.2364254v71.5750885c0 .1310883-.106514.2375946-.2370148.2375946h-52.5948677z" fill="#f3f3f3"/><path d="m50.9471588 10.7363253h-3.8749924c0-3.1673894-2.5579757-5.7363253-5.7254295-5.7363253-3.1783524 0-5.7363281 2.5689359-5.7363281 5.7363253h-3.8749943c-2.4055042 0-4.3539314 1.9484262-4.3539314 4.3539305v5.7599678h27.9196072v-5.7599678c-.0000001-2.4055043-1.9483605-4.3539305-4.3539315-4.3539305zm-9.6058731 2.4275608c-1.3387451 0-2.4240379-1.0852938-2.4240379-2.4241066s1.0852928-2.4241056 2.4240379-2.4241056c1.3388138 0 2.4241066 1.0852938 2.4241066 2.4241056s-1.0852928 2.4241066-2.4241066 2.4241066z" fill="#dad7dc"/><path d="m27.381538 18.071638h27.919573v2.778593h-27.919573z" fill="#b0b1b5"/><circle cx="24.333" cy="34.066" fill="#48b19a" r="5.065"/><path d="m23.3553715 36.3747025c-.1815147 0-.3630276-.0692787-.5015888-.20784l-1.2428856-1.242424c-.2771206-.2771225-.2771206-.7260551 0-1.0031776.2771206-.2771187.7260551-.2771187 1.0031776 0l.7412968.7408371 2.696846-2.6963844c.2771206-.2771206.7260571-.2771206 1.0031776 0 .2771206.2771187.2771206.7260551 0 1.0031776l-3.1984348 3.1979713c-.1385613.1385612-.3200741.20784-.5015888.20784z" fill="#e6e7e8"/><path d="m33.923428 33.34518h29.49118v1.041603h-29.49118z" fill="#d1d1d1"/><path d="m46.084038 36.05415h17.33057v1.041603h-17.33057z" fill="#d1d1d1"/><circle cx="24.333" cy="48.374" fill="#d6b24e" r="5.065"/><path d="m23.3553715 50.6826897c-.1815147 0-.3630276-.0692787-.5015888-.20784l-1.2428856-1.242424c-.2771206-.2771225-.2771206-.7260551 0-1.0031776.2771206-.2771187.7260551-.2771187 1.0031776 0l.7412968.7408371 2.696846-2.6963844c.2771206-.2771225.7260571-.2771225 1.0031776 0 .2771206.2771187.2771206.7260551 0 1.0031776l-3.1984348 3.1979713c-.1385613.1385612-.3200741.20784-.5015888.20784z" fill="#e6e7e8"/><path d="m33.923428 47.653168h29.49118v1.041603h-29.49118z" fill="#d1d1d1"/><path d="m46.084038 50.362137h17.33057v1.041603h-17.33057z" fill="#d1d1d1"/><circle cx="24.333" cy="62.682" fill="#48b19a" r="5.065"/><path d="m23.3553715 64.9906769c-.1815147 0-.3630276-.0692825-.5015888-.20784l-1.2428856-1.242424c-.2771206-.2771225-.2771206-.726059 0-1.0031776.2771206-.2771225.7260551-.2771225 1.0031776 0l.7412968.7408371 2.696846-2.6963844c.2771206-.2771225.7260571-.2771225 1.0031776 0 .2771206.2771187.2771206.7260551 0 1.0031738l-3.1984348 3.1979752c-.1385613.1385573-.3200741.2078399-.5015888.2078399z" fill="#e6e7e8"/><path d="m33.923428 61.961155h29.49118v1.041603h-29.49118z" fill="#d1d1d1"/><path d="m46.084038 64.670128h17.33057v1.041603h-17.33057z" fill="#d1d1d1"/><circle cx="24.333" cy="76.99" fill="#d6b24e" r="5.065"/><path d="m23.3553715 79.2986603c-.1815147 0-.3630276-.0692749-.5015888-.20784l-1.2428856-1.242424c-.2771206-.2771149-.2771206-.7260513 0-1.0031738s.7260551-.2771225 1.0031776 0l.7412968.7408371 2.696846-2.6963882c.2771206-.2771225.7260571-.2771225 1.0031776 0s.2771206.726059 0 1.0031815l-3.1984348 3.1979675c-.1385613.138565-.3200741.2078399-.5015888.2078399z" fill="#e6e7e8"/><path d="m33.923428 76.269142h29.49118v1.041603h-29.49118z" fill="#d1d1d1"/><path d="m46.084038 78.978111h17.33057v1.041603h-17.33057z" fill="#d1d1d1"/><path d="m89.9868774 65.8305969v-5.816433c0-2.6477966-2.1464157-4.7940674-4.7940674-4.7940674h-36.174446c-2.6476479 0-4.7940636 2.1462708-4.7940636 4.7940674v5.816433z" fill="#dc594e"/><path d="m44.2243423 90.2059021c0 2.6477966 2.1464157 4.7940674 4.7940636 4.7940674h36.1744423c2.6476517 0 4.7940674-2.1462708 4.7940674-4.7940674v-25.4849701h-45.7625733z" fill="#dad7dc"/><path d="m49.018482 70.624954h36.17437v19.581236h-36.17437z" fill="#ececec"/><g fill="#d6b251"><path d="m53.1815491 53.129715c-.7344398 0-1.3353844.6007233-1.3353844 1.3351631v4.7250137c0 .7344398.6009445 1.3354568 1.3353844 1.3354568.7344437 0 1.3353844-.601017 1.3353844-1.3354568v-4.7250137c-.0000001-.7344399-.6009408-1.3351631-1.3353844-1.3351631z"/><path d="m60.1435699 53.129715c-.7344437 0-1.3353844.6007233-1.3353844 1.3351631v4.7250137c0 .7344398.6009407 1.3354568 1.3353844 1.3354568.7344398 0 1.3353806-.601017 1.3353806-1.3354568v-4.7250137c0-.7344399-.6009407-1.3351631-1.3353806-1.3351631z"/><path d="m67.1055908 53.129715c-.7344437 0-1.3353882.6007233-1.3353882 1.3351631v4.7250137c0 .7344398.6009445 1.3354568 1.3353882 1.3354568.734436 0 1.3353806-.601017 1.3353806-1.3354568v-4.7250137c0-.7344399-.6009445-1.3351631-1.3353806-1.3351631z"/><path d="m74.0676041 53.129715c-.7344437 0-1.3353806.6007233-1.3353806 1.3351631v4.7250137c0 .7344398.6009369 1.3354568 1.3353806 1.3354568s1.3353882-.601017 1.3353882-1.3354568v-4.7250137c-.0000001-.7344399-.6009446-1.3351631-1.3353882-1.3351631z"/><path d="m81.0296249 53.129715c-.7344437 0-1.3353806.6007233-1.3353806 1.3351631v4.7250137c0 .7344398.6009369 1.3354568 1.3353806 1.3354568s1.3353806-.601017 1.3353806-1.3354568v-4.7250137c0-.7344399-.6009369-1.3351631-1.3353806-1.3351631z"/></g><g fill="#467080"><path d="m66.4209671 83.6635056v1.8328934h-6.9172211c.0749092-.692894.2996292-1.3495026.6741676-1.9698334.3745346-.6203232 1.1142426-1.4431305 2.2191277-2.4684296.8895226-.8286591 1.4349403-1.3904648 1.6362534-1.6854095.2715378-.4073105.4073105-.8099365.4073105-1.2078781 0-.4400864-.1182098-.7783356-.3546371-1.0147629s-.5629768-.3546371-.9796486-.3546371c-.4119911 0-.7397118.1240616-.9831581.3721924-.2434502.2481308-.3838997.6601181-.4213524 1.2359695l-1.96632-.1966324c.1170425-1.0861511.4845581-1.865654 1.1025429-2.3385086s1.3904686-.7092819 2.3174438-.7092819c1.015934 0 1.8141594.27388 2.3946953.82164.5805283.54776.8707962 1.2289505.8707962 2.0435638 0 .4634933-.0830994.9047394-.2492981 1.3237534-.1662064.419014-.4295502.8579254-.7900391 1.3167343-.2387695.304306-.669487.7420502-1.2921524 1.3132172s-1.0171013.950386-1.1833 1.1376495c-.1662025.1872711-.3008003.3698578-.4037971.54776z"/><path d="m67.7833405 82.8488922 1.9663162-.2036514c.0561829.4447556.2223816.7970581.4986038 1.0568924s.594574.3897552.9550705.3897552c.4119873 0 .7607727-.1673737 1.0463562-.5021133.2855911-.3347473.4283829-.8391953.4283829-1.5133667 0-.6320267-.1416245-1.1060486-.4248657-1.4220657-.2832489-.3160172-.6519318-.4740219-1.1060562-.4740219-.5664825 0-1.0744476.250473-1.5238953.7514114l-1.6011429-.2317429 1.0112457-5.3582153h5.2177658v1.8469391h-3.7219543l-.3089981 1.7486115c.4400787-.2200394.8895264-.3300552 1.3483353-.3300552.8754807 0 1.6175308.3183517 2.2261505.9550629s.9129333 1.4630356.9129333 2.4789658c0 .8473892-.2457886 1.6034851-.7373734 2.2682877-.6694794.9082489-1.5988007 1.3623734-2.7879562 1.3623734-.950386 0-1.7252045-.2551498-2.3244629-.7654572s-.9574127-1.1961749-1.0744552-2.0576098z"/></g></svg>