<?xml version="1.0" standalone="no"?>
<!DOCTYPE svg PUBLIC "-//W3C//DTD SVG 1.1//EN" "http://www.w3.org/Graphics/SVG/1.1/DTD/svg11.dtd" >
<svg xmlns="http://www.w3.org/2000/svg" xmlns:xlink="http://www.w3.org/1999/xlink" version="1.1">
<metadata>
Created by FontForge 20201107 at Mon Jun 13 19:17:39 2022
 By Unknown
Copyright (c) 1995-2022 Hoefler &#38; Co. All rights reserved.
</metadata>
<defs>
<font id="Knockout-50" horiz-adv-x="212" >
  <font-face 
    font-family="Knockout-50"
    font-weight="400"
    font-stretch="normal"
    units-per-em="1000"
    panose-1="2 0 5 6 5 0 0 2 0 4"
    ascent="800"
    descent="-200"
    x-height="480"
    cap-height="666"
    bbox="-222 -257 891 991"
    underline-thickness="74"
    underline-position="-117"
    unicode-range="U+0020-FB04"
  />
<missing-glyph horiz-adv-x="500" 
d="M0 800h500v-1000h-500v1000zM250 360l179 390h-358zM222 300l-172 376v-752zM278 300l172 -376v752zM71 -150h358l-179 390z" />
    <glyph glyph-name="uniFB00" unicode="ff" horiz-adv-x="588" 
d="M205 382v-382h-121v382h-63v94h63v25q0 76 38 120.5t120 44.5h41v-90h-20q-36 0 -48.5 -16.5t-12.5 -45.5v-38h79v-94h-76zM499 382v-382h-121v382h-63v94h63v25q0 76 38 120.5t120 44.5h41v-90h-20q-36 0 -48.5 -16.5t-12.5 -45.5v-38h79v-94h-76z" />
    <glyph glyph-name="uniFB03" unicode="ffi" horiz-adv-x="800" 
d="M205 382v-382h-121v382h-63v94h63v25q0 76 38 120.5t120 44.5h41v-90h-20q-36 0 -48.5 -16.5t-12.5 -45.5v-38h79v-94h-76zM499 382v-382h-121v382h-63v94h63v25q0 76 38 120.5t120 44.5h41v-90h-20q-36 0 -48.5 -16.5t-12.5 -45.5v-38h79v-94h-76zM634 547v108h119v-108
h-119zM633 0v480h122v-480h-122z" />
    <glyph glyph-name="uniFB04" unicode="ffl" horiz-adv-x="800" 
d="M205 382v-382h-121v382h-63v94h63v25q0 76 38 120.5t120 44.5h41v-90h-20q-36 0 -48.5 -16.5t-12.5 -45.5v-38h79v-94h-76zM499 382v-382h-121v382h-63v94h63v25q0 76 38 120.5t120 44.5h41v-90h-20q-36 0 -48.5 -16.5t-12.5 -45.5v-38h79v-94h-76zM632 0v666h122v-666
h-122z" />
    <glyph glyph-name="uniFB01" unicode="fi" horiz-adv-x="506" 
d="M205 382v-382h-121v382h-63v94h63v25q0 76 38 120.5t120 44.5h41v-90h-20q-36 0 -48.5 -16.5t-12.5 -45.5v-38h79v-94h-76zM340 547v108h119v-108h-119zM339 0v480h122v-480h-122z" />
    <glyph glyph-name="uniFB02" unicode="fl" horiz-adv-x="506" 
d="M205 382v-382h-121v382h-63v94h63v25q0 76 38 120.5t120 44.5h41v-90h-20q-36 0 -48.5 -16.5t-12.5 -45.5v-38h79v-94h-76zM339 0v666h122v-666h-122z" />
    <glyph glyph-name=".notdef" horiz-adv-x="500" 
d="M0 800h500v-1000h-500v1000zM250 360l179 390h-358zM222 300l-172 376v-752zM278 300l172 -376v752zM71 -150h358l-179 390z" />
    <glyph glyph-name="glyph1" horiz-adv-x="1000" 
 />
    <glyph glyph-name="glyph2" horiz-adv-x="174" 
 />
    <glyph glyph-name="space" unicode=" " horiz-adv-x="174" 
 />
    <glyph glyph-name="D" unicode="D" horiz-adv-x="523" 
d="M482 192q0 -42 -13.5 -77.5t-40.5 -61t-66.5 -39.5t-91.5 -14h-222v666h222q52 0 91.5 -15.5t66.5 -42.5t40.5 -63.5t13.5 -78.5v-274zM339 463q0 40 -19 62t-61 22h-68v-428h68q42 0 61 22t19 62v260z" />
    <glyph glyph-name="E" unicode="E" horiz-adv-x="447" 
d="M48 0v666h371v-120h-228v-146h157v-108h-157v-167h228v-125h-371z" />
    <glyph glyph-name="F" unicode="F" horiz-adv-x="425" 
d="M191 550v-159h161v-115h-161v-276h-143v666h364v-116h-221z" />
    <glyph glyph-name="G" unicode="G" horiz-adv-x="517" 
d="M401 0l-18 61q-20 -38 -57.5 -58t-85.5 -20q-50 0 -87 16t-62 42.5t-37.5 61.5t-12.5 74v312q0 37 14.5 72t42.5 62t69.5 43t94.5 16t93 -15.5t67 -42t40.5 -61.5t13.5 -74v-50h-138v54q0 28 -17.5 48.5t-57.5 20.5q-39 0 -58 -21.5t-19 -49.5v-316q0 -27 20 -49t58 -22
q40 0 59.5 22t19.5 49v69h-78v98h214v-342h-78z" />
    <glyph glyph-name="H" unicode="H" horiz-adv-x="548" 
d="M357 0v267h-166v-267h-143v666h143v-276h166v276h143v-666h-143z" />
    <glyph glyph-name="I" unicode="I" horiz-adv-x="240" 
d="M48 0v666h143v-666h-143z" />
    <glyph glyph-name="J" unicode="J" horiz-adv-x="481" 
d="M435 185q0 -45 -13.5 -82t-40 -63.5t-65 -41.5t-89.5 -15q-98 0 -151.5 52.5t-53.5 141.5v88h136v-89q0 -37 18 -54.5t50 -17.5t49 17.5t17 54.5v490h143v-481v0z" />
    <glyph glyph-name="K" unicode="K" horiz-adv-x="509" 
d="M351 0l-111 272l-49 -81v-191h-143v666h143v-298l158 298h145l-155 -280l162 -386h-150z" />
    <glyph glyph-name="L" unicode="L" horiz-adv-x="423" 
d="M48 0v666h143v-543h219v-123h-362z" />
    <glyph glyph-name="M" unicode="M" horiz-adv-x="687" 
d="M504 0v472l-33 -151l-80 -321h-107l-76 321l-32 151v-472h-128v666h192l80 -339l24 -117l25 117l79 339h191v-666h-135z" />
    <glyph glyph-name="N" unicode="N" horiz-adv-x="542" 
d="M383 0l-147 267l-57 109v-376h-131v666h119l143 -273l54 -109v382h129v-666h-110z" />
    <glyph glyph-name="O" unicode="O" horiz-adv-x="520" 
d="M479 187q0 -45 -15 -82.5t-43 -64.5t-68.5 -42t-92.5 -15q-51 0 -92 15t-69 42t-43 64.5t-15 82.5v292q0 44 15 81.5t43 64.5t69 42t92 15q52 0 92.5 -15t68.5 -42t43 -64.5t15 -81.5v-292zM335 487q0 34 -19.5 54.5t-55.5 20.5q-35 0 -54.5 -20.5t-19.5 -54.5v-308
q0 -34 19.5 -54.5t54.5 -20.5q36 0 55.5 20.5t19.5 54.5v308z" />
    <glyph glyph-name="P" unicode="P" horiz-adv-x="486" 
d="M460 411q0 -75 -43 -119.5t-128 -44.5h-98v-247h-143v666h241q85 0 128 -45t43 -120v-90zM323 498q0 27 -11.5 41.5t-39.5 14.5h-81v-201h81q28 0 39.5 14.5t11.5 41.5v89z" />
    <glyph glyph-name="Q" unicode="Q" horiz-adv-x="521" 
d="M522 0q-11 -8 -25 -12.5t-40 -4.5q-25 0 -48 10t-37 24q-23 -15 -52 -24.5t-68 -9.5q-49 0 -88 15.5t-66.5 42t-42 63t-14.5 78.5v302q0 42 15 78t43 62.5t68.5 42t92.5 15.5t92.5 -15.5t68.5 -42t43 -62.5t15 -78v-303q0 -44 -18 -75q11 -9 23 -12.5t38 -3.5v-90z
M334 493q0 28 -19 48.5t-55 20.5q-35 0 -54.5 -20.5t-19.5 -48.5v-320q0 -28 19.5 -48.5t54.5 -20.5q26 0 42 10l-29 27l61 58v294z" />
    <glyph glyph-name="R" unicode="R" horiz-adv-x="506" 
d="M407 -4q-44 0 -62 27.5t-18 74.5v109q0 26 -14 45.5t-45 19.5h-77v-272h-143v666h240q81 0 127 -43t46 -115v-72q0 -41 -20.5 -70t-65.5 -41q45 -11 67 -43t22 -67v-109q0 -23 7 -39.5t21 -28.5v-42h-85zM323 500q0 25 -11.5 39.5t-39.5 14.5h-81v-183h75q57 0 57 59v70z
" />
    <glyph glyph-name="uniE003" unicode="&#xe003;" horiz-adv-x="495" 
d="M232 260h-41v-260h-143v666h243q85 0 128.5 -43.5t43.5 -118.5v-80q0 -56 -23.5 -93t-71.5 -54l107 -277h-148zM269 363q57 0 57 58v79q0 25 -11.5 39.5t-39.5 14.5h-84v-191h78z" />
    <glyph glyph-name="S" unicode="S" horiz-adv-x="481" 
d="M454 185q0 -41 -14.5 -77.5t-42 -64t-67 -44t-89.5 -16.5q-49 0 -88.5 13.5t-67.5 38t-43 59.5t-15 78v34h131v-22q0 -86 80 -86q38 0 57 20t19 55q0 36 -28.5 61.5t-86.5 55.5q-30 16 -59.5 34.5t-53 42t-38 53.5t-14.5 68t13.5 73t40 62t65.5 43t90 16q46 0 83.5 -14.5
t64 -40t41 -59.5t14.5 -74v-27h-129v21q0 34 -18.5 57t-56.5 23q-32 0 -50.5 -18t-18.5 -48q0 -35 29.5 -59.5t93.5 -57.5q35 -19 64 -39t50 -43.5t32.5 -52.5t11.5 -65z" />
    <glyph glyph-name="T" unicode="T" horiz-adv-x="453" 
d="M298 544v-544h-143v544h-144v122h430v-122h-143z" />
    <glyph glyph-name="U" unicode="U" horiz-adv-x="527" 
d="M479 170q0 -42 -15.5 -76t-44 -59t-67.5 -38.5t-87 -13.5q-47 0 -87 13.5t-69 38.5t-45.5 59t-16.5 76v496h145v-494q0 -70 73 -70q36 0 55.5 18t19.5 52v494h139v-496v0z" />
    <glyph glyph-name="V" unicode="V" horiz-adv-x="490" 
d="M313 0h-136l-171 666h147l97 -453l97 453h140z" />
    <glyph glyph-name="W" unicode="W" horiz-adv-x="704" 
d="M561 0h-128l-79 389l-82 -389h-127l-139 666h142l72 -436l84 436h111l80 -436l74 436h132z" />
    <glyph glyph-name="X" unicode="X" horiz-adv-x="497" 
d="M337 0l-91 229l-99 -229h-140l160 338l-150 328h150l85 -223l93 223h141l-155 -320l157 -346h-151z" />
    <glyph glyph-name="Y" unicode="Y" horiz-adv-x="483" 
d="M313 276v-276h-143v276l-172 390h150l101 -263l96 263h143z" />
    <glyph glyph-name="Z" unicode="Z" horiz-adv-x="465" 
d="M197 124h238v-124h-416v40l251 507h-236v119h410v-40z" />
    <glyph glyph-name="a" unicode="a" horiz-adv-x="417" 
d="M367 -8q-35 0 -59 16t-32 53q-42 -69 -128 -69q-54 0 -89 33.5t-35 95.5v6q0 39 16.5 65.5t46.5 44.5t71 29.5t91 19.5v65q0 21 -12 33t-36 12q-26 0 -36 -12t-10 -36v-28h-111v23q0 31 9.5 57.5t29 46t50.5 31t73 11.5q43 0 73.5 -12t50 -34t28.5 -51.5t9 -63.5v-227
q0 -26 28 -26v-83h-28zM249 222q-57 -8 -83.5 -26t-26.5 -54v-18q0 -21 12 -34.5t35 -13.5q26 0 44.5 15t18.5 39v92z" />
    <glyph glyph-name="b" unicode="b" horiz-adv-x="431" 
d="M392 142q0 -66 -33 -108t-97 -42q-38 0 -70 16.5t-49 54.5l-15 -63h-83v666h121v-247q18 31 46.5 50.5t66.5 19.5q27 0 48 -11.5t35.5 -31t22 -45.5t7.5 -56v-203zM275 327q0 34 -14 50t-39 16t-40.5 -17t-15.5 -46v-184q0 -30 16.5 -46.5t38.5 -16.5q25 0 39.5 16.5
t14.5 49.5v178z" />
    <glyph glyph-name="c" unicode="c" horiz-adv-x="399" 
d="M370 161q0 -81 -42 -125t-119 -44t-124 44.5t-47 125.5v155q0 80 47 126t124 46t119 -45t42 -125v-17h-102v35q0 27 -14 43.5t-42 16.5t-42.5 -16.5t-14.5 -46.5v-188q0 -30 14.5 -46.5t42.5 -16.5t42 16.5t14 43.5v36h102v-18v0z" />
    <glyph glyph-name="d" unicode="d" horiz-adv-x="431" 
d="M295 0l-6 63q-17 -38 -49 -54.5t-69 -16.5q-64 0 -98.5 42t-34.5 108v198q0 32 9.5 59t26 47t38.5 31.5t48 11.5q37 0 60 -13t45 -39v229h121v-666h-91zM265 332q0 29 -15 46t-40 17t-39.5 -16.5t-14.5 -49.5v-180q0 -33 14.5 -49.5t39.5 -16.5q22 0 38.5 16.5t16.5 46.5
v186z" />
    <glyph glyph-name="e" unicode="e" horiz-adv-x="409" 
d="M376 158q0 -75 -44.5 -120.5t-122.5 -45.5q-38 0 -69.5 12t-54 34t-35 52.5t-12.5 68.5v162q0 37 12.5 68t35 53.5t54 34.5t69.5 12q39 0 69.5 -12t52.5 -34.5t33.5 -53.5t11.5 -68v-89h-220v-92q0 -26 13.5 -41.5t40.5 -15.5q29 0 42.5 15.5t13.5 41.5v35h110v-17z
M263 341q0 26 -14 41.5t-40 15.5q-25 0 -39 -15.5t-14 -41.5v-61h107v61z" />
    <glyph glyph-name="f" unicode="f" horiz-adv-x="294" 
d="M205 382v-382h-121v382h-63v94h63v25q0 76 38 120.5t120 44.5h41v-90h-20q-36 0 -48.5 -16.5t-12.5 -45.5v-38h79v-94h-76z" />
    <glyph glyph-name="g" unicode="g" horiz-adv-x="421" 
d="M426 492q0 -32 -17 -48.5t-39 -16.5q-9 0 -18 1.5t-20 7.5q23 -20 35 -43.5t12 -52.5v-9q0 -32 -12 -59t-33.5 -46.5t-53 -30t-70.5 -10.5q-8 0 -20.5 1t-19.5 3q-20 0 -30.5 -10.5t-10.5 -22.5q0 -16 20.5 -24t79.5 -8q94 0 136 -35t42 -92v-8q0 -32 -12.5 -59
t-37 -47.5t-60 -32t-80.5 -11.5q-41 0 -76.5 9t-61 25t-40 38t-14.5 48v9q0 27 18.5 50t54.5 34q-33 11 -49 31.5t-16 44.5q0 13 6 26.5t17 24.5t26 19t32 10q-34 14 -53 49t-19 77v3q0 32 13 59.5t35.5 48t53 32.5t66.5 12q29 0 45 -5t24 -5q36 0 47 15.5t11 40.5h86
q2 -17 2.5 -26t0.5 -17zM266 346q0 25 -15 41.5t-41 16.5t-41 -16.5t-15 -41.5v-26q0 -24 15 -41t41 -17t41 17t15 41v26zM299 -10q0 23 -17.5 36t-64.5 13q-42 0 -62.5 -13.5t-20.5 -36.5v-9q0 -23 20.5 -38t62.5 -15q44 0 63 15.5t19 38.5v9z" />
    <glyph glyph-name="h" unicode="h" horiz-adv-x="439" 
d="M275 0v341q0 25 -13.5 40t-34.5 15q-14 0 -25 -8.5t-19 -20.5t-12 -26t-4 -24v-317h-122v666h122v-262q17 41 48.5 62.5t69.5 21.5q53 0 82 -36.5t29 -96.5v-355h-121z" />
    <glyph glyph-name="i" unicode="i" 
d="M46 547v108h119v-108h-119zM45 0v480h122v-480h-122z" />
    <glyph glyph-name="j" unicode="j" horiz-adv-x="211" 
d="M46 547v108h119v-108h-119zM167 -3q0 -70 -35 -111t-118 -41h-39v86h12q37 0 47.5 12t10.5 36v501h122v-483z" />
    <glyph glyph-name="k" unicode="k" horiz-adv-x="421" 
d="M291 0l-78 192l-46 -80v-112h-122v666h122v-403l112 218h119l-108 -201l120 -280h-119z" />
    <glyph glyph-name="l" unicode="l" 
d="M45 0v666h122v-666h-122z" />
    <glyph glyph-name="m" unicode="m" horiz-adv-x="634" 
d="M471 0v345q0 22 -10.5 35.5t-30.5 13.5q-14 0 -23.5 -8.5t-15.5 -20.5t-8.5 -26t-2.5 -24v-315h-122v347q0 22 -10.5 35.5t-29.5 13.5q-14 0 -24 -8.5t-16 -20.5t-8.5 -25.5t-2.5 -23.5v-318h-122v480h103l12 -90q14 50 42.5 74t66.5 24t63.5 -24t36.5 -68q17 51 45 71.5
t67 20.5q54 0 82.5 -36t28.5 -99v-353h-121z" />
    <glyph glyph-name="n" unicode="n" horiz-adv-x="439" 
d="M275 0v341q0 25 -13.5 40t-34.5 15q-14 0 -25.5 -8.5t-19 -20.5t-11.5 -26t-4 -24v-317h-122v480h104l7 -93q17 51 49.5 76t72.5 25q59 0 88.5 -36.5t29.5 -96.5v-355h-121z" />
    <glyph glyph-name="o" unicode="o" horiz-adv-x="419" 
d="M380 162q0 -81 -47 -125.5t-123 -44.5q-78 0 -125 44.5t-47 125.5v155q0 80 47 126t125 46q76 0 123 -46t47 -126v-155zM263 340q0 26 -14.5 41.5t-38.5 15.5q-26 0 -40 -15.5t-14 -41.5v-200q0 -26 14 -41.5t40 -15.5q24 0 38.5 15.5t14.5 41.5v200z" />
    <glyph glyph-name="p" unicode="p" horiz-adv-x="431" 
d="M392 131q0 -29 -9 -54.5t-25 -44.5t-37.5 -30t-45.5 -11q-37 0 -61 12.5t-48 38.5v-194h-121v632h91l6 -63q18 38 50 54.5t69 16.5q64 0 97.5 -42t33.5 -108v-207zM274 330q0 33 -14 49.5t-39 16.5q-22 0 -38.5 -16t-16.5 -47v-184q0 -29 15 -46t40 -17t39 16.5t14 49.5
v178z" />
    <glyph glyph-name="q" unicode="q" horiz-adv-x="431" 
d="M265 -152v212q-19 -33 -46.5 -51t-68.5 -18q-23 0 -43.5 11t-35.5 30t-24 44.5t-9 54.5v207q0 66 34 108t99 42q37 0 69 -16.5t49 -54.5l14 63h83v-632h-121zM265 333q0 31 -16.5 47t-38.5 16q-25 0 -39.5 -16.5t-14.5 -49.5v-178q0 -33 14.5 -49.5t39.5 -16.5t40 17
t15 46v184z" />
    <glyph glyph-name="r" unicode="r" horiz-adv-x="313" 
d="M296 364q-36 6 -60.5 3t-40 -12t-22 -23t-6.5 -31v-301h-122v480h101l8 -95q17 64 53.5 87t88.5 11v-119v0z" />
    <glyph glyph-name="s" unicode="s" horiz-adv-x="388" 
d="M362 135q0 -26 -9.5 -52t-30 -46t-51.5 -32.5t-73 -12.5q-41 0 -72.5 11.5t-53 31.5t-32.5 47.5t-11 59.5v17h102v-17q0 -33 17 -47.5t46 -14.5q57 0 57 48q0 31 -28.5 48.5t-78.5 38.5q-51 20 -79 50t-28 83q0 66 45 103.5t116 37.5q77 0 118 -40.5t41 -104.5v-8h-100
v12q0 23 -14 36.5t-43 13.5q-51 0 -51 -42q0 -21 18.5 -35t62.5 -31q28 -11 52 -24.5t42 -31.5t28 -42t10 -57z" />
    <glyph glyph-name="t" unicode="t" horiz-adv-x="285" 
d="M198 385v-231q0 -47 6.5 -84t25.5 -70h-128q-15 30 -20.5 65t-5.5 89v231h-63v95h68v88l117 29v-117h76v-95h-76z" />
    <glyph glyph-name="uniE00D" unicode="&#xe00d;" horiz-adv-x="285" 
d="M198 382v-228q0 -47 6.5 -84t25.5 -70h-128q-15 30 -20.5 65t-5.5 89v228h-63v94h68v88l117 29v-117h76v-94h-76z" />
    <glyph glyph-name="u" unicode="u" horiz-adv-x="442" 
d="M295 0l-6 85q-18 -46 -51.5 -69.5t-73.5 -23.5q-60 0 -89.5 36.5t-29.5 96.5v355h122v-341q0 -26 13.5 -40.5t34.5 -14.5q14 0 25 8t19 20t12 25.5t4 24.5v318h121v-480h-101z" />
    <glyph glyph-name="v" unicode="v" horiz-adv-x="386" 
d="M245 0h-105l-134 480h118l54 -238l17 -90l18 90l52 238h115z" />
    <glyph glyph-name="w" unicode="w" horiz-adv-x="564" 
d="M441 0h-96l-46 199l-16 85l-17 -85l-46 -199h-96l-118 480h117l40 -238l14 -90l15 90l46 238h99l41 -238l15 -90l14 90l45 238h108z" />
    <glyph glyph-name="x" unicode="x" horiz-adv-x="398" 
d="M267 0l-68 155l-68 -155h-121l123 239l-123 241h122l69 -155l67 155h121l-123 -232l123 -248h-122z" />
    <glyph glyph-name="y" unicode="y" horiz-adv-x="387" 
d="M246 -2q-9 -35 -20.5 -63t-29.5 -48t-45 -31t-69 -11h-39v87h26q17 0 27.5 2.5t17.5 8t11 15t8 23.5l8 28l-133 471h118l54 -238l18 -90l17 90l52 238h115z" />
    <glyph glyph-name="z" unicode="z" horiz-adv-x="359" 
d="M156 103h176v-103h-310v60l185 321h-175v99h306v-60z" />
    <glyph glyph-name="zero" unicode="0" horiz-adv-x="496" 
d="M453 176q0 -43 -14.5 -78.5t-41 -61t-64.5 -39.5t-85 -14q-48 0 -86 14t-64.5 39.5t-40.5 61t-14 78.5v313q0 43 14 79t40.5 61t64.5 39t86 14q47 0 85 -14t64.5 -39t41 -61t14.5 -79v-313zM323 497q0 28 -19.5 47.5t-55.5 19.5q-35 0 -55 -19.5t-20 -47.5v-328
q0 -28 20 -47.5t55 -19.5q36 0 55.5 19.5t19.5 47.5v328z" />
    <glyph glyph-name="one" unicode="1" horiz-adv-x="280" 
d="M74 0v606q33 0 46 18.5t13 41.5h73v-666h-132z" />
    <glyph glyph-name="uniE004" unicode="&#xe004;" horiz-adv-x="335" 
d="M110 0v496h-77v95h41q35 0 51 20t21 55h96v-666h-132z" />
    <glyph glyph-name="two" unicode="2" horiz-adv-x="460" 
d="M430 496q0 -30 -9 -58.5t-28.5 -57.5t-51 -59.5t-75.5 -64.5q-53 -40 -71 -75t-18 -63h248v-118h-395v40q0 41 7 77.5t24.5 71.5t48 70t77.5 74q64 52 91 89t27 73t-18 55.5t-53 19.5q-38 0 -55 -21t-17 -59v-46h-119v60q0 34 11.5 66.5t35 57.5t58.5 40t83 15
q55 0 93 -15.5t61.5 -42t34 -60t10.5 -69.5z" />
    <glyph glyph-name="three" unicode="3" horiz-adv-x="456" 
d="M426 162q0 -41 -14 -74t-40.5 -56t-64.5 -36t-85 -13q-48 0 -83 15t-58.5 39.5t-35 56t-11.5 64.5v54h119v-36q0 -80 72 -80q36 0 54 19.5t18 54.5v65q0 23 -12.5 38.5t-47.5 15.5h-56v97h56q35 0 47.5 15.5t12.5 38.5v56q0 35 -18 54.5t-54 19.5q-72 0 -72 -80v-37h-119
v55q0 33 11.5 64.5t35 56t58.5 39.5t83 15q47 0 85 -13t64.5 -36t40.5 -56.5t14 -73.5v-34q0 -50 -24 -85t-69 -43q42 -11 67.5 -42.5t25.5 -82.5v-55v0z" />
    <glyph glyph-name="four" unicode="4" horiz-adv-x="457" 
d="M380 146v-146h-121v146h-245v92l254 428h112v-414h63v-106h-63zM259 462l-122 -210h122v210z" />
    <glyph glyph-name="five" unicode="5" horiz-adv-x="459" 
d="M425 666q-6 -59 -24 -87.5t-65 -28.5h-163l-12 -158q20 28 53.5 44.5t78.5 16.5q63 0 99 -38.5t36 -101.5v-148q0 -84 -54.5 -133t-150.5 -49q-47 0 -82.5 15t-59 40t-35.5 56t-12 64v46h119v-28q0 -37 18.5 -58.5t54.5 -21.5q73 0 73 77v118q0 29 -17 46t-43 17
q-32 0 -52 -18t-28 -41l-113 18l21 353h358v0z" />
    <glyph glyph-name="six" unicode="6" horiz-adv-x="480" 
d="M448 176q0 -43 -13.5 -78.5t-39.5 -61t-63.5 -39.5t-85.5 -14q-47 0 -85 14t-64 39.5t-40 61t-14 78.5v310q0 90 55 143.5t151 53.5q47 0 83 -15t60 -40t36 -56t12 -64v-40h-117v22q0 80 -76 80q-38 0 -56 -21.5t-18 -59.5v-144q19 24 50 42.5t79 18.5q71 0 108.5 -39.5
t37.5 -102.5v-88zM320 249q0 29 -17 47.5t-55 18.5q-36 0 -55.5 -19t-19.5 -47v-81q0 -32 19.5 -52t53.5 -20q35 0 54.5 19t19.5 48v86z" />
    <glyph glyph-name="seven" unicode="7" horiz-adv-x="439" 
d="M429 599q-46 -74 -81 -145.5t-59 -144t-36 -149t-12 -160.5h-146q0 68 16 141.5t43.5 144.5t63.5 137.5t76 121.5h-266v121h401v-67v0z" />
    <glyph glyph-name="eight" unicode="8" horiz-adv-x="487" 
d="M448 162q0 -41 -14 -74t-40.5 -56t-64.5 -36t-86 -13q-47 0 -85 13t-64.5 36t-40.5 56t-14 74v53q0 42 20.5 75t53.5 47q-33 14 -52.5 47t-19.5 76v44q0 40 14 73.5t40 56.5t63.5 36t84.5 13q48 0 85.5 -13t63.5 -36t40 -56.5t14 -73.5v-44q0 -43 -19.5 -76t-52.5 -47
q33 -14 53.5 -47t20.5 -75v-53zM319 496q0 35 -21.5 54.5t-54.5 19.5q-32 0 -53.5 -19.5t-21.5 -54.5v-56q0 -27 18.5 -49t56.5 -22q39 0 57.5 22t18.5 49v56zM320 232q0 27 -19 48.5t-58 21.5q-38 0 -57 -21.5t-19 -48.5v-62q0 -35 22 -54.5t54 -19.5q33 0 55 19.5t22 54.5
v62z" />
    <glyph glyph-name="nine" unicode="9" horiz-adv-x="490" 
d="M447 177q0 -44 -15 -80t-42 -61.5t-65.5 -39t-85.5 -13.5q-48 0 -84.5 14t-61 38t-37.5 55t-13 66v31h116v-12q0 -79 81 -79q42 0 59.5 21.5t17.5 56.5v134q-19 -25 -47.5 -43t-76.5 -18q-36 0 -64.5 11t-48 30.5t-29.5 46.5t-10 58v97q0 43 14 78.5t40 60.5t63.5 39
t84.5 14q98 0 151 -53t53 -140v-312zM317 499q0 29 -18 50t-56 21q-35 0 -54 -19t-19 -48v-99q0 -29 17.5 -48t55.5 -19q36 0 55 19.5t19 47.5v95z" />
    <glyph glyph-name="dollar" unicode="$" horiz-adv-x="481" 
d="M198 762h91v-83q35 -6 63.5 -23t49 -41t31.5 -55t11 -66v-27h-121v23q0 36 -19 59t-55 23q-29 0 -49 -18t-20 -53q0 -34 29 -56.5t73 -49.5q29 -17 58.5 -36t53 -44.5t38.5 -58t15 -76.5q0 -35 -10.5 -66.5t-31 -57.5t-50 -44t-66.5 -25v-83h-91v82q-75 12 -118 61.5
t-43 124.5v34h123v-25q0 -45 20.5 -66t58.5 -21q36 0 56 21.5t20 57.5q0 18 -7 32.5t-21.5 28t-36 28t-50.5 31.5q-28 16 -55.5 34.5t-49 41t-35 51.5t-13.5 66q0 34 10 65.5t29 57t47 43t65 25.5v85z" />
    <glyph glyph-name="sterling" unicode="&#xa3;" horiz-adv-x="551" 
d="M527 140q0 -71 -35.5 -114t-112.5 -43q-46 0 -87 14.5t-70 40.5q-20 -26 -49 -40.5t-66 -14.5q-49 0 -76 27.5t-27 65.5q0 45 30.5 74.5t90.5 29.5q22 0 41.5 -5.5t35.5 -13.5q10 12 15 28t5 32q0 14 -5 32.5t-14 31.5h-143v88h99q-13 23 -24 55.5t-11 67.5t12.5 68.5
t37.5 60t62.5 42.5t87.5 16q48 0 82 -15.5t56.5 -40.5t33 -55.5t10.5 -60.5v-47h-117v28q0 34 -16.5 54.5t-49.5 20.5t-49 -19.5t-16 -54.5q0 -32 12 -61t29 -59h151v-88h-121q3 -14 5 -26.5t2 -23.5q0 -37 -16.5 -65t-41.5 -52q18 -12 39 -20.5t40 -8.5q34 0 47 18t13 47
v49h110v-63zM166 88q-14 13 -26 17.5t-23 4.5q-15 0 -23 -7.5t-8 -18.5q0 -8 7.5 -16t24.5 -8q13 0 26.5 7t21.5 21z" />
    <glyph glyph-name="Euro" unicode="&#x20ac;" horiz-adv-x="519" 
d="M280 -17q-53 0 -93.5 16t-67.5 44t-41 65.5t-14 80.5v58h-57v57h59v59h-59v57h57v57q0 43 14 80.5t41 65.5t67.5 44t93.5 16q52 0 91 -14.5t65 -40.5t39.5 -61.5t13.5 -77.5v-33h-127v32q0 35 -20 55.5t-60 20.5q-41 0 -60.5 -21t-19.5 -53v-70h171v-57h-171v-59h171v-57
h-171v-71q0 -32 19.5 -53t60.5 -21q40 0 60 20.5t20 55.5v32h127v-33q0 -42 -13.5 -77.5t-39.5 -61.5t-65 -40.5t-91 -14.5z" />
    <glyph glyph-name="uniE012" unicode="&#xe012;" horiz-adv-x="496" 
d="M395 379v-92h-216v-109q0 -32 19.5 -53t60.5 -21q40 0 60 20.5t20 55.5v40h127v-43q0 -42 -13.5 -77.5t-39.5 -61.5t-65 -40.5t-91 -14.5q-53 0 -93.5 16t-67.5 44t-41 65.5t-14 80.5v288q0 43 14 80.5t41 65.5t67.5 44t93.5 16q52 0 91 -14.5t65 -40.5t39.5 -61.5
t13.5 -77.5v-44h-127v41q0 35 -20 55.5t-60 20.5q-41 0 -60.5 -21t-19.5 -53v-109h216z" />
    <glyph glyph-name="yen" unicode="&#xa5;" horiz-adv-x="522" 
d="M325 212h143v-91h-143v-121h-132v121h-141v91h141v65h-141v91h106l-127 298h139l95 -251l91 251h136l-132 -298h108v-91h-143v-65z" />
    <glyph glyph-name="cent" unicode="&#xa2;" horiz-adv-x="419" 
d="M177 666h87v-90q54 -13 84.5 -54.5t30.5 -105.5v-21h-105v38q0 25 -13.5 40.5t-40.5 15.5q-26 0 -39.5 -15.5t-13.5 -40.5v-200q0 -26 13.5 -41t39.5 -15q27 0 40.5 15t13.5 41v38h105v-22q0 -64 -30.5 -105.5t-84.5 -53.5v-90h-87v88q-58 11 -94 53t-36 108v167
q0 66 36 108.5t94 53.5v88z" />
    <glyph glyph-name="florin" unicode="&#x192;" horiz-adv-x="365" 
d="M335 396v-88h-88v-159q0 -77 -37.5 -121.5t-121.5 -44.5h-39v95h13q37 0 49 12.5t12 38.5v179h-85v88h85v105q0 77 38 121t121 44h39v-95h-13q-37 0 -49 -12.5t-12 -38.5v-124h88z" />
    <glyph glyph-name="numbersign" unicode="#" horiz-adv-x="661" 
d="M500 430l-37 -195h155v-65h-168l-32 -170h-75l32 170h-145l-32 -170h-75l33 170h-138v65h150l37 195h-156v66h168l33 170h75l-33 -170h145l33 170h75l-33 -170h137v-66h-149zM280 430l-37 -195h145l37 195h-145z" />
    <glyph glyph-name="paragraph" unicode="&#xb6;" horiz-adv-x="610" 
d="M477 -150v723h-79v-723h-81v341h-43q-50 0 -92.5 16.5t-74 46.5t-49.5 72t-18 94v16q0 52 18 94.5t49.5 72.5t74 46.5t92.5 16.5h283v-816h-80zM317 573h-21q-35 0 -54 -22.5t-19 -60.5v-123q0 -38 19 -60t54 -22h21v288z" />
    <glyph glyph-name="section" unicode="&#xa7;" horiz-adv-x="505" 
d="M470 252q0 -80 -66 -121q28 -21 44.5 -48.5t16.5 -68.5q0 -33 -12.5 -63.5t-38.5 -54.5t-65 -38t-92 -14q-51 0 -92 12t-70.5 34t-45 53.5t-15.5 69.5v24h126v-26q0 -29 23.5 -47.5t65.5 -18.5q45 0 65.5 16t20.5 46q0 22 -21.5 39.5t-53.5 34.5t-69 34.5t-69 40.5
t-53.5 52t-21.5 68q0 37 19 67t48 49q-26 20 -43.5 48.5t-17.5 67.5q0 35 12 66.5t36.5 55.5t62.5 38.5t89 14.5t89.5 -14t64 -37.5t38.5 -54.5t13 -66v-15h-125v22q0 10 -3 21t-11.5 19.5t-23 14t-37.5 5.5q-39 0 -54.5 -16.5t-15.5 -40.5q0 -22 21 -39.5t52 -34t68 -35
t68 -41t52 -51.5t21 -68zM357 223q0 12 -8 25.5t-27.5 29t-51 33.5t-78.5 40q-16 -5 -24.5 -17.5t-8.5 -27.5q0 -12 6.5 -23.5t25 -26t50.5 -32.5t83 -42q15 4 24 14.5t9 26.5z" />
    <glyph glyph-name="ordfeminine" unicode="&#xaa;" horiz-adv-x="352" 
d="M300 314q-28 0 -46.5 12t-24.5 39q-33 -51 -101 -51q-42 0 -70 25t-28 71v4q0 29 13 49t36.5 33.5t56.5 21.5t72 14v49q0 15 -9.5 24t-28.5 9q-20 0 -28 -9t-8 -27v-21h-87v17q0 46 30.5 77t96.5 31q67 0 97 -33.5t30 -85.5v-168q0 -10 6 -14.5t26 -4.5v-62h-33zM208 485
q-45 -6 -66 -19.5t-21 -40.5v-13q0 -15 9.5 -25t28.5 -10q20 0 34.5 10.5t14.5 29.5v68z" />
    <glyph glyph-name="ordmasculine" unicode="&#xba;" horiz-adv-x="320" 
d="M294 439q0 -59 -38 -92t-96 -33t-96 33t-38 92v118q0 59 38 92t96 33t96 -33t38 -92v-118zM202 575q0 18 -12 29.5t-30 11.5q-19 0 -30.5 -11.5t-11.5 -29.5v-154q0 -18 11.5 -29.5t30.5 -11.5q18 0 30 11.5t12 29.5v154z" />
    <glyph glyph-name="degree" unicode="&#xb0;" horiz-adv-x="316" 
d="M297 548q0 -27 -10 -51t-28.5 -43t-44 -30t-56.5 -11t-56.5 11t-44 30t-28.5 43t-10 51t10 51t28.5 43t44 30t56.5 11t56.5 -11t44 -30t28.5 -43t10 -51zM226 548q0 32 -18 53t-50 21t-50 -21t-18 -53q0 -33 18 -54t50 -21t50 21t18 54z" />
    <glyph glyph-name="percent" unicode="%" horiz-adv-x="644" 
d="M259 446q0 -53 -32 -82t-81 -29q-48 0 -80 29t-32 82v125q0 52 32 81.5t80 29.5q49 0 81 -29.5t32 -81.5v-125zM118 -23l-49 36l463 676l48 -37zM615 95q0 -53 -32 -82.5t-81 -29.5q-48 0 -80.5 29.5t-32.5 82.5v125q0 52 32.5 81.5t80.5 29.5q49 0 81 -29.5t32 -81.5
v-125zM185 587q0 16 -11 26.5t-28 10.5t-27 -10.5t-10 -26.5v-157q0 -16 10 -26t27 -10t28 10t11 26v157zM541 236q0 16 -11 26t-28 10t-27.5 -10t-10.5 -26v-157q0 -16 10.5 -26.5t27.5 -10.5t28 10.5t11 26.5v157z" />
    <glyph glyph-name="perthousand" unicode="&#x2030;" horiz-adv-x="917" 
d="M259 446q0 -53 -32 -82t-81 -29q-48 0 -80 29t-32 82v125q0 52 32 81.5t80 29.5q49 0 81 -29.5t32 -81.5v-125zM118 -23l-49 36l463 676l48 -37zM891 95q0 -53 -32 -82.5t-81 -29.5q-48 0 -80.5 29.5t-32.5 82.5v125q0 52 32.5 81.5t80.5 29.5q49 0 81 -29.5t32 -81.5
v-125zM615 95q0 -53 -32 -82.5t-81 -29.5q-48 0 -80.5 29.5t-32.5 82.5v125q0 52 32.5 81.5t80.5 29.5q49 0 81 -29.5t32 -81.5v-125zM185 587q0 16 -11 26.5t-28 10.5t-27 -10.5t-10 -26.5v-157q0 -16 10 -26t27 -10t28 10t11 26v157zM816 236q0 16 -10.5 26t-27.5 10
t-27.5 -10t-10.5 -26v-157q0 -16 10.5 -26.5t27.5 -10.5t27.5 10.5t10.5 26.5v157zM541 236q0 16 -11 26t-28 10t-27.5 -10t-10.5 -26v-157q0 -16 10.5 -26.5t27.5 -10.5t28 10.5t11 26.5v157z" />
    <glyph glyph-name="quotedbl" unicode="&#x22;" horiz-adv-x="294" 
d="M219 458h-67l59 208h96zM93 458h-66l38 208h94z" />
    <glyph glyph-name="quotesingle" unicode="'" horiz-adv-x="186" 
d="M107 458h-67l40 208h117z" />
    <glyph glyph-name="plus" unicode="+" horiz-adv-x="382" 
d="M236 297v-119h-90v119h-114v91h114v119h90v-119h114v-91h-114z" />
    <glyph glyph-name="minus" unicode="&#x2212;" horiz-adv-x="384" 
d="M33 265v95h318v-95h-318z" />
    <glyph glyph-name="divide" unicode="&#xf7;" horiz-adv-x="382" 
d="M33 295v91h317v-91h-317zM141 437v88h101v-88h-101zM141 156v88h101v-88h-101z" />
    <glyph glyph-name="equal" unicode="=" horiz-adv-x="383" 
d="M32 387v95h319v-95h-319zM32 202v96h319v-96h-319z" />
    <glyph glyph-name="multiply" unicode="&#xd7;" horiz-adv-x="440" 
d="M324 165l-105 105l-104 -105l-66 66l104 104l-104 105l67 66l105 -104l104 104l66 -65l-105 -104l105 -105z" />
    <glyph glyph-name="less" unicode="&#x3c;" horiz-adv-x="505" 
d="M51 319v29l376 243v-114l-220 -144l220 -144v-114z" />
    <glyph glyph-name="greater" unicode="&#x3e;" horiz-adv-x="505" 
d="M78 75v114l220 144l-220 144v114l376 -244v-29z" />
    <glyph glyph-name="plusminus" unicode="&#xb1;" horiz-adv-x="382" 
d="M33 41v88h318v-88h-318zM236 298v-119h-89v119h-114v91h114v119h89v-119h114v-91h-114z" />
    <glyph glyph-name="period" unicode="." horiz-adv-x="204" 
d="M47 0v136h110v-136h-110z" />
    <glyph glyph-name="comma" unicode="," horiz-adv-x="204" 
d="M157 14q0 -51 -31 -84.5t-91 -33.5v33q29 0 46 18t17 53h-51v136h110v-122v0z" />
    <glyph glyph-name="colon" unicode=":" horiz-adv-x="204" 
d="M47 309v136h110v-136h-110zM47 0v136h110v-136h-110z" />
    <glyph glyph-name="semicolon" unicode=";" horiz-adv-x="204" 
d="M47 309v136h110v-136h-110zM157 14q0 -51 -31 -84.5t-91 -33.5v33q29 0 46 18t17 53h-51v136h110v-122z" />
    <glyph glyph-name="ellipsis" unicode="&#x2026;" horiz-adv-x="595" 
d="M437 0v136h111v-136h-111zM242 0v136h111v-136h-111zM47 0v136h110v-136h-110z" />
    <glyph glyph-name="periodcentered" unicode="&#xb7;" horiz-adv-x="185" 
d="M37 264v137h111v-137h-111z" />
    <glyph glyph-name="ampersand" unicode="&#x26;" horiz-adv-x="636" 
d="M627 100q0 -57 -30.5 -87t-84.5 -30q-29 0 -59.5 14.5t-62.5 40.5q-35 -26 -77 -40.5t-87 -14.5q-42 0 -77.5 14.5t-61 39.5t-39.5 57.5t-14 68.5q0 67 38.5 116.5t99.5 84.5q-17 35 -26 70.5t-9 61.5q0 42 13 76.5t37 59t57 38t72 13.5q37 0 65.5 -11.5t48 -32t29 -48.5
t9.5 -61q0 -61 -39.5 -106t-113.5 -88q18 -37 41.5 -75.5t46.5 -69.5q24 35 37 78.5t13 77.5h99q0 -58 -22.5 -118.5t-59.5 -112.5q32 -26 57 -26q31 0 31 34v45h69v-69zM361 523q0 23 -11 37t-33 14q-29 0 -44 -22t-15 -55q0 -34 19 -83q46 26 65 55.5t19 53.5zM315 115
q-29 33 -54 71.5t-46 78.5q-24 -17 -37.5 -40t-13.5 -52q0 -37 22 -58t67 -21q19 0 35 6.5t27 14.5z" />
    <glyph glyph-name="exclam" unicode="!" horiz-adv-x="219" 
d="M129 195h-39l-43 182v289h125v-289zM55 0v123h108v-123h-108z" />
    <glyph glyph-name="exclamdown" unicode="&#xa1;" horiz-adv-x="219" 
d="M55 357v123h108v-123h-108zM47 -186v289l43 182h39l43 -182v-289h-125z" />
    <glyph glyph-name="question" unicode="?" horiz-adv-x="426" 
d="M405 507q0 -32 -7 -57.5t-21 -48.5t-35.5 -44t-50.5 -42q-18 -14 -29.5 -26.5t-18 -26t-9 -28t-2.5 -32.5h-90q0 33 4.5 57.5t15 46.5t28 43.5t43.5 48.5q22 23 33.5 45.5t11.5 51.5q0 40 -17 57.5t-51 17.5q-36 0 -52.5 -21.5t-16.5 -60.5v-50h-117v64q0 37 11 70
t33.5 57.5t57.5 39t82 14.5q53 0 90.5 -15t61 -39.5t34.5 -56t11 -65.5zM131 0v123h108v-123h-108z" />
    <glyph glyph-name="questiondown" unicode="&#xbf;" horiz-adv-x="389" 
d="M266 480v-123h-107v123h107zM-8 -27q0 31 7 57t21 49t35.5 44t50.5 42q37 28 48 52.5t11 59.5h90q0 -33 -4.5 -57.5t-15 -46t-28 -43t-43.5 -48.5q-22 -23 -33.5 -46t-11.5 -52q0 -40 17 -57t51 -17q36 0 52.5 21.5t16.5 60.5v50h117v-64q0 -37 -11 -70t-33.5 -57.5
t-57.5 -39t-82 -14.5q-53 0 -90.5 15t-61 39.5t-34.5 56t-11 65.5z" />
    <glyph glyph-name="quotedblleft" unicode="&#x201c;" horiz-adv-x="333" 
d="M185 550q0 51 31 84.5t91 33.5v-33q-29 0 -46 -18t-17 -53h51v-136h-110v122zM37 550q0 51 31 84.5t91 33.5v-33q-28 0 -45 -18t-17 -53h51v-136h-111v122z" />
    <glyph glyph-name="quotedblright" unicode="&#x201d;" horiz-adv-x="333" 
d="M295 544q0 -51 -31 -84.5t-91 -33.5v33q29 0 46 18t17 53h-51v136h110v-122zM148 544q0 -51 -31 -84.5t-91 -33.5v33q28 0 45 18t17 53h-51v136h111v-122z" />
    <glyph glyph-name="quoteleft" unicode="&#x2018;" horiz-adv-x="185" 
d="M37 550q0 51 31 84.5t91 33.5v-33q-28 0 -45 -18t-17 -53h51v-136h-111v122v0z" />
    <glyph glyph-name="quoteright" unicode="&#x2019;" horiz-adv-x="185" 
d="M148 544q0 -51 -31 -84.5t-91 -33.5v33q28 0 45 18t17 53h-51v136h111v-122v0z" />
    <glyph glyph-name="quotedblbase" unicode="&#x201e;" horiz-adv-x="333" 
d="M295 14q0 -51 -31 -84.5t-91 -33.5v33q29 0 46 18t17 53h-51v136h110v-122zM148 14q0 -51 -31 -84.5t-91 -33.5v33q28 0 45 18t17 53h-51v136h111v-122z" />
    <glyph glyph-name="quotesinglbase" unicode="&#x201a;" horiz-adv-x="185" 
d="M148 14q0 -51 -31 -84.5t-91 -33.5v33q28 0 45 18t17 53h-51v136h111v-122v0z" />
    <glyph glyph-name="guillemotleft" unicode="&#xab;" horiz-adv-x="476" 
d="M386 0q-7 26 -21 51t-33.5 46.5t-44 37t-52.5 21.5v75q28 6 52.5 22t44 37t33.5 46t21 51h56q0 -26 -6.5 -54.5t-18.5 -54.5t-28.5 -48.5t-37.5 -36.5q21 -14 37.5 -36t28.5 -48t18.5 -54t6.5 -55h-56zM177 0q-7 26 -21 51t-33.5 46.5t-44 37t-52.5 21.5v75q28 6 52.5 22
t44 37t33.5 46t21 51h57q0 -26 -6.5 -54.5t-18.5 -54.5t-28.5 -48.5t-37.5 -36.5q21 -14 37.5 -36t28.5 -48t18.5 -54t6.5 -55h-57z" />
    <glyph glyph-name="guillemotright" unicode="&#xbb;" horiz-adv-x="476" 
d="M449 156q-28 -6 -52.5 -21.5t-44 -37t-33.5 -46.5t-21 -51h-57q0 27 6.5 55t18.5 54t28.5 48t37.5 36q-21 14 -37.5 36.5t-28.5 48.5t-18.5 54.5t-6.5 54.5h57q7 -26 21 -51t33.5 -46t44 -37t52.5 -22v-75zM240 156q-28 -6 -52.5 -21.5t-44 -37t-33.5 -46.5t-21 -51h-56
q0 27 6.5 55t18.5 54t28.5 48t37.5 36q-21 14 -37.5 36.5t-28.5 48.5t-18.5 54.5t-6.5 54.5h56q7 -26 21 -51t33.5 -46t44 -37t52.5 -22v-75z" />
    <glyph glyph-name="guilsinglleft" unicode="&#x2039;" horiz-adv-x="267" 
d="M177 0q-7 26 -21 51t-33.5 46.5t-44 37t-52.5 21.5v75q28 6 52.5 22t44 37t33.5 46t21 51h57q0 -26 -6.5 -54.5t-18.5 -54.5t-28.5 -48.5t-37.5 -36.5q21 -14 37.5 -36t28.5 -48t18.5 -54t6.5 -55h-57z" />
    <glyph glyph-name="guilsinglright" unicode="&#x203a;" horiz-adv-x="267" 
d="M241 156q-28 -6 -52.5 -21.5t-44 -37t-33.5 -46.5t-21 -51h-56q0 27 6.5 55t18.5 54t28.5 48t37.5 36q-21 14 -37.5 36.5t-28.5 48.5t-18.5 54.5t-6.5 54.5h56q7 -26 21 -51t33.5 -46t44 -37t52.5 -22v-75v0z" />
    <glyph glyph-name="hyphen" unicode="-" horiz-adv-x="301" 
d="M30 255v93h241v-93h-241z" />
    <glyph glyph-name="endash" unicode="&#x2013;" horiz-adv-x="500" 
d="M63 255v93h375v-93h-375z" />
    <glyph glyph-name="emdash" unicode="&#x2014;" horiz-adv-x="750" 
d="M63 255v93h625v-93h-625z" />
    <glyph glyph-name="slash" unicode="/" horiz-adv-x="286" 
d="M89 -64h-78l190 793h78z" />
    <glyph glyph-name="backslash" unicode="\" horiz-adv-x="285" 
d="M201 -64l-190 793h77l190 -793h-77z" />
    <glyph glyph-name="bar" unicode="|" horiz-adv-x="172" 
d="M48 -64v793h75v-793h-75z" />
    <glyph glyph-name="parenleft" unicode="(" horiz-adv-x="362" 
d="M338 -184q-62 45 -108 102t-76.5 119.5t-45.5 129t-15 131.5t15 131.5t45.5 129t76.5 119.5t108 102l35 -41q-75 -88 -118 -198.5t-43 -242.5t43 -242t118 -198z" />
    <glyph glyph-name="parenright" unicode=")" horiz-adv-x="362" 
d="M271 298q0 -65 -15 -131.5t-45.5 -129t-76.5 -119.5t-108 -102l-35 42q75 88 118 198t43 242t-43 242.5t-118 198.5l35 41q62 -45 108 -102t76.5 -119.5t45.5 -129t15 -131.5z" />
    <glyph glyph-name="bracketleft" unicode="[" horiz-adv-x="331" 
d="M106 -167v931h219v-85h-127v-761h127v-85h-219z" />
    <glyph glyph-name="bracketright" unicode="]" horiz-adv-x="331" 
d="M5 -167v85h128v761h-128v85h219v-931h-219z" />
    <glyph glyph-name="braceleft" unicode="{" horiz-adv-x="349" 
d="M249 -167q-41 0 -71.5 11.5t-50.5 31t-29.5 46t-9.5 55.5q0 40 13.5 73.5t29.5 62t29.5 53t13.5 46.5q0 29 -16 41.5t-59 12.5h-33v65h33q43 0 59 12.5t16 40.5q0 22 -13.5 46.5t-29.5 53t-29.5 62t-13.5 73.5q0 30 9.5 56t29.5 46t50.5 31.5t71.5 11.5h46v-85h-30
q-34 0 -48.5 -16t-14.5 -42q0 -30 9.5 -57.5t20.5 -52.5t20.5 -48.5t9.5 -45.5q0 -45 -23 -73t-81 -40q58 -11 81 -39t23 -73q0 -22 -9.5 -47.5t-20.5 -53t-20.5 -56.5t-9.5 -59q0 -26 14.5 -42t48.5 -16h30v-85h-46z" />
    <glyph glyph-name="braceright" unicode="}" horiz-adv-x="349" 
d="M250 266q-43 0 -59 -12.5t-16 -41.5q0 -22 13.5 -46.5t29.5 -53t29.5 -62t13.5 -73.5q0 -29 -9.5 -55.5t-29.5 -46t-50.5 -31t-71.5 -11.5h-46v85h31q34 0 48 16t14 42q0 30 -9.5 59t-20.5 56.5t-20.5 53t-9.5 47.5q0 45 23.5 73t80.5 39q-57 12 -80.5 40t-23.5 73
q0 22 9.5 45.5t20.5 48.5t20.5 52.5t9.5 57.5q0 26 -14 42t-48 16h-31v85h46q41 0 71.5 -11.5t50.5 -31.5t29.5 -46t9.5 -56q0 -40 -13.5 -73.5t-29.5 -62t-29.5 -53t-13.5 -46.5q0 -28 16 -40.5t59 -12.5h33v-65h-33z" />
    <glyph glyph-name="at" unicode="@" horiz-adv-x="734" 
d="M707 384q0 -43 -13 -84t-38 -72.5t-62 -51t-85 -19.5t-74 25.5t-24 63.5q-20 -38 -51.5 -59t-67.5 -21q-45 0 -72 30t-27 79q0 34 14 73.5t38.5 73t58.5 55.5t74 22q34 0 53.5 -17.5t24.5 -45.5l19 54h87l-71 -205q-11 -33 -2.5 -55t43.5 -22q24 0 45.5 12t38 34.5
t26.5 55.5t10 74q0 55 -20.5 101t-56.5 79t-86.5 51t-110.5 18q-65 0 -119 -23.5t-93 -64t-60.5 -95.5t-21.5 -117q0 -64 21.5 -119t60.5 -95.5t93 -63.5t119 -23q60 0 110.5 20t88.5 55l32 -39q-45 -40 -103.5 -62.5t-127.5 -22.5q-75 0 -139 27t-110.5 74t-73 111
t-26.5 138q0 72 26.5 136t73 111t110.5 74.5t139 27.5q87 0 149 -29t102 -73t59 -96.5t19 -99.5zM439 394q0 20 -10 35.5t-34 15.5q-27 0 -48.5 -18t-37 -44t-23.5 -54.5t-8 -49.5q0 -28 12.5 -42t35.5 -14q29 0 51 24.5t33 58.5z" />
    <glyph glyph-name="copyright" unicode="&#xa9;" horiz-adv-x="749" 
d="M724 333q0 -72 -26.5 -136t-73 -111.5t-111 -75t-139.5 -27.5t-139 27.5t-110.5 75t-73 111.5t-26.5 136t26.5 136t73 111.5t110.5 75t139 27.5t139.5 -27.5t111 -75t73 -111.5t26.5 -136zM669 333q0 62 -21.5 117t-60.5 95.5t-93 64t-120 23.5q-65 0 -119 -23.5t-93 -64
t-60.5 -95.5t-21.5 -117t21.5 -117t60.5 -95.5t93 -64t119 -23.5q66 0 120 23.5t93 64t60.5 95.5t21.5 117zM493 273q0 -45 -30 -73t-83 -28q-54 0 -86 29.5t-32 74.5v114q0 45 32 74.5t86 29.5q53 0 83 -28t30 -73v-21h-53v20q0 23 -15 39t-44 16t-43.5 -17t-14.5 -41v-112
q0 -23 14.5 -40.5t43.5 -17.5t44 16t15 39v20h53v-21z" />
    <glyph glyph-name="uni2117" unicode="&#x2117;" horiz-adv-x="749" 
d="M724 333q0 -72 -26.5 -136t-73 -111.5t-111 -75t-139.5 -27.5t-139 27.5t-110.5 75t-73 111.5t-26.5 136t26.5 136t73 111.5t110.5 75t139 27.5t139.5 -27.5t111 -75t73 -111.5t26.5 -136zM669 333q0 62 -21.5 117t-60.5 95.5t-93 64t-120 23.5q-65 0 -119 -23.5t-93 -64
t-60.5 -95.5t-21.5 -117t21.5 -117t60.5 -95.5t93 -64t119 -23.5q66 0 120 23.5t93 64t60.5 95.5t21.5 117zM503 379q0 -34 -21 -57.5t-73 -23.5h-67v-115h-60v304h127q52 0 73 -21.5t21 -55.5v-31zM442 410q0 14 -8.5 23t-30.5 9h-61v-98h61q22 0 30.5 10.5t8.5 24.5v31z
" />
    <glyph glyph-name="uniE008" unicode="&#xe008;" horiz-adv-x="749" 
d="M724 333q0 -72 -26.5 -136t-73 -111.5t-111 -75t-139.5 -27.5t-139 27.5t-110.5 75t-73 111.5t-26.5 136t26.5 136t73 111.5t110.5 75t139 27.5t139.5 -27.5t111 -75t73 -111.5t26.5 -136zM669 333q0 62 -21.5 117t-60.5 95.5t-93 64t-120 23.5q-65 0 -119 -23.5t-93 -64
t-60.5 -95.5t-21.5 -117t21.5 -117t60.5 -95.5t93 -64t119 -23.5q66 0 120 23.5t93 64t60.5 95.5t21.5 117zM496 179q-35 0 -48.5 11t-13.5 41v33q0 20 -9.5 33t-32.5 13h-60v-127h-60v304h127q52 0 73 -23.5t21 -62.5v-2q0 -29 -12 -46t-41 -22q29 -3 42 -23t13 -43v-29
q0 -14 17 -14v-43h-16zM432 402q0 16 -8 27t-30 11h-62v-89h56q44 0 44 44v7z" />
    <glyph glyph-name="registered" unicode="&#xae;" horiz-adv-x="420" 
d="M282 419q-36 0 -36 32v20q0 12 -7 20t-20 8h-42v-77h-35v185h81q32 0 45 -14.5t13 -38.5v-1q0 -15 -6 -26.5t-23 -14.5q17 -2 23 -14t6 -26v-18q0 -8 13 -8v-27h-12zM399 515q0 -39 -14 -73.5t-39.5 -60t-60 -40t-74.5 -14.5q-41 0 -75 14.5t-59.5 40t-39.5 60t-14 73.5
t14 73t39.5 59.5t59.5 40.5t75 15q40 0 74.5 -15t60 -40.5t39.5 -59.5t14 -73zM53 515q0 -33 11.5 -62.5t32.5 -51t50 -34t64 -12.5t64 12.5t50 34t32.5 51t11.5 62.5q0 34 -11.5 63t-32.5 51t-50 34.5t-64 12.5t-64 -12.5t-50 -34.5t-32.5 -51t-11.5 -63zM245 555
q0 9 -6 16.5t-18 7.5h-44v-54h41q12 0 19.5 6t7.5 20v4z" />
    <glyph glyph-name="uni2120" unicode="&#x2120;" horiz-adv-x="641" 
d="M136 354q-56 0 -86 26t-30 65v12h67v-2q0 -22 14 -33t34 -11q25 0 34 11t9 24q0 14 -12 23t-41 17q-20 5 -38 11.5t-31.5 17t-22 26.5t-8.5 40q0 17 7 34t20.5 30.5t34 21.5t46.5 8q53 0 81.5 -26.5t28.5 -64.5v-16h-65v3q0 25 -13 35.5t-31 10.5q-20 0 -29.5 -10.5
t-9.5 -24.5q0 -17 14 -25t41 -16q18 -5 36 -11.5t32.5 -16.5t23 -25.5t8.5 -39.5q0 -37 -29 -65.5t-85 -28.5zM295 666h97l38 -135l14 -60l14 60l36 135h97v-304h-66v231l-20 -96l-36 -135h-55l-35 135l-20 95v-230h-64v304z" />
    <glyph glyph-name="trademark" unicode="&#x2122;" horiz-adv-x="675" 
d="M176 603v-241h-70v241h-83v63h236v-63h-83zM309 666h97l38 -135l14 -60l14 60l36 135h97v-304h-66v231l-20 -96l-36 -135h-55l-35 135l-20 95v-230h-64v304z" />
    <glyph glyph-name="asterisk" unicode="*" horiz-adv-x="343" 
d="M288 428q-4 -7 -10 -6.5t-11 2.5q-17 10 -34 23t-39 35q7 -28 10 -52.5t3 -41.5q0 -5 -3 -10.5t-10 -5.5h-44q-7 0 -10 5.5t-3 10.5q0 20 2.5 41.5t10.5 51.5q-21 -20 -40.5 -35t-33.5 -23q-5 -3 -11 -3t-10 6l-21 38q-4 6 -1 11.5t8 7.5q17 10 37 18.5t49 16.5
q-28 8 -50.5 18t-36.5 18q-5 2 -8 7.5t1 11.5l21 38q4 6 10 6t11 -3q17 -10 34 -23t40 -34q-8 28 -11 52t-3 41q0 5 3 10.5t11 5.5h43q8 0 10.5 -5.5t2.5 -10.5q0 -20 -2.5 -41.5t-10.5 -51.5q21 20 40.5 35.5t33.5 23.5q5 2 11 2t10 -6l22 -38q3 -6 0 -11.5t-8 -7.5
q-17 -10 -37 -18.5t-49 -16.5q28 -8 50.5 -17.5t36.5 -17.5q5 -3 8 -8t-1 -12z" />
    <glyph glyph-name="dagger" unicode="&#x2020;" horiz-adv-x="424" 
d="M409 413q0 -8 -5.5 -11t-10.5 -3q-8 0 -28 1t-43 2.5t-46 4t-37 6.5q4 -14 6.5 -39.5t4 -52t2.5 -49t1 -30.5q0 -112 -3 -183.5t-8 -114.5q0 -5 -2.5 -10.5t-10.5 -5.5h-34q-8 0 -11 5.5t-3 10.5q-5 43 -7.5 114.5t-2.5 183.5q0 8 1 30.5t2.5 49t4 52t5.5 39.5
q-14 -4 -36.5 -6.5t-46 -4t-43 -2.5t-27.5 -1q-5 0 -10.5 3t-5.5 11v55q0 7 5.5 10t10.5 3q9 0 28.5 -0.5t42 -2t45 -4t37.5 -6.5q-4 14 -6.5 41t-4 55.5t-2 53t-0.5 32.5q0 5 3 10.5t10 5.5h55q8 0 11 -5.5t3 -10.5q0 -8 -1 -32.5t-2.5 -53t-4 -55.5t-5.5 -41q15 4 37 6.5
t44.5 4t42 2t29.5 0.5q5 0 10.5 -3t5.5 -10v-55v0z" />
    <glyph glyph-name="daggerdbl" unicode="&#x2021;" horiz-adv-x="424" 
d="M409 117q0 -8 -5.5 -10.5t-10.5 -2.5q-10 0 -29.5 0.5t-42 2t-44.5 4t-37 6.5q3 -14 5.5 -41.5t4 -56t2.5 -52.5t1 -32q0 -5 -3 -10.5t-11 -5.5h-55q-7 0 -10 5.5t-3 10.5q0 8 0.5 32t2 52.5t4 56t6.5 41.5q-15 -4 -37.5 -6.5t-45 -4t-42 -2t-28.5 -0.5q-5 0 -10.5 2.5
t-5.5 10.5v55q0 8 5.5 10.5t10.5 2.5q8 0 27.5 -1t43 -2.5t46 -4t36.5 -5.5q-3 14 -5.5 30.5t-4 33t-2.5 30.5t-1 22t1 22t2.5 30.5t4 33t5.5 30.5q-14 -4 -36.5 -6.5t-46 -4t-43 -2.5t-27.5 -1q-5 0 -10.5 3t-5.5 11v55q0 7 5.5 10t10.5 3q9 0 28.5 -0.5t42 -2t45 -4
t37.5 -6.5q-4 14 -6.5 41t-4 55.5t-2 53t-0.5 32.5q0 5 3 10.5t10 5.5h55q8 0 11 -5.5t3 -10.5q0 -8 -1 -32.5t-2.5 -53t-4 -55.5t-5.5 -41q15 4 37 6.5t44.5 4t42 2t29.5 0.5q5 0 10.5 -3t5.5 -10v-55q0 -8 -5.5 -11t-10.5 -3q-8 0 -28 1t-43 2.5t-46 4t-37 6.5
q4 -14 6.5 -30.5t4 -33t2.5 -30.5t1 -22t-1 -22t-2.5 -30.5t-4 -33t-6.5 -30.5q14 3 37 5.5t46 4t43 2.5t28 1q5 0 10.5 -2.5t5.5 -10.5v-55v0z" />
    <glyph glyph-name="bullet" unicode="&#x2022;" horiz-adv-x="320" 
d="M289 333q0 -62 -37 -96.5t-92 -34.5q-56 0 -93 34.5t-37 96.5t37 96.5t93 34.5q55 0 92 -34.5t37 -96.5z" />
    <glyph glyph-name="AE" unicode="&#xc6;" horiz-adv-x="720" 
d="M321 0v132h-129l-50 -132h-140l256 666h434v-120h-228v-145h157v-109h-157v-167h228v-125h-371zM321 493l-92 -254h92v254z" />
    <glyph glyph-name="OE" unicode="&#x152;" horiz-adv-x="733" 
d="M263 0q-53 0 -94 14.5t-69 41t-42.5 63t-14.5 81.5v258q0 45 14.5 83t42.5 65.5t69 43.5t94 16h442v-120h-228v-145h157v-109h-157v-167h228v-125h-442zM334 548h-62q-86 0 -86 -91v-248q0 -91 86 -91h62v430z" />
    <glyph glyph-name="Thorn" unicode="&#xde;" horiz-adv-x="486" 
d="M460 302q0 -75 -43 -119.5t-128 -44.5h-98v-138h-143v666h144v-109h97q85 0 128 -45t43 -120v-90zM323 389q0 27 -11.5 41.5t-39.5 14.5h-81v-201h81q28 0 39.5 14t11.5 42v89z" />
    <glyph glyph-name="Eth" unicode="&#xd0;" horiz-adv-x="540" 
d="M499 192q0 -42 -13.5 -77.5t-40.5 -61t-66.5 -39.5t-91.5 -14h-222v288h-55v91h55v287h222q52 0 91.5 -15.5t66.5 -42.5t40.5 -63.5t13.5 -78.5v-274zM356 463q0 40 -19 62t-61 22h-68v-168h55v-91h-55v-169h68q42 0 61 22t19 62v260z" />
    <glyph glyph-name="Dcroat" unicode="&#x110;" horiz-adv-x="540" 
d="M499 192q0 -42 -13.5 -77.5t-40.5 -61t-66.5 -39.5t-91.5 -14h-222v288h-55v91h55v287h222q52 0 91.5 -15.5t66.5 -42.5t40.5 -63.5t13.5 -78.5v-274zM356 463q0 40 -19 62t-61 22h-68v-168h55v-91h-55v-169h68q42 0 61 22t19 62v260z" />
    <glyph glyph-name="Hbar" unicode="&#x126;" horiz-adv-x="569" 
d="M368 0v267h-166v-267h-143v499h-66v62h66v105h143v-105h166v105h143v-105h65v-62h-65v-499h-143zM368 390v109h-166v-109h166z" />
    <glyph glyph-name="Lslash" unicode="&#x141;" horiz-adv-x="483" 
d="M251 123h220v-123h-363v253l-87 -38l-22 59l109 47v345h143v-283l80 35l22 -59l-102 -44v-192z" />
    <glyph glyph-name="Oslash" unicode="&#xd8;" horiz-adv-x="520" 
d="M454 583q25 -47 25 -104v-292q0 -45 -15 -82.5t-43 -64.5t-68.5 -42t-92.5 -15q-46 0 -83.5 12t-65.5 35l-39 -63l-54 38l48 78q-25 45 -25 104v292q0 44 15 81.5t43 64.5t69 42t92 15q47 0 84 -12t65 -34l39 63l54 -38zM332 512q-6 23 -24.5 36.5t-47.5 13.5
q-35 0 -54.5 -20.5t-19.5 -54.5v-211zM335 391l-146 -236q6 -23 24 -37t47 -14q36 0 55.5 20.5t19.5 54.5v212z" />
    <glyph glyph-name="Ccedilla" unicode="&#xc7;" horiz-adv-x="504" 
d="M217 -13q-42 7 -75 25t-55.5 45t-34 60.5t-11.5 71.5v288q0 43 15 80.5t43.5 65.5t70 44t94.5 16q52 0 91.5 -14.5t65.5 -40.5t39.5 -61.5t13.5 -77.5v-65h-128v62q0 35 -20 55.5t-60 20.5t-60 -21t-20 -53v-311q0 -32 20 -52.5t60 -20.5t60 20.5t20 55.5v62h128v-65
q0 -41 -13 -76t-39 -61t-64 -41t-89 -16q-2 -5 -6 -9q-3 -5 -7 -10l-8 -10l-22 -28q8 5 19.5 6.5t21.5 1.5q45 0 69 -27t24 -69q0 -40 -29 -67t-74 -27q-15 0 -26.5 3.5t-16.5 7.5v37h20q44 0 44 36v31q0 38 -44 38q-24 0 -48 -25l-36 26l67 89v0z" />
    <glyph glyph-name="Scedilla" unicode="&#x15e;" horiz-adv-x="481" 
d="M330 -162q0 -40 -29 -67.5t-74 -27.5q-15 0 -26.5 4t-16.5 7v37h20q44 0 44 37v31q0 38 -44 38q-23 0 -48 -25l-36 25l67 91q-75 13 -117.5 61.5t-42.5 122.5v34h131v-22q0 -86 80 -86q38 0 57 20t19 55q0 36 -28.5 61.5t-86.5 55.5q-30 16 -59.5 34.5t-53 42t-38 53.5
t-14.5 68t13.5 73t40 62t65.5 43t90 16q46 0 83.5 -14.5t64 -40t41 -59.5t14.5 -74v-27h-129v21q0 34 -18.5 57t-56.5 23q-32 0 -50.5 -18t-18.5 -48q0 -35 29.5 -59.5t93.5 -57.5q35 -19 64 -39t50 -43.5t32.5 -52.5t11.5 -65q0 -41 -14.5 -77.5t-42 -64t-67 -44
t-89.5 -16.5h-2l-43 -58q8 5 19.5 6.5t21.5 1.5q45 0 69 -26.5t24 -68.5z" />
    <glyph glyph-name="Aogonek" unicode="&#x104;" horiz-adv-x="478" 
d="M489 -185q-11 -7 -24.5 -11.5t-33.5 -4.5q-47 0 -72 26t-25 62q0 29 17.5 59.5t49.5 53.5h-70l-28 132h-138l-28 -132h-134l156 666h160l155 -666h-24q-17 -19 -28 -42t-11 -46q0 -12 3.5 -24t12.5 -20.5t24 -12t38 0.5v-41zM237 481l-51 -243h98z" />
    <glyph glyph-name="Eogonek" unicode="&#x118;" horiz-adv-x="447" 
d="M382 0q-17 -19 -28 -42t-11 -46q0 -12 3.5 -24t12.5 -20.5t24 -12t38 0.5v-41q-11 -7 -24.5 -11.5t-33.5 -4.5q-47 0 -72 26t-25 62q0 29 17.5 59.5t49.5 53.5h-285v666h371v-120h-228v-146h157v-108h-157v-167h228v-125h-37z" />
    <glyph glyph-name="Iogonek" unicode="&#x12e;" horiz-adv-x="240" 
d="M194 -185q-11 -7 -24.5 -11.5t-33.5 -4.5q-47 0 -72 26t-25 62q0 29 17.5 59.5t49.5 53.5h-58v666h143v-666h-36q-17 -19 -28 -42t-11 -46q0 -12 3.5 -24t12.5 -20.5t24 -12t38 0.5v-41z" />
    <glyph glyph-name="Uogonek" unicode="&#x172;" horiz-adv-x="527" 
d="M479 170q0 -78 -51.5 -128t-136.5 -58q-12 -17 -19 -35t-7 -37q0 -12 3.5 -24t12.5 -20.5t24 -12t38 0.5v-41q-11 -7 -24.5 -11.5t-33.5 -4.5q-47 0 -72 26t-25 62q0 25 13 50.5t36 47.5q-42 4 -77 19t-60 39t-39 56t-14 71v496h145v-494q0 -70 73 -70q36 0 55.5 18
t19.5 52v494h139v-496v0z" />
    <glyph glyph-name="Aring" unicode="&#xc5;" horiz-adv-x="478" 
d="M182 666q-17 11 -27.5 29t-10.5 39q0 36 26 63.5t68 27.5q21 0 38 -7.5t29.5 -20t19.5 -29t7 -34.5q0 -21 -10 -39t-27 -29h24l155 -666h-143l-28 132h-138l-28 -132h-134l156 666h23zM284 734q0 23 -12 36.5t-34 13.5t-34 -13.5t-12 -36.5q0 -22 12 -36t34 -14t34 14
t12 36zM237 481l-51 -243h98z" />
    <glyph glyph-name="Ldot" unicode="&#x13f;" horiz-adv-x="423" 
d="M275 300v136h111v-136h-111zM48 0v666h143v-543h219v-123h-362z" />
    <glyph glyph-name="Aacute" unicode="&#xc1;" horiz-adv-x="478" 
d="M331 0l-28 132h-138l-28 -132h-134l156 666h160l155 -666h-143zM237 481l-51 -243h98zM269 706h-68l41 143h116z" />
    <glyph glyph-name="Abreve" unicode="&#x102;" horiz-adv-x="478" 
d="M331 0l-28 132h-138l-28 -132h-134l156 666h160l155 -666h-143zM237 481l-51 -243h98zM366 811q0 -38 -36 -63t-91 -25t-90.5 25t-35.5 63q0 14 3 24t8 20h55v-15q0 -20 14 -34t46 -14q33 0 47 14t14 34v15h55q5 -10 8 -20t3 -24z" />
    <glyph glyph-name="Acircumflex" unicode="&#xc2;" horiz-adv-x="478" 
d="M331 0l-28 132h-138l-28 -132h-134l156 666h160l155 -666h-143zM237 481l-51 -243h98zM383 713q-26 -8 -50 -8q-35 0 -59.5 22.5t-34.5 61.5q-10 -39 -35.5 -61.5t-60.5 -22.5q-19 0 -43 8v31q64 0 92 97h98q28 -97 93 -97v-31v0z" />
    <glyph glyph-name="Adieresis" unicode="&#xc4;" horiz-adv-x="478" 
d="M331 0l-28 132h-138l-28 -132h-134l156 666h160l155 -666h-143zM237 481l-51 -243h98zM263 715v102h95v-102h-95zM111 715v102h95v-102h-95z" />
    <glyph glyph-name="Agrave" unicode="&#xc0;" horiz-adv-x="478" 
d="M331 0l-28 132h-138l-28 -132h-134l156 666h160l155 -666h-143zM237 481l-51 -243h98zM202 706l-89 143h116l40 -143h-67z" />
    <glyph glyph-name="Amacron" unicode="&#x100;" horiz-adv-x="478" 
d="M331 0l-28 132h-138l-28 -132h-134l156 666h160l155 -666h-143zM237 481l-51 -243h98zM106 743v70h266v-70h-266z" />
    <glyph glyph-name="Aringacute" unicode="&#x1fa;" horiz-adv-x="478" 
d="M268 848h-68l41 143h116zM182 666q-17 11 -27.5 29t-10.5 39q0 36 26 63.5t68 27.5q21 0 38 -7.5t29.5 -20t19.5 -29t7 -34.5q0 -21 -10 -39t-27 -29h24l155 -666h-143l-28 132h-138l-28 -132h-134l156 666h23zM284 734q0 23 -12 36.5t-34 13.5t-34 -13.5t-12 -36.5
q0 -22 12 -36t34 -14t34 14t12 36zM237 481l-51 -243h98z" />
    <glyph glyph-name="Atilde" unicode="&#xc3;" horiz-adv-x="478" 
d="M331 0l-28 132h-138l-28 -132h-134l156 666h160l155 -666h-143zM237 481l-51 -243h98zM381 802q0 -38 -20 -61.5t-64 -23.5q-20 0 -38.5 8t-35 17.5t-30.5 17.5t-25 8q-23 0 -23 -25v-24h-46q-15 19 -15 44q0 38 20 61.5t63 23.5q21 0 39.5 -8t35 -17t30.5 -17t25 -8
q23 0 23 25v24h46q7 -10 11 -20.5t4 -24.5z" />
    <glyph glyph-name="Cacute" unicode="&#x106;" horiz-adv-x="504" 
d="M295 723h-68l41 143h116zM474 177q0 -42 -13.5 -77.5t-39.5 -61.5t-65.5 -40.5t-91.5 -14.5q-53 0 -94.5 16t-70 44t-43.5 65.5t-15 80.5v288q0 43 15 80.5t43.5 65.5t70 44t94.5 16q52 0 91.5 -14.5t65.5 -40.5t39.5 -61.5t13.5 -77.5v-65h-128v62q0 35 -20 55.5
t-60 20.5t-60 -21t-20 -53v-311q0 -32 20 -52.5t60 -20.5t60 20.5t20 55.5v62h128v-65v0z" />
    <glyph glyph-name="Ccaron" unicode="&#x10c;" horiz-adv-x="504" 
d="M406 825q-65 0 -93 -97h-98q-28 97 -92 97v31q11 4 24.5 5.5t24.5 1.5q35 0 60 -22t35 -60q10 38 35 60t60 22q22 0 44 -7v-31v0zM474 177q0 -42 -13.5 -77.5t-39.5 -61.5t-65.5 -40.5t-91.5 -14.5q-53 0 -94.5 16t-70 44t-43.5 65.5t-15 80.5v288q0 43 15 80.5
t43.5 65.5t70 44t94.5 16q52 0 91.5 -14.5t65.5 -40.5t39.5 -61.5t13.5 -77.5v-65h-128v62q0 35 -20 55.5t-60 20.5t-60 -21t-20 -53v-311q0 -32 20 -52.5t60 -20.5t60 20.5t20 55.5v62h128v-65v0z" />
    <glyph glyph-name="Cdotaccent" unicode="&#x10a;" horiz-adv-x="504" 
d="M474 177q0 -42 -13.5 -77.5t-39.5 -61.5t-65.5 -40.5t-91.5 -14.5q-53 0 -94.5 16t-70 44t-43.5 65.5t-15 80.5v288q0 43 15 80.5t43.5 65.5t70 44t94.5 16q52 0 91.5 -14.5t65.5 -40.5t39.5 -61.5t13.5 -77.5v-65h-128v62q0 35 -20 55.5t-60 20.5t-60 -21t-20 -53v-311
q0 -32 20 -52.5t60 -20.5t60 20.5t20 55.5v62h128v-65v0zM217 732v102h95v-102h-95z" />
    <glyph glyph-name="Dcaron" unicode="&#x10e;" horiz-adv-x="523" 
d="M395 818q-65 0 -93 -97h-98q-28 97 -92 97v31q11 4 24.5 5.5t24.5 1.5q35 0 60 -22t35 -60q10 38 35 60t60 22q22 0 44 -7v-31v0zM482 192q0 -42 -13.5 -77.5t-40.5 -61t-66.5 -39.5t-91.5 -14h-222v666h222q52 0 91.5 -15.5t66.5 -42.5t40.5 -63.5t13.5 -78.5v-274z
M339 463q0 40 -19 62t-61 22h-68v-428h68q42 0 61 22t19 62v260z" />
    <glyph glyph-name="Eacute" unicode="&#xc9;" horiz-adv-x="447" 
d="M48 0v666h371v-120h-228v-146h157v-108h-157v-167h228v-125h-371zM252 706h-68l41 143h116z" />
    <glyph glyph-name="Ebreve" unicode="&#x114;" horiz-adv-x="447" 
d="M48 0v666h371v-120h-228v-146h157v-108h-157v-167h228v-125h-371zM358 804q0 -38 -36 -63t-91 -25t-90.5 25t-35.5 63q0 14 3 24t8 20h55v-15q0 -20 14 -34t46 -14q33 0 47 14t14 34v15h55q5 -10 8 -20t3 -24z" />
    <glyph glyph-name="Ecaron" unicode="&#x11a;" horiz-adv-x="447" 
d="M372 818q-65 0 -93 -97h-98q-28 97 -92 97v31q11 4 24.5 5.5t24.5 1.5q35 0 60 -22t35 -60q10 38 35 60t60 22q22 0 44 -7v-31v0zM48 0v666h371v-120h-228v-146h157v-108h-157v-167h228v-125h-371z" />
    <glyph glyph-name="Ecircumflex" unicode="&#xca;" horiz-adv-x="447" 
d="M48 0v666h371v-120h-228v-146h157v-108h-157v-167h228v-125h-371zM371 713q-26 -8 -50 -8q-35 0 -59.5 22.5t-34.5 61.5q-10 -39 -35.5 -61.5t-60.5 -22.5q-19 0 -43 8v31q64 0 92 97h98q28 -97 93 -97v-31v0z" />
    <glyph glyph-name="Edieresis" unicode="&#xcb;" horiz-adv-x="447" 
d="M48 0v666h371v-120h-228v-146h157v-108h-157v-167h228v-125h-371zM258 715v102h95v-102h-95zM106 715v102h95v-102h-95z" />
    <glyph glyph-name="Edotaccent" unicode="&#x116;" horiz-adv-x="447" 
d="M48 0v666h371v-120h-228v-146h157v-108h-157v-167h228v-125h-371zM183 725v102h95v-102h-95z" />
    <glyph glyph-name="Egrave" unicode="&#xc8;" horiz-adv-x="447" 
d="M48 0v666h371v-120h-228v-146h157v-108h-157v-167h228v-125h-371zM201 706l-89 143h116l40 -143h-67z" />
    <glyph glyph-name="Emacron" unicode="&#x112;" horiz-adv-x="447" 
d="M48 0v666h371v-120h-228v-146h157v-108h-157v-167h228v-125h-371zM98 736v70h266v-70h-266z" />
    <glyph glyph-name="Gbreve" unicode="&#x11e;" horiz-adv-x="517" 
d="M401 0l-18 61q-20 -38 -57.5 -58t-85.5 -20q-50 0 -87 16t-62 42.5t-37.5 61.5t-12.5 74v312q0 37 14.5 72t42.5 62t69.5 43t94.5 16t93 -15.5t67 -42t40.5 -61.5t13.5 -74v-50h-138v54q0 28 -17.5 48.5t-57.5 20.5q-39 0 -58 -21.5t-19 -49.5v-316q0 -27 20 -49t58 -22
q40 0 59.5 22t19.5 49v69h-78v98h214v-342h-78zM388 811q0 -38 -36 -63t-91 -25t-90.5 25t-35.5 63q0 14 3 24t8 20h55v-15q0 -20 14 -34t46 -14q33 0 47 14t14 34v15h55q5 -10 8 -20t3 -24z" />
    <glyph glyph-name="uni0122" unicode="&#x122;" horiz-adv-x="517" 
d="M303 -137q0 -42 -23.5 -67.5t-73.5 -25.5v33q22 0 36 13.5t13 37.5h-47v96h95v-87v0zM401 0l-18 61q-20 -38 -57.5 -58t-85.5 -20q-50 0 -87 16t-62 42.5t-37.5 61.5t-12.5 74v312q0 37 14.5 72t42.5 62t69.5 43t94.5 16t93 -15.5t67 -42t40.5 -61.5t13.5 -74v-50h-138
v54q0 28 -17.5 48.5t-57.5 20.5q-39 0 -58 -21.5t-19 -49.5v-316q0 -27 20 -49t58 -22q40 0 59.5 22t19.5 49v69h-78v98h214v-342h-78z" />
    <glyph glyph-name="Gdotaccent" unicode="&#x120;" horiz-adv-x="517" 
d="M401 0l-18 61q-20 -38 -57.5 -58t-85.5 -20q-50 0 -87 16t-62 42.5t-37.5 61.5t-12.5 74v312q0 37 14.5 72t42.5 62t69.5 43t94.5 16t93 -15.5t67 -42t40.5 -61.5t13.5 -74v-50h-138v54q0 28 -17.5 48.5t-57.5 20.5q-39 0 -58 -21.5t-19 -49.5v-316q0 -27 20 -49t58 -22
q40 0 59.5 22t19.5 49v69h-78v98h214v-342h-78zM212 732v102h95v-102h-95z" />
    <glyph glyph-name="Iacute" unicode="&#xcd;" horiz-adv-x="240" 
d="M48 0v666h143v-666h-143zM147 706h-68l41 143h116z" />
    <glyph glyph-name="Ibreve" unicode="&#x12c;" horiz-adv-x="240" 
d="M48 0v666h143v-666h-143zM248 804q0 -38 -36 -63t-91 -25t-90.5 25t-35.5 63q0 14 3 24t8 20h55v-15q0 -20 14 -34t46 -14q33 0 47 14t14 34v15h55q5 -10 8 -20t3 -24z" />
    <glyph glyph-name="Icircumflex" unicode="&#xce;" horiz-adv-x="240" 
d="M48 0v666h143v-666h-143zM264 713q-26 -8 -50 -8q-35 0 -59.5 22.5t-34.5 61.5q-10 -39 -35.5 -61.5t-60.5 -22.5q-19 0 -43 8v31q64 0 92 97h98q28 -97 93 -97v-31v0z" />
    <glyph glyph-name="Idieresis" unicode="&#xcf;" horiz-adv-x="240" 
d="M48 0v666h143v-666h-143zM148 715v102h95v-102h-95zM-4 715v102h95v-102h-95z" />
    <glyph glyph-name="Idotaccent" unicode="&#x130;" horiz-adv-x="240" 
d="M48 0v666h143v-666h-143zM72 725v102h95v-102h-95z" />
    <glyph glyph-name="Igrave" unicode="&#xcc;" horiz-adv-x="240" 
d="M48 0v666h143v-666h-143zM86 706l-89 143h116l40 -143h-67z" />
    <glyph glyph-name="Imacron" unicode="&#x12a;" horiz-adv-x="240" 
d="M48 0v666h143v-666h-143zM-13 736v70h266v-70h-266z" />
    <glyph glyph-name="uni0136" unicode="&#x136;" horiz-adv-x="509" 
d="M302 -138q0 -42 -23.5 -67.5t-73.5 -25.5v33q22 0 36 13.5t13 37.5h-47v96h95v-87v0zM351 0l-111 272l-49 -81v-191h-143v666h143v-298l158 298h145l-155 -280l162 -386h-150z" />
    <glyph glyph-name="Lacute" unicode="&#x139;" horiz-adv-x="423" 
d="M148 706h-68l41 143h116zM48 0v666h143v-543h219v-123h-362z" />
    <glyph glyph-name="Lcaron" unicode="&#x13d;" horiz-adv-x="423" 
d="M297 501h-54v165h96zM48 0v666h143v-543h219v-123h-362z" />
    <glyph glyph-name="uni013B" unicode="&#x13b;" horiz-adv-x="423" 
d="M273 -137q0 -42 -23.5 -67.5t-73.5 -25.5v33q22 0 36 13.5t13 37.5h-47v96h95v-87v0zM48 0v666h143v-543h219v-123h-362z" />
    <glyph glyph-name="Nacute" unicode="&#x143;" horiz-adv-x="542" 
d="M295 713h-68l41 143h116zM383 0l-147 267l-57 109v-376h-131v666h119l143 -273l54 -109v382h129v-666h-110z" />
    <glyph glyph-name="Ncaron" unicode="&#x147;" horiz-adv-x="542" 
d="M406 815q-65 0 -93 -97h-98q-28 97 -92 97v31q11 4 24.5 5.5t24.5 1.5q35 0 60 -22t35 -60q10 38 35 60t60 22q22 0 44 -7v-31v0zM383 0l-147 267l-57 109v-376h-131v666h119l143 -273l54 -109v382h129v-666h-110z" />
    <glyph glyph-name="uni0145" unicode="&#x145;" horiz-adv-x="542" 
d="M319 -134q0 -42 -23.5 -67.5t-73.5 -25.5v33q22 0 36 13.5t13 37.5h-47v96h95v-87v0zM383 0l-147 267l-57 109v-376h-131v666h119l143 -273l54 -109v382h129v-666h-110z" />
    <glyph glyph-name="Ntilde" unicode="&#xd1;" horiz-adv-x="542" 
d="M383 0l-147 267l-57 109v-376h-131v666h119l143 -273l54 -109v382h129v-666h-110zM415 802q0 -38 -20 -61.5t-64 -23.5q-20 0 -38.5 8t-35 17.5t-30.5 17.5t-25 8q-23 0 -23 -25v-24h-46q-15 19 -15 44q0 38 20 61.5t63 23.5q21 0 39.5 -8t35 -17t30.5 -17t25 -8
q23 0 23 25v24h46q7 -10 11 -20.5t4 -24.5z" />
    <glyph glyph-name="Oacute" unicode="&#xd3;" horiz-adv-x="520" 
d="M479 187q0 -45 -15 -82.5t-43 -64.5t-68.5 -42t-92.5 -15q-51 0 -92 15t-69 42t-43 64.5t-15 82.5v292q0 44 15 81.5t43 64.5t69 42t92 15q52 0 92.5 -15t68.5 -42t43 -64.5t15 -81.5v-292zM335 487q0 34 -19.5 54.5t-55.5 20.5q-35 0 -54.5 -20.5t-19.5 -54.5v-308
q0 -34 19.5 -54.5t54.5 -20.5q36 0 55.5 20.5t19.5 54.5v308zM291 706h-68l41 143h116z" />
    <glyph glyph-name="Obreve" unicode="&#x14e;" horiz-adv-x="520" 
d="M479 187q0 -45 -15 -82.5t-43 -64.5t-68.5 -42t-92.5 -15q-51 0 -92 15t-69 42t-43 64.5t-15 82.5v292q0 44 15 81.5t43 64.5t69 42t92 15q52 0 92.5 -15t68.5 -42t43 -64.5t15 -81.5v-292zM335 487q0 34 -19.5 54.5t-55.5 20.5q-35 0 -54.5 -20.5t-19.5 -54.5v-308
q0 -34 19.5 -54.5t54.5 -20.5q36 0 55.5 20.5t19.5 54.5v308zM389 811q0 -38 -36 -63t-91 -25t-90.5 25t-35.5 63q0 14 3 24t8 20h55v-15q0 -20 14 -34t46 -14q33 0 47 14t14 34v15h55q5 -10 8 -20t3 -24z" />
    <glyph glyph-name="Ocircumflex" unicode="&#xd4;" horiz-adv-x="520" 
d="M479 187q0 -45 -15 -82.5t-43 -64.5t-68.5 -42t-92.5 -15q-51 0 -92 15t-69 42t-43 64.5t-15 82.5v292q0 44 15 81.5t43 64.5t69 42t92 15q52 0 92.5 -15t68.5 -42t43 -64.5t15 -81.5v-292zM335 487q0 34 -19.5 54.5t-55.5 20.5q-35 0 -54.5 -20.5t-19.5 -54.5v-308
q0 -34 19.5 -54.5t54.5 -20.5q36 0 55.5 20.5t19.5 54.5v308zM404 713q-26 -8 -50 -8q-35 0 -59.5 22.5t-34.5 61.5q-10 -39 -35.5 -61.5t-60.5 -22.5q-19 0 -43 8v31q64 0 92 97h98q28 -97 93 -97v-31v0z" />
    <glyph glyph-name="Odieresis" unicode="&#xd6;" horiz-adv-x="520" 
d="M479 187q0 -45 -15 -82.5t-43 -64.5t-68.5 -42t-92.5 -15q-51 0 -92 15t-69 42t-43 64.5t-15 82.5v292q0 44 15 81.5t43 64.5t69 42t92 15q52 0 92.5 -15t68.5 -42t43 -64.5t15 -81.5v-292zM335 487q0 34 -19.5 54.5t-55.5 20.5q-35 0 -54.5 -20.5t-19.5 -54.5v-308
q0 -34 19.5 -54.5t54.5 -20.5q36 0 55.5 20.5t19.5 54.5v308zM291 715v102h95v-102h-95zM139 715v102h95v-102h-95z" />
    <glyph glyph-name="Ograve" unicode="&#xd2;" horiz-adv-x="520" 
d="M479 187q0 -45 -15 -82.5t-43 -64.5t-68.5 -42t-92.5 -15q-51 0 -92 15t-69 42t-43 64.5t-15 82.5v292q0 44 15 81.5t43 64.5t69 42t92 15q52 0 92.5 -15t68.5 -42t43 -64.5t15 -81.5v-292zM335 487q0 34 -19.5 54.5t-55.5 20.5q-35 0 -54.5 -20.5t-19.5 -54.5v-308
q0 -34 19.5 -54.5t54.5 -20.5q36 0 55.5 20.5t19.5 54.5v308zM228 706l-89 143h116l40 -143h-67z" />
    <glyph glyph-name="Ohungarumlaut" unicode="&#x150;" horiz-adv-x="520" 
d="M351 723h-68l59 143h96zM224 723h-66l39 143h93zM479 187q0 -45 -15 -82.5t-43 -64.5t-68.5 -42t-92.5 -15q-51 0 -92 15t-69 42t-43 64.5t-15 82.5v292q0 44 15 81.5t43 64.5t69 42t92 15q52 0 92.5 -15t68.5 -42t43 -64.5t15 -81.5v-292zM335 487q0 34 -19.5 54.5
t-55.5 20.5q-35 0 -54.5 -20.5t-19.5 -54.5v-308q0 -34 19.5 -54.5t54.5 -20.5q36 0 55.5 20.5t19.5 54.5v308z" />
    <glyph glyph-name="Omacron" unicode="&#x14c;" horiz-adv-x="520" 
d="M128 743v70h266v-70h-266zM479 187q0 -45 -15 -82.5t-43 -64.5t-68.5 -42t-92.5 -15q-51 0 -92 15t-69 42t-43 64.5t-15 82.5v292q0 44 15 81.5t43 64.5t69 42t92 15q52 0 92.5 -15t68.5 -42t43 -64.5t15 -81.5v-292zM335 487q0 34 -19.5 54.5t-55.5 20.5
q-35 0 -54.5 -20.5t-19.5 -54.5v-308q0 -34 19.5 -54.5t54.5 -20.5q36 0 55.5 20.5t19.5 54.5v308z" />
    <glyph glyph-name="Oslashacute" unicode="&#x1fe;" horiz-adv-x="520" 
d="M454 583q25 -47 25 -104v-292q0 -45 -15 -82.5t-43 -64.5t-68.5 -42t-92.5 -15q-46 0 -83.5 12t-65.5 35l-39 -63l-54 38l48 78q-25 45 -25 104v292q0 44 15 81.5t43 64.5t69 42t92 15q47 0 84 -12t65 -34l39 63l54 -38zM332 512q-6 23 -24.5 36.5t-47.5 13.5
q-35 0 -54.5 -20.5t-19.5 -54.5v-211zM335 391l-146 -236q6 -23 24 -37t47 -14q36 0 55.5 20.5t19.5 54.5v212zM290 723h-68l41 143h116z" />
    <glyph glyph-name="Otilde" unicode="&#xd5;" horiz-adv-x="520" 
d="M479 187q0 -45 -15 -82.5t-43 -64.5t-68.5 -42t-92.5 -15q-51 0 -92 15t-69 42t-43 64.5t-15 82.5v292q0 44 15 81.5t43 64.5t69 42t92 15q52 0 92.5 -15t68.5 -42t43 -64.5t15 -81.5v-292zM335 487q0 34 -19.5 54.5t-55.5 20.5q-35 0 -54.5 -20.5t-19.5 -54.5v-308
q0 -34 19.5 -54.5t54.5 -20.5q36 0 55.5 20.5t19.5 54.5v308zM403 802q0 -38 -20 -61.5t-64 -23.5q-20 0 -38.5 8t-35 17.5t-30.5 17.5t-25 8q-23 0 -23 -25v-24h-46q-15 19 -15 44q0 38 20 61.5t63 23.5q21 0 39.5 -8t35 -17t30.5 -17t25 -8q23 0 23 25v24h46
q7 -10 11 -20.5t4 -24.5z" />
    <glyph glyph-name="Racute" unicode="&#x154;" horiz-adv-x="506" 
d="M276 716h-68l41 143h116zM407 -4q-44 0 -62 27.5t-18 74.5v109q0 26 -14 45.5t-45 19.5h-77v-272h-143v666h240q81 0 127 -43t46 -115v-72q0 -41 -20.5 -70t-65.5 -41q45 -11 67 -43t22 -67v-109q0 -23 7 -39.5t21 -28.5v-42h-85zM323 500q0 25 -11.5 39.5t-39.5 14.5
h-81v-183h75q57 0 57 59v70z" />
    <glyph glyph-name="Rcaron" unicode="&#x158;" horiz-adv-x="506" 
d="M386 818q-65 0 -93 -97h-98q-28 97 -92 97v31q11 4 24.5 5.5t24.5 1.5q35 0 60 -22t35 -60q10 38 35 60t60 22q22 0 44 -7v-31v0zM407 -4q-44 0 -62 27.5t-18 74.5v109q0 26 -14 45.5t-45 19.5h-77v-272h-143v666h240q81 0 127 -43t46 -115v-72q0 -41 -20.5 -70
t-65.5 -41q45 -11 67 -43t22 -67v-109q0 -23 7 -39.5t21 -28.5v-42h-85zM323 500q0 25 -11.5 39.5t-39.5 14.5h-81v-183h75q57 0 57 59v70z" />
    <glyph glyph-name="uni0156" unicode="&#x156;" horiz-adv-x="506" 
d="M303 -137q0 -42 -23.5 -67.5t-73.5 -25.5v33q22 0 36 13.5t13 37.5h-47v96h95v-87v0zM407 -4q-44 0 -62 27.5t-18 74.5v109q0 26 -14 45.5t-45 19.5h-77v-272h-143v666h240q81 0 127 -43t46 -115v-72q0 -41 -20.5 -70t-65.5 -41q45 -11 67 -43t22 -67v-109q0 -23 7 -39.5
t21 -28.5v-42h-85zM323 500q0 25 -11.5 39.5t-39.5 14.5h-81v-183h75q57 0 57 59v70z" />
    <glyph glyph-name="uniE005" unicode="&#xe005;" horiz-adv-x="495" 
d="M270 716h-68l41 143h116zM232 260h-41v-260h-143v666h243q85 0 128.5 -43.5t43.5 -118.5v-80q0 -56 -23.5 -93t-71.5 -54l107 -277h-148zM269 363q57 0 57 58v79q0 25 -11.5 39.5t-39.5 14.5h-84v-191h78z" />
    <glyph glyph-name="uniE00E" unicode="&#xe00e;" horiz-adv-x="495" 
d="M388 813q-65 0 -93 -97h-98q-28 97 -92 97v31q11 4 24.5 5.5t24.5 1.5q35 0 60 -22t35 -60q10 38 35 60t60 22q22 0 44 -7v-31v0zM232 260h-41v-260h-143v666h243q85 0 128.5 -43.5t43.5 -118.5v-80q0 -56 -23.5 -93t-71.5 -54l107 -277h-148zM269 363q57 0 57 58v79
q0 25 -11.5 39.5t-39.5 14.5h-84v-191h78z" />
    <glyph glyph-name="uniE009" unicode="&#xe009;" horiz-adv-x="495" 
d="M294 -137q0 -42 -23.5 -67.5t-73.5 -25.5v33q22 0 36 13.5t13 37.5h-47v96h95v-87v0zM232 260h-41v-260h-143v666h243q85 0 128.5 -43.5t43.5 -118.5v-80q0 -56 -23.5 -93t-71.5 -54l107 -277h-148zM269 363q57 0 57 58v79q0 25 -11.5 39.5t-39.5 14.5h-84v-191h78z" />
    <glyph glyph-name="Sacute" unicode="&#x15a;" horiz-adv-x="481" 
d="M275 723h-68l41 143h116zM454 185q0 -41 -14.5 -77.5t-42 -64t-67 -44t-89.5 -16.5q-49 0 -88.5 13.5t-67.5 38t-43 59.5t-15 78v34h131v-22q0 -86 80 -86q38 0 57 20t19 55q0 36 -28.5 61.5t-86.5 55.5q-30 16 -59.5 34.5t-53 42t-38 53.5t-14.5 68t13.5 73t40 62
t65.5 43t90 16q46 0 83.5 -14.5t64 -40t41 -59.5t14.5 -74v-27h-129v21q0 34 -18.5 57t-56.5 23q-32 0 -50.5 -18t-18.5 -48q0 -35 29.5 -59.5t93.5 -57.5q35 -19 64 -39t50 -43.5t32.5 -52.5t11.5 -65z" />
    <glyph glyph-name="Scaron" unicode="&#x160;" horiz-adv-x="481" 
d="M454 185q0 -41 -14.5 -77.5t-42 -64t-67 -44t-89.5 -16.5q-49 0 -88.5 13.5t-67.5 38t-43 59.5t-15 78v34h131v-22q0 -86 80 -86q38 0 57 20t19 55q0 36 -28.5 61.5t-86.5 55.5q-30 16 -59.5 34.5t-53 42t-38 53.5t-14.5 68t13.5 73t40 62t65.5 43t90 16q46 0 83.5 -14.5
t64 -40t41 -59.5t14.5 -74v-27h-129v21q0 34 -18.5 57t-56.5 23q-32 0 -50.5 -18t-18.5 -48q0 -35 29.5 -59.5t93.5 -57.5q35 -19 64 -39t50 -43.5t32.5 -52.5t11.5 -65zM381 808q-65 0 -93 -97h-98q-28 97 -92 97v31q11 4 24.5 5.5t24.5 1.5q35 0 60 -22t35 -60
q10 38 35 60t60 22q22 0 44 -7v-31v0z" />
    <glyph glyph-name="uni0218" unicode="&#x218;" horiz-adv-x="481" 
d="M293 -138q0 -42 -23.5 -67.5t-73.5 -25.5v33q22 0 36 13.5t13 37.5h-47v96h95v-87v0zM454 185q0 -41 -14.5 -77.5t-42 -64t-67 -44t-89.5 -16.5q-49 0 -88.5 13.5t-67.5 38t-43 59.5t-15 78v34h131v-22q0 -86 80 -86q38 0 57 20t19 55q0 36 -28.5 61.5t-86.5 55.5
q-30 16 -59.5 34.5t-53 42t-38 53.5t-14.5 68t13.5 73t40 62t65.5 43t90 16q46 0 83.5 -14.5t64 -40t41 -59.5t14.5 -74v-27h-129v21q0 34 -18.5 57t-56.5 23q-32 0 -50.5 -18t-18.5 -48q0 -35 29.5 -59.5t93.5 -57.5q35 -19 64 -39t50 -43.5t32.5 -52.5t11.5 -65z" />
    <glyph glyph-name="Tcaron" unicode="&#x164;" horiz-adv-x="453" 
d="M368 818q-65 0 -93 -97h-98q-28 97 -92 97v31q11 4 24.5 5.5t24.5 1.5q35 0 60 -22t35 -60q10 38 35 60t60 22q22 0 44 -7v-31v0zM298 544v-544h-143v544h-144v122h430v-122h-143z" />
    <glyph glyph-name="uni0162" unicode="&#x162;" horiz-adv-x="453" 
d="M275 -137q0 -42 -23.5 -67.5t-73.5 -25.5v33q22 0 36 13.5t13 37.5h-47v96h95v-87v0zM298 544v-544h-143v544h-144v122h430v-122h-143z" />
    <glyph glyph-name="Uacute" unicode="&#xda;" horiz-adv-x="527" 
d="M479 170q0 -42 -15.5 -76t-44 -59t-67.5 -38.5t-87 -13.5q-47 0 -87 13.5t-69 38.5t-45.5 59t-16.5 76v496h145v-494q0 -70 73 -70q36 0 55.5 18t19.5 52v494h139v-496v0zM297 706h-68l41 143h116z" />
    <glyph glyph-name="Ubreve" unicode="&#x16c;" horiz-adv-x="527" 
d="M479 170q0 -42 -15.5 -76t-44 -59t-67.5 -38.5t-87 -13.5q-47 0 -87 13.5t-69 38.5t-45.5 59t-16.5 76v496h145v-494q0 -70 73 -70q36 0 55.5 18t19.5 52v494h139v-496v0zM391 801q0 -38 -36 -63t-91 -25t-90.5 25t-35.5 63q0 14 3 24t8 20h55v-15q0 -20 14 -34t46 -14
q33 0 47 14t14 34v15h55q5 -10 8 -20t3 -24z" />
    <glyph glyph-name="Ucircumflex" unicode="&#xdb;" horiz-adv-x="527" 
d="M479 170q0 -42 -15.5 -76t-44 -59t-67.5 -38.5t-87 -13.5q-47 0 -87 13.5t-69 38.5t-45.5 59t-16.5 76v496h145v-494q0 -70 73 -70q36 0 55.5 18t19.5 52v494h139v-496v0zM412 713q-26 -8 -50 -8q-35 0 -59.5 22.5t-34.5 61.5q-10 -39 -35.5 -61.5t-60.5 -22.5
q-19 0 -43 8v31q64 0 92 97h98q28 -97 93 -97v-31v0z" />
    <glyph glyph-name="Udieresis" unicode="&#xdc;" horiz-adv-x="527" 
d="M479 170q0 -42 -15.5 -76t-44 -59t-67.5 -38.5t-87 -13.5q-47 0 -87 13.5t-69 38.5t-45.5 59t-16.5 76v496h145v-494q0 -70 73 -70q36 0 55.5 18t19.5 52v494h139v-496v0zM296 715v102h95v-102h-95zM144 715v102h95v-102h-95z" />
    <glyph glyph-name="Ugrave" unicode="&#xd9;" horiz-adv-x="527" 
d="M479 170q0 -42 -15.5 -76t-44 -59t-67.5 -38.5t-87 -13.5q-47 0 -87 13.5t-69 38.5t-45.5 59t-16.5 76v496h145v-494q0 -70 73 -70q36 0 55.5 18t19.5 52v494h139v-496v0zM236 706l-89 143h116l40 -143h-67z" />
    <glyph glyph-name="Uhungarumlaut" unicode="&#x170;" horiz-adv-x="527" 
d="M479 170q0 -42 -15.5 -76t-44 -59t-67.5 -38.5t-87 -13.5q-47 0 -87 13.5t-69 38.5t-45.5 59t-16.5 76v496h145v-494q0 -70 73 -70q36 0 55.5 18t19.5 52v494h139v-496v0zM354 713h-68l59 143h96zM227 713h-66l39 143h93z" />
    <glyph glyph-name="Umacron" unicode="&#x16a;" horiz-adv-x="527" 
d="M479 170q0 -42 -15.5 -76t-44 -59t-67.5 -38.5t-87 -13.5q-47 0 -87 13.5t-69 38.5t-45.5 59t-16.5 76v496h145v-494q0 -70 73 -70q36 0 55.5 18t19.5 52v494h139v-496v0zM131 733v70h266v-70h-266z" />
    <glyph glyph-name="Uring" unicode="&#x16e;" horiz-adv-x="527" 
d="M358 799q0 -18 -7 -34.5t-19.5 -29t-29.5 -20t-38 -7.5q-42 0 -68 27.5t-26 63.5t26 63.5t68 27.5q21 0 38 -7.5t29.5 -20t19.5 -29t7 -34.5zM310 799q0 23 -12 36.5t-34 13.5t-34 -13.5t-12 -36.5q0 -22 12 -36t34 -14t34 14t12 36zM479 170q0 -42 -15.5 -76t-44 -59
t-67.5 -38.5t-87 -13.5q-47 0 -87 13.5t-69 38.5t-45.5 59t-16.5 76v496h145v-494q0 -70 73 -70q36 0 55.5 18t19.5 52v494h139v-496v0z" />
    <glyph glyph-name="Wacute" unicode="&#x1e82;" horiz-adv-x="704" 
d="M387 716h-68l41 143h116zM561 0h-128l-79 389l-82 -389h-127l-139 666h142l72 -436l84 436h111l80 -436l74 436h132z" />
    <glyph glyph-name="Wcircumflex" unicode="&#x174;" horiz-adv-x="704" 
d="M499 723q-26 -8 -50 -8q-35 0 -59.5 22.5t-34.5 61.5q-10 -39 -35.5 -61.5t-60.5 -22.5q-19 0 -43 8v31q64 0 92 97h98q28 -97 93 -97v-31v0zM561 0h-128l-79 389l-82 -389h-127l-139 666h142l72 -436l84 436h111l80 -436l74 436h132z" />
    <glyph glyph-name="Wdieresis" unicode="&#x1e84;" horiz-adv-x="704" 
d="M384 725v102h95v-102h-95zM232 725v102h95v-102h-95zM561 0h-128l-79 389l-82 -389h-127l-139 666h142l72 -436l84 436h111l80 -436l74 436h132z" />
    <glyph glyph-name="Wgrave" unicode="&#x1e80;" horiz-adv-x="704" 
d="M561 0h-128l-79 389l-82 -389h-127l-139 666h142l72 -436l84 436h111l80 -436l74 436h132zM329 716l-89 143h116l40 -143h-67z" />
    <glyph glyph-name="Yacute" unicode="&#xdd;" horiz-adv-x="483" 
d="M313 276v-276h-143v276l-172 390h150l101 -263l96 263h143zM278 706h-68l41 143h116z" />
    <glyph glyph-name="Ycircumflex" unicode="&#x176;" horiz-adv-x="483" 
d="M313 276v-276h-143v276l-172 390h150l101 -263l96 263h143zM386 720q-26 -8 -50 -8q-35 0 -59.5 22.5t-34.5 61.5q-10 -39 -35.5 -61.5t-60.5 -22.5q-19 0 -43 8v31q64 0 92 97h98q28 -97 93 -97v-31v0z" />
    <glyph glyph-name="Ydieresis" unicode="&#x178;" horiz-adv-x="483" 
d="M313 276v-276h-143v276l-172 390h150l101 -263l96 263h143zM273 715v102h95v-102h-95zM121 715v102h95v-102h-95z" />
    <glyph glyph-name="Ygrave" unicode="&#x1ef2;" horiz-adv-x="483" 
d="M313 276v-276h-143v276l-172 390h150l101 -263l96 263h143zM216 713l-89 143h116l40 -143h-67z" />
    <glyph glyph-name="Zacute" unicode="&#x179;" horiz-adv-x="465" 
d="M266 716h-68l41 143h116zM197 124h238v-124h-416v40l251 507h-236v119h410v-40z" />
    <glyph glyph-name="Zcaron" unicode="&#x17d;" horiz-adv-x="465" 
d="M197 124h238v-124h-416v40l251 507h-236v119h410v-40zM378 808q-65 0 -93 -97h-98q-28 97 -92 97v31q11 4 24.5 5.5t24.5 1.5q35 0 60 -22t35 -60q10 38 35 60t60 22q22 0 44 -7v-31v0z" />
    <glyph glyph-name="Zdotaccent" unicode="&#x17b;" horiz-adv-x="465" 
d="M197 124h238v-124h-416v40l251 507h-236v119h410v-40zM188 725v102h95v-102h-95z" />
    <glyph glyph-name="AEacute" unicode="&#x1fc;" horiz-adv-x="720" 
d="M435 716h-68l41 143h116zM321 0v132h-129l-50 -132h-140l256 666h434v-120h-228v-145h157v-109h-157v-167h228v-125h-371zM321 493l-92 -254h92v254z" />
    <glyph glyph-name="ae" unicode="&#xe6;" horiz-adv-x="631" 
d="M598 158q0 -38 -11 -68.5t-31 -52t-48 -33.5t-62 -12q-42 0 -80 15.5t-59 49.5q-23 -31 -60.5 -48t-86.5 -17q-63 0 -99 35.5t-36 93.5v6q0 39 16.5 65.5t46.5 44.5t71 29.5t91 19.5v58q0 22 -11.5 35.5t-37.5 13.5q-49 0 -49 -48v-25h-106v23q0 31 9.5 57.5t28 46t46 31
t64.5 11.5q44 0 73.5 -17t47.5 -46q20 29 54.5 46t76.5 17q72 0 112 -46.5t40 -121.5v-89h-220v-89q0 -26 13.5 -41.5t41.5 -15.5t42 15.5t14 41.5v32h109v-17zM486 338q0 26 -14.5 41.5t-39.5 15.5q-26 0 -40 -15.5t-14 -41.5v-58h108v58zM250 222q-57 -8 -83.5 -26
t-26.5 -54v-15q0 -21 12 -34.5t35 -13.5q26 0 44.5 15t18.5 39v89z" />
    <glyph glyph-name="oe" unicode="&#x153;" horiz-adv-x="645" 
d="M612 158q0 -75 -40.5 -120.5t-111.5 -45.5q-43 0 -78 17t-55 47q-19 -30 -54.5 -47t-78.5 -17q-70 0 -113 44.5t-43 125.5v155q0 80 43 126t113 46q43 0 78.5 -17t55.5 -48q19 30 54.5 47.5t77.5 17.5q71 0 111.5 -46.5t40.5 -121.5v-89h-220v-89q0 -26 13.5 -41.5
t41.5 -15.5t41.5 15.5t13.5 41.5v32h110v-17zM500 338q0 26 -14.5 41.5t-39.5 15.5q-26 0 -40 -15.5t-14 -41.5v-58h108v58zM263 337q0 26 -14.5 41.5t-39.5 15.5t-39.5 -15.5t-14.5 -41.5v-194q0 -26 14.5 -41.5t39.5 -15.5t39.5 15.5t14.5 41.5v194z" />
    <glyph glyph-name="uni0259" unicode="&#x259;" horiz-adv-x="409" 
d="M33 322q0 75 44.5 120.5t122.5 45.5q38 0 69.5 -12t54 -34t35 -53t12.5 -68v-162q0 -38 -12.5 -68.5t-35 -53t-54 -34.5t-69.5 -12q-39 0 -69.5 12t-52.5 34.5t-33.5 53t-11.5 68.5v89h220v92q0 26 -13.5 41.5t-40.5 15.5q-29 0 -42.5 -15.5t-13.5 -41.5v-35h-110v17z
M146 139q0 -26 14 -41.5t40 -15.5q25 0 39 15.5t14 41.5v61h-107v-61z" />
    <glyph glyph-name="dotlessi" unicode="&#x131;" 
d="M45 0v480h122v-480h-122z" />
    <glyph glyph-name="germandbls" unicode="&#xdf;" horiz-adv-x="439" 
d="M400 134q0 -69 -38.5 -105.5t-97.5 -36.5q-15 0 -28.5 3.5t-23.5 8.5v59q38 0 53 16.5t15 48.5v128q0 28 -14 42.5t-51 14.5v82q38 0 54.5 16.5t16.5 44.5v58q0 31 -14.5 48.5t-43.5 17.5t-44 -19t-15 -51v-510h-121v496q0 81 45.5 128.5t130.5 47.5q87 0 129 -46.5
t42 -118.5v-32q0 -40 -16.5 -73t-48.5 -47q41 -17 55.5 -45.5t14.5 -75.5v-100v0z" />
    <glyph glyph-name="thorn" unicode="&#xfe;" horiz-adv-x="431" 
d="M392 131q0 -29 -9 -54.5t-25 -44.5t-37.5 -30t-45.5 -11q-37 0 -61 12.5t-48 38.5v-194h-121v818h121v-230q24 27 48 39.5t61 12.5q24 0 45.5 -11t37.5 -30t25 -44.5t9 -54.5v-217zM275 327q0 33 -14.5 49t-39.5 16t-40 -16.5t-15 -45.5v-181q0 -29 15 -46t40 -17
t39.5 16.5t14.5 49.5v175z" />
    <glyph glyph-name="eth" unicode="&#xf0;" horiz-adv-x="423" 
d="M355 651l19 -48l-48 -21q28 -40 43 -88t15 -106v-227q0 -40 -13.5 -71.5t-37 -53t-55.5 -33t-69 -11.5t-68 11.5t-54 33t-36 53t-13 71.5v178q0 29 9.5 55t26 45t39 30t48.5 11q34 0 57 -12t46 -38q-4 60 -37 110l-70 -30l-19 49l57 24q-20 23 -44.5 42.5t-52.5 37.5v3
h144q27 -19 49 -42zM156 139q0 -24 15 -40t38 -16q24 0 39.5 16t15.5 40v190q0 29 -14.5 46t-39.5 17t-39.5 -15.5t-14.5 -48.5v-189z" />
    <glyph glyph-name="dcroat" unicode="&#x111;" horiz-adv-x="431" 
d="M155 595h110v71h121v-71h38v-59h-38v-536h-91l-6 63q-17 -38 -49 -54.5t-69 -16.5q-64 0 -98.5 42t-34.5 108v195q0 32 9.5 59t26 47t38.5 31.5t48 11.5q37 0 60 -13t45 -39v102h-110v59zM265 329q0 29 -15 46t-40 17t-39.5 -16.5t-14.5 -49.5v-177q0 -33 14.5 -49.5
t39.5 -16.5q22 0 38.5 16.5t16.5 46.5v183z" />
    <glyph glyph-name="hbar" unicode="&#x127;" horiz-adv-x="439" 
d="M7 594h38v72h122v-72h110v-59h-110v-134q17 41 48.5 62.5t69.5 21.5q53 0 82 -36.5t29 -96.5v-352h-121v338q0 25 -13.5 40t-34.5 15q-14 0 -25 -8.5t-19 -20.5t-12 -26t-4 -24v-314h-122v535h-38v59z" />
    <glyph glyph-name="lslash" unicode="&#x142;" horiz-adv-x="287" 
d="M204 346v-346h-122v248l-63 -50l-37 51l100 79v338h122v-240l64 50l36 -51z" />
    <glyph glyph-name="oslash" unicode="&#xf8;" horiz-adv-x="419" 
d="M357 412q23 -40 23 -95v-155q0 -81 -47 -125.5t-123 -44.5q-70 0 -115 36q-3 -4 -7 -9q-3 -5 -6.5 -10.5t-7.5 -10.5l-20 -30l-39 31l46 68q-23 40 -23 95v155q0 80 47 126t125 46q69 0 113 -38l42 61l40 -30zM260 359q-5 17 -17.5 27.5t-32.5 10.5q-26 0 -40 -15.5
t-14 -41.5v-134zM263 274l-105 -153q5 -17 18.5 -27.5t33.5 -10.5q24 0 38.5 15.5t14.5 41.5v134z" />
    <glyph glyph-name="ccedilla" unicode="&#xe7;" horiz-adv-x="399" 
d="M163 -4q-57 13 -91 55.5t-34 110.5v155q0 80 47 126t124 46t119 -45t42 -125v-17h-102v35q0 27 -14 43.5t-42 16.5t-42.5 -16.5t-14.5 -46.5v-188q0 -30 14.5 -46.5t42.5 -16.5t42 16.5t14 43.5v36h102v-18q0 -78 -40 -122.5t-115 -46.5l-51 -66q8 5 19.5 6.5t21.5 1.5
q45 0 69.5 -27t24.5 -69q0 -40 -29.5 -67t-74.5 -27q-15 0 -26.5 3.5t-16.5 7.5v37h20q45 0 45 36v31q0 38 -45 38q-23 0 -47 -25l-36 26l74 98v0z" />
    <glyph glyph-name="scedilla" unicode="&#x15f;" horiz-adv-x="388" 
d="M291 -162q0 -40 -29 -67.5t-74 -27.5q-15 0 -26.5 4t-16.5 7v37h20q44 0 44 37v31q0 38 -44 38q-23 0 -48 -25l-36 25l73 99q-62 11 -93.5 50.5t-31.5 95.5v17h102v-17q0 -33 17 -47.5t46 -14.5q57 0 57 48q0 31 -28.5 48.5t-78.5 38.5q-51 20 -79 50t-28 83
q0 66 45 103.5t116 37.5q77 0 118 -40.5t41 -104.5v-8h-100v12q0 23 -14 36.5t-43 13.5q-51 0 -51 -42q0 -21 18.5 -35t62.5 -31q28 -11 52 -24.5t42 -31.5t28 -42t10 -57q0 -26 -9 -50.5t-28 -45t-48.5 -33.5t-69.5 -14l-50 -67q8 5 19.5 6.5t21.5 1.5q45 0 69 -26.5
t24 -68.5z" />
    <glyph glyph-name="aogonek" unicode="&#x105;" horiz-adv-x="417" 
d="M405 -185q-9 -6 -23.5 -11t-33.5 -5q-43 0 -68 24.5t-25 63.5q0 32 22.5 62t60.5 47q-23 5 -39 20.5t-22 44.5q-21 -35 -53.5 -52t-74.5 -17q-54 0 -89.5 34t-35.5 95v6q0 39 16.5 66t46.5 45t71.5 29t91.5 19v65q0 21 -12 33.5t-36 12.5q-26 0 -36.5 -12.5t-10.5 -36.5
v-28h-110v23q0 31 9.5 57.5t29 46t50 31t72.5 11.5q43 0 73.5 -12t50 -34t29 -51.5t9.5 -63.5v-227q0 -26 28 -26v-79q-30 -15 -48 -38t-18 -48q0 -11 3.5 -22.5t12 -19.5t23 -11.5t36.5 0.5v-42zM250 222q-58 -8 -84.5 -26t-26.5 -54v-18q0 -21 12 -34.5t35 -13.5
q26 0 45 15t19 39v92z" />
    <glyph glyph-name="eogonek" unicode="&#x119;" horiz-adv-x="409" 
d="M292 -201q-48 0 -73.5 26.5t-25.5 65.5q0 28 15.5 55.5t42.5 49.5q-10 -2 -20 -3t-21 -1q-39 0 -70.5 12t-54 34t-34.5 53t-12 69v161q0 37 12 68t34.5 53.5t54 34.5t70.5 12q38 0 69 -12t52.5 -34.5t33 -53.5t11.5 -68v-89h-220v-91q0 -26 13.5 -42t41.5 -16t42 16
t14 42v34h109v-17q0 -66 -36 -110q-13 -17 -26 -32t-23 -30.5t-16 -32t-6 -34.5q0 -29 17.5 -49.5t64.5 -12.5v-42q-9 -6 -24 -11t-35 -5zM264 341q0 26 -14.5 41.5t-39.5 15.5q-26 0 -40 -15.5t-14 -41.5v-60h108v60z" />
    <glyph glyph-name="iogonek" unicode="&#x12f;" 
d="M181 -185q-11 -7 -24.5 -11.5t-33.5 -4.5q-47 0 -72 26t-25 62q0 29 17.5 59.5t49.5 53.5h-48v480h122v-480h-25q-17 -19 -28 -42t-11 -46q0 -12 3.5 -24t12.5 -20.5t24 -12t38 0.5v-41zM46 547v108h119v-108h-119z" />
    <glyph glyph-name="uogonek" unicode="&#x173;" horiz-adv-x="442" 
d="M403 -185q-9 -6 -23 -11t-33 -5q-43 0 -68 24.5t-25 63.5q0 34 24 65t66 48h-49l-7 86q-17 -47 -50 -70.5t-73 -23.5q-60 0 -90 36.5t-30 96.5v355h122v-341q0 -26 13.5 -40.5t34.5 -14.5q14 0 25.5 8.5t19.5 20.5t12 25.5t4 24.5v317h121v-480q-32 -18 -50 -41.5
t-18 -48.5q0 -11 3.5 -22.5t12 -19.5t23 -11.5t35.5 0.5v-42z" />
    <glyph glyph-name="ldot" unicode="&#x140;" horiz-adv-x="312" 
d="M207 258v134h108v-134h-108zM45 0v666h122v-666h-122z" />
    <glyph glyph-name="uniE006" unicode="&#xe006;" 
d="M46 547v108h119v-108h-119zM45 0v480h122v-480h-122z" />
    <glyph glyph-name="aacute" unicode="&#xe1;" horiz-adv-x="417" 
d="M367 -8q-35 0 -59 16t-32 53q-42 -69 -128 -69q-54 0 -89 33.5t-35 95.5v6q0 39 16.5 65.5t46.5 44.5t71 29.5t91 19.5v65q0 21 -12 33t-36 12q-26 0 -36 -12t-10 -36v-28h-111v23q0 31 9.5 57.5t29 46t50.5 31t73 11.5q43 0 73.5 -12t50 -34t28.5 -51.5t9 -63.5v-227
q0 -26 28 -26v-83h-28zM249 222q-57 -8 -83.5 -26t-26.5 -54v-18q0 -21 12 -34.5t35 -13.5q26 0 44.5 15t18.5 39v92zM237 546h-68l41 143h116z" />
    <glyph glyph-name="abreve" unicode="&#x103;" horiz-adv-x="417" 
d="M367 -8q-35 0 -59 16t-32 53q-42 -69 -128 -69q-54 0 -89 33.5t-35 95.5v6q0 39 16.5 65.5t46.5 44.5t71 29.5t91 19.5v65q0 21 -12 33t-36 12q-26 0 -36 -12t-10 -36v-28h-111v23q0 31 9.5 57.5t29 46t50.5 31t73 11.5q43 0 73.5 -12t50 -34t28.5 -51.5t9 -63.5v-227
q0 -26 28 -26v-83h-28zM249 222q-57 -8 -83.5 -26t-26.5 -54v-18q0 -21 12 -34.5t35 -13.5q26 0 44.5 15t18.5 39v92zM336 634q0 -38 -36 -63t-91 -25t-90.5 25t-35.5 63q0 14 3 24t8 20h55v-15q0 -20 14 -34t46 -14q33 0 47 14t14 34v15h55q5 -10 8 -20t3 -24z" />
    <glyph glyph-name="acircumflex" unicode="&#xe2;" horiz-adv-x="417" 
d="M367 -8q-35 0 -59 16t-32 53q-42 -69 -128 -69q-54 0 -89 33.5t-35 95.5v6q0 39 16.5 65.5t46.5 44.5t71 29.5t91 19.5v65q0 21 -12 33t-36 12q-26 0 -36 -12t-10 -36v-28h-111v23q0 31 9.5 57.5t29 46t50.5 31t73 11.5q43 0 73.5 -12t50 -34t28.5 -51.5t9 -63.5v-227
q0 -26 28 -26v-83h-28zM249 222q-57 -8 -83.5 -26t-26.5 -54v-18q0 -21 12 -34.5t35 -13.5q26 0 44.5 15t18.5 39v92zM351 553q-26 -8 -50 -8q-35 0 -59.5 22.5t-34.5 61.5q-10 -39 -35.5 -61.5t-60.5 -22.5q-19 0 -43 8v31q64 0 92 97h98q28 -97 93 -97v-31v0z" />
    <glyph glyph-name="adieresis" unicode="&#xe4;" horiz-adv-x="417" 
d="M367 -8q-35 0 -59 16t-32 53q-42 -69 -128 -69q-54 0 -89 33.5t-35 95.5v6q0 39 16.5 65.5t46.5 44.5t71 29.5t91 19.5v65q0 21 -12 33t-36 12q-26 0 -36 -12t-10 -36v-28h-111v23q0 31 9.5 57.5t29 46t50.5 31t73 11.5q43 0 73.5 -12t50 -34t28.5 -51.5t9 -63.5v-227
q0 -26 28 -26v-83h-28zM249 222q-57 -8 -83.5 -26t-26.5 -54v-18q0 -21 12 -34.5t35 -13.5q26 0 44.5 15t18.5 39v92zM231 555v102h95v-102h-95zM79 555v102h95v-102h-95z" />
    <glyph glyph-name="agrave" unicode="&#xe0;" horiz-adv-x="417" 
d="M367 -8q-35 0 -59 16t-32 53q-42 -69 -128 -69q-54 0 -89 33.5t-35 95.5v6q0 39 16.5 65.5t46.5 44.5t71 29.5t91 19.5v65q0 21 -12 33t-36 12q-26 0 -36 -12t-10 -36v-28h-111v23q0 31 9.5 57.5t29 46t50.5 31t73 11.5q43 0 73.5 -12t50 -34t28.5 -51.5t9 -63.5v-227
q0 -26 28 -26v-83h-28zM249 222q-57 -8 -83.5 -26t-26.5 -54v-18q0 -21 12 -34.5t35 -13.5q26 0 44.5 15t18.5 39v92zM174 546l-89 143h116l40 -143h-67z" />
    <glyph glyph-name="amacron" unicode="&#x101;" horiz-adv-x="417" 
d="M367 -8q-35 0 -59 16t-32 53q-42 -69 -128 -69q-54 0 -89 33.5t-35 95.5v6q0 39 16.5 65.5t46.5 44.5t71 29.5t91 19.5v65q0 21 -12 33t-36 12q-26 0 -36 -12t-10 -36v-28h-111v23q0 31 9.5 57.5t29 46t50.5 31t73 11.5q43 0 73.5 -12t50 -34t28.5 -51.5t9 -63.5v-227
q0 -26 28 -26v-83h-28zM249 222q-57 -8 -83.5 -26t-26.5 -54v-18q0 -21 12 -34.5t35 -13.5q26 0 44.5 15t18.5 39v92zM75 566v70h266v-70h-266z" />
    <glyph glyph-name="aring" unicode="&#xe5;" horiz-adv-x="417" 
d="M367 -8q-35 0 -59 16t-32 53q-42 -69 -128 -69q-54 0 -89 33.5t-35 95.5v6q0 39 16.5 65.5t46.5 44.5t71 29.5t91 19.5v65q0 21 -12 33t-36 12q-26 0 -36 -12t-10 -36v-28h-111v23q0 31 9.5 57.5t29 46t50.5 31t73 11.5q43 0 73.5 -12t50 -34t28.5 -51.5t9 -63.5v-227
q0 -26 28 -26v-83h-28zM249 222q-57 -8 -83.5 -26t-26.5 -54v-18q0 -21 12 -34.5t35 -13.5q26 0 44.5 15t18.5 39v92zM298 632q0 -18 -7 -34.5t-19.5 -29t-29.5 -20t-38 -7.5q-42 0 -68 27.5t-26 63.5t26 63.5t68 27.5q21 0 38 -7.5t29.5 -20t19.5 -29t7 -34.5zM250 632
q0 23 -12 36.5t-34 13.5t-34 -13.5t-12 -36.5q0 -22 12 -36t34 -14t34 14t12 36z" />
    <glyph glyph-name="aringacute" unicode="&#x1fb;" horiz-adv-x="417" 
d="M367 -8q-35 0 -59 16t-32 53q-42 -69 -128 -69q-54 0 -89 33.5t-35 95.5v6q0 39 16.5 65.5t46.5 44.5t71 29.5t91 19.5v65q0 21 -12 33t-36 12q-26 0 -36 -12t-10 -36v-28h-111v23q0 31 9.5 57.5t29 46t50.5 31t73 11.5q43 0 73.5 -12t50 -34t28.5 -51.5t9 -63.5v-227
q0 -26 28 -26v-83h-28zM249 222q-57 -8 -83.5 -26t-26.5 -54v-18q0 -21 12 -34.5t35 -13.5q26 0 44.5 15t18.5 39v92zM243 722h-68l41 143h116zM304 606q0 -18 -7 -34.5t-19.5 -29t-29.5 -20t-38 -7.5q-42 0 -68 27.5t-26 63.5t26 63.5t68 27.5q21 0 38 -7.5t29.5 -20
t19.5 -29t7 -34.5zM256 606q0 23 -12 36.5t-34 13.5t-34 -13.5t-12 -36.5q0 -22 12 -36t34 -14t34 14t12 36z" />
    <glyph glyph-name="atilde" unicode="&#xe3;" horiz-adv-x="417" 
d="M367 -8q-35 0 -59 16t-32 53q-42 -69 -128 -69q-54 0 -89 33.5t-35 95.5v6q0 39 16.5 65.5t46.5 44.5t71 29.5t91 19.5v65q0 21 -12 33t-36 12q-26 0 -36 -12t-10 -36v-28h-111v23q0 31 9.5 57.5t29 46t50.5 31t73 11.5q43 0 73.5 -12t50 -34t28.5 -51.5t9 -63.5v-227
q0 -26 28 -26v-83h-28zM249 222q-57 -8 -83.5 -26t-26.5 -54v-18q0 -21 12 -34.5t35 -13.5q26 0 44.5 15t18.5 39v92zM349 642q0 -38 -20 -61.5t-64 -23.5q-20 0 -38.5 8t-35 17.5t-30.5 17.5t-25 8q-23 0 -23 -25v-24h-46q-15 19 -15 44q0 38 20 61.5t63 23.5q21 0 39.5 -8
t35 -17t30.5 -17t25 -8q23 0 23 25v24h46q7 -10 11 -20.5t4 -24.5z" />
    <glyph glyph-name="cacute" unicode="&#x107;" horiz-adv-x="399" 
d="M240 546h-68l41 143h116zM370 161q0 -81 -42 -125t-119 -44t-124 44.5t-47 125.5v155q0 80 47 126t124 46t119 -45t42 -125v-17h-102v35q0 27 -14 43.5t-42 16.5t-42.5 -16.5t-14.5 -46.5v-188q0 -30 14.5 -46.5t42.5 -16.5t42 16.5t14 43.5v36h102v-18v0z" />
    <glyph glyph-name="ccaron" unicode="&#x10d;" horiz-adv-x="399" 
d="M351 648q-65 0 -93 -97h-98q-28 97 -92 97v31q11 4 24.5 5.5t24.5 1.5q35 0 60 -22t35 -60q10 38 35 60t60 22q22 0 44 -7v-31v0zM370 161q0 -81 -42 -125t-119 -44t-124 44.5t-47 125.5v155q0 80 47 126t124 46t119 -45t42 -125v-17h-102v35q0 27 -14 43.5t-42 16.5
t-42.5 -16.5t-14.5 -46.5v-188q0 -30 14.5 -46.5t42.5 -16.5t42 16.5t14 43.5v36h102v-18v0z" />
    <glyph glyph-name="cdotaccent" unicode="&#x10b;" horiz-adv-x="399" 
d="M370 161q0 -81 -42 -125t-119 -44t-124 44.5t-47 125.5v155q0 80 47 126t124 46t119 -45t42 -125v-17h-102v35q0 27 -14 43.5t-42 16.5t-42.5 -16.5t-14.5 -46.5v-188q0 -30 14.5 -46.5t42.5 -16.5t42 16.5t14 43.5v36h102v-18v0zM162 555v102h95v-102h-95z" />
    <glyph glyph-name="dcaron" unicode="&#x10f;" horiz-adv-x="431" 
d="M482 501h-54v165h96zM295 0l-6 63q-17 -38 -49 -54.5t-69 -16.5q-64 0 -98.5 42t-34.5 108v198q0 32 9.5 59t26 47t38.5 31.5t48 11.5q37 0 60 -13t45 -39v229h121v-666h-91zM265 332q0 29 -15 46t-40 17t-39.5 -16.5t-14.5 -49.5v-180q0 -33 14.5 -49.5t39.5 -16.5
q22 0 38.5 16.5t16.5 46.5v186z" />
    <glyph glyph-name="eacute" unicode="&#xe9;" horiz-adv-x="409" 
d="M376 158q0 -75 -44.5 -120.5t-122.5 -45.5q-38 0 -69.5 12t-54 34t-35 52.5t-12.5 68.5v162q0 37 12.5 68t35 53.5t54 34.5t69.5 12q39 0 69.5 -12t52.5 -34.5t33.5 -53.5t11.5 -68v-89h-220v-92q0 -26 13.5 -41.5t40.5 -15.5q29 0 42.5 15.5t13.5 41.5v35h110v-17z
M263 341q0 26 -14 41.5t-40 15.5q-25 0 -39 -15.5t-14 -41.5v-61h107v61zM244 546h-68l41 143h116z" />
    <glyph glyph-name="ebreve" unicode="&#x115;" horiz-adv-x="409" 
d="M376 158q0 -75 -44.5 -120.5t-122.5 -45.5q-38 0 -69.5 12t-54 34t-35 52.5t-12.5 68.5v162q0 37 12.5 68t35 53.5t54 34.5t69.5 12q39 0 69.5 -12t52.5 -34.5t33.5 -53.5t11.5 -68v-89h-220v-92q0 -26 13.5 -41.5t40.5 -15.5q29 0 42.5 15.5t13.5 41.5v35h110v-17z
M263 341q0 26 -14 41.5t-40 15.5q-25 0 -39 -15.5t-14 -41.5v-61h107v61zM336 634q0 -38 -36 -63t-91 -25t-90.5 25t-35.5 63q0 14 3 24t8 20h55v-15q0 -20 14 -34t46 -14q33 0 47 14t14 34v15h55q5 -10 8 -20t3 -24z" />
    <glyph glyph-name="ecaron" unicode="&#x11b;" horiz-adv-x="409" 
d="M350 648q-65 0 -93 -97h-98q-28 97 -92 97v31q11 4 24.5 5.5t24.5 1.5q35 0 60 -22t35 -60q10 38 35 60t60 22q22 0 44 -7v-31v0zM376 158q0 -75 -44.5 -120.5t-122.5 -45.5q-38 0 -69.5 12t-54 34t-35 52.5t-12.5 68.5v162q0 37 12.5 68t35 53.5t54 34.5t69.5 12
q39 0 69.5 -12t52.5 -34.5t33.5 -53.5t11.5 -68v-89h-220v-92q0 -26 13.5 -41.5t40.5 -15.5q29 0 42.5 15.5t13.5 41.5v35h110v-17zM263 341q0 26 -14 41.5t-40 15.5q-25 0 -39 -15.5t-14 -41.5v-61h107v61z" />
    <glyph glyph-name="ecircumflex" unicode="&#xea;" horiz-adv-x="409" 
d="M376 158q0 -75 -44.5 -120.5t-122.5 -45.5q-38 0 -69.5 12t-54 34t-35 52.5t-12.5 68.5v162q0 37 12.5 68t35 53.5t54 34.5t69.5 12q39 0 69.5 -12t52.5 -34.5t33.5 -53.5t11.5 -68v-89h-220v-92q0 -26 13.5 -41.5t40.5 -15.5q29 0 42.5 15.5t13.5 41.5v35h110v-17z
M263 341q0 26 -14 41.5t-40 15.5q-25 0 -39 -15.5t-14 -41.5v-61h107v61zM348 553q-26 -8 -50 -8q-35 0 -59.5 22.5t-34.5 61.5q-10 -39 -35.5 -61.5t-60.5 -22.5q-19 0 -43 8v31q64 0 92 97h98q28 -97 93 -97v-31v0z" />
    <glyph glyph-name="edieresis" unicode="&#xeb;" horiz-adv-x="409" 
d="M376 158q0 -75 -44.5 -120.5t-122.5 -45.5q-38 0 -69.5 12t-54 34t-35 52.5t-12.5 68.5v162q0 37 12.5 68t35 53.5t54 34.5t69.5 12q39 0 69.5 -12t52.5 -34.5t33.5 -53.5t11.5 -68v-89h-220v-92q0 -26 13.5 -41.5t40.5 -15.5q29 0 42.5 15.5t13.5 41.5v35h110v-17z
M263 341q0 26 -14 41.5t-40 15.5q-25 0 -39 -15.5t-14 -41.5v-61h107v61zM235 555v102h95v-102h-95zM83 555v102h95v-102h-95z" />
    <glyph glyph-name="edotaccent" unicode="&#x117;" horiz-adv-x="409" 
d="M376 158q0 -75 -44.5 -120.5t-122.5 -45.5q-38 0 -69.5 12t-54 34t-35 52.5t-12.5 68.5v162q0 37 12.5 68t35 53.5t54 34.5t69.5 12q39 0 69.5 -12t52.5 -34.5t33.5 -53.5t11.5 -68v-89h-220v-92q0 -26 13.5 -41.5t40.5 -15.5q29 0 42.5 15.5t13.5 41.5v35h110v-17z
M263 341q0 26 -14 41.5t-40 15.5q-25 0 -39 -15.5t-14 -41.5v-61h107v61zM161 555v102h95v-102h-95z" />
    <glyph glyph-name="egrave" unicode="&#xe8;" horiz-adv-x="409" 
d="M376 158q0 -75 -44.5 -120.5t-122.5 -45.5q-38 0 -69.5 12t-54 34t-35 52.5t-12.5 68.5v162q0 37 12.5 68t35 53.5t54 34.5t69.5 12q39 0 69.5 -12t52.5 -34.5t33.5 -53.5t11.5 -68v-89h-220v-92q0 -26 13.5 -41.5t40.5 -15.5q29 0 42.5 15.5t13.5 41.5v35h110v-17z
M263 341q0 26 -14 41.5t-40 15.5q-25 0 -39 -15.5t-14 -41.5v-61h107v61zM177 546l-89 143h116l40 -143h-67z" />
    <glyph glyph-name="emacron" unicode="&#x113;" horiz-adv-x="409" 
d="M376 158q0 -75 -44.5 -120.5t-122.5 -45.5q-38 0 -69.5 12t-54 34t-35 52.5t-12.5 68.5v162q0 37 12.5 68t35 53.5t54 34.5t69.5 12q39 0 69.5 -12t52.5 -34.5t33.5 -53.5t11.5 -68v-89h-220v-92q0 -26 13.5 -41.5t40.5 -15.5q29 0 42.5 15.5t13.5 41.5v35h110v-17z
M263 341q0 26 -14 41.5t-40 15.5q-25 0 -39 -15.5t-14 -41.5v-61h107v61zM76 566v70h266v-70h-266z" />
    <glyph glyph-name="gbreve" unicode="&#x11f;" horiz-adv-x="421" 
d="M426 492q0 -32 -17 -48.5t-39 -16.5q-9 0 -18 1.5t-20 7.5q23 -20 35 -43.5t12 -52.5v-9q0 -32 -12 -59t-33.5 -46.5t-53 -30t-70.5 -10.5q-8 0 -20.5 1t-19.5 3q-20 0 -30.5 -10.5t-10.5 -22.5q0 -16 20.5 -24t79.5 -8q94 0 136 -35t42 -92v-8q0 -32 -12.5 -59
t-37 -47.5t-60 -32t-80.5 -11.5q-41 0 -76.5 9t-61 25t-40 38t-14.5 48v9q0 27 18.5 50t54.5 34q-33 11 -49 31.5t-16 44.5q0 13 6 26.5t17 24.5t26 19t32 10q-34 14 -53 49t-19 77v3q0 32 13 59.5t35.5 48t53 32.5t66.5 12q29 0 45 -5t24 -5q36 0 47 15.5t11 40.5h86
q2 -17 2.5 -26t0.5 -17zM266 346q0 25 -15 41.5t-41 16.5t-41 -16.5t-15 -41.5v-26q0 -24 15 -41t41 -17t41 17t15 41v26zM299 -10q0 23 -17.5 36t-64.5 13q-42 0 -62.5 -13.5t-20.5 -36.5v-9q0 -23 20.5 -38t62.5 -15q44 0 63 15.5t19 38.5v9zM338 634q0 -38 -36 -63
t-91 -25t-90.5 25t-35.5 63q0 14 3 24t8 20h55v-15q0 -20 14 -34t46 -14q33 0 47 14t14 34v15h55q5 -10 8 -20t3 -24z" />
    <glyph glyph-name="uni0123" unicode="&#x123;" horiz-adv-x="421" 
d="M162 652q0 42 23.5 67.5t73.5 25.5v-33q-22 0 -36 -13.5t-13 -37.5h47v-96h-95v87zM426 492q0 -32 -17 -48.5t-39 -16.5q-9 0 -18 1.5t-20 7.5q23 -20 35 -43.5t12 -52.5v-9q0 -32 -12 -59t-33.5 -46.5t-53 -30t-70.5 -10.5q-8 0 -20.5 1t-19.5 3q-20 0 -30.5 -10.5
t-10.5 -22.5q0 -16 20.5 -24t79.5 -8q94 0 136 -35t42 -92v-8q0 -32 -12.5 -59t-37 -47.5t-60 -32t-80.5 -11.5q-41 0 -76.5 9t-61 25t-40 38t-14.5 48v9q0 27 18.5 50t54.5 34q-33 11 -49 31.5t-16 44.5q0 13 6 26.5t17 24.5t26 19t32 10q-34 14 -53 49t-19 77v3
q0 32 13 59.5t35.5 48t53 32.5t66.5 12q29 0 45 -5t24 -5q36 0 47 15.5t11 40.5h86q2 -17 2.5 -26t0.5 -17zM266 346q0 25 -15 41.5t-41 16.5t-41 -16.5t-15 -41.5v-26q0 -24 15 -41t41 -17t41 17t15 41v26zM299 -10q0 23 -17.5 36t-64.5 13q-42 0 -62.5 -13.5t-20.5 -36.5
v-9q0 -23 20.5 -38t62.5 -15q44 0 63 15.5t19 38.5v9z" />
    <glyph glyph-name="gdotaccent" unicode="&#x121;" horiz-adv-x="421" 
d="M426 492q0 -32 -17 -48.5t-39 -16.5q-9 0 -18 1.5t-20 7.5q23 -20 35 -43.5t12 -52.5v-9q0 -32 -12 -59t-33.5 -46.5t-53 -30t-70.5 -10.5q-8 0 -20.5 1t-19.5 3q-20 0 -30.5 -10.5t-10.5 -22.5q0 -16 20.5 -24t79.5 -8q94 0 136 -35t42 -92v-8q0 -32 -12.5 -59
t-37 -47.5t-60 -32t-80.5 -11.5q-41 0 -76.5 9t-61 25t-40 38t-14.5 48v9q0 27 18.5 50t54.5 34q-33 11 -49 31.5t-16 44.5q0 13 6 26.5t17 24.5t26 19t32 10q-34 14 -53 49t-19 77v3q0 32 13 59.5t35.5 48t53 32.5t66.5 12q29 0 45 -5t24 -5q36 0 47 15.5t11 40.5h86
q2 -17 2.5 -26t0.5 -17zM266 346q0 25 -15 41.5t-41 16.5t-41 -16.5t-15 -41.5v-26q0 -24 15 -41t41 -17t41 17t15 41v26zM299 -10q0 23 -17.5 36t-64.5 13q-42 0 -62.5 -13.5t-20.5 -36.5v-9q0 -23 20.5 -38t62.5 -15q44 0 63 15.5t19 38.5v9zM162 555v102h95v-102h-95z
" />
    <glyph glyph-name="iacute" unicode="&#xed;" 
d="M45 0v480h122v-480h-122zM140 546h-68l41 143h116z" />
    <glyph glyph-name="ibreve" unicode="&#x12d;" 
d="M45 0v480h122v-480h-122zM235 634q0 -38 -36 -63t-91 -25t-90.5 25t-35.5 63q0 14 3 24t8 20h55v-15q0 -20 14 -34t46 -14q33 0 47 14t14 34v15h55q5 -10 8 -20t3 -24z" />
    <glyph glyph-name="icircumflex" unicode="&#xee;" 
d="M45 0v480h122v-480h-122zM251 553q-26 -8 -50 -8q-35 0 -59.5 22.5t-34.5 61.5q-10 -39 -35.5 -61.5t-60.5 -22.5q-19 0 -43 8v31q64 0 92 97h98q28 -97 93 -97v-31v0z" />
    <glyph glyph-name="idieresis" unicode="&#xef;" 
d="M45 0v480h122v-480h-122zM134 555v102h95v-102h-95zM-18 555v102h95v-102h-95z" />
    <glyph glyph-name="igrave" unicode="&#xec;" 
d="M45 0v480h122v-480h-122zM71 546l-89 143h116l40 -143h-67z" />
    <glyph glyph-name="imacron" unicode="&#x12b;" 
d="M45 0v480h122v-480h-122zM-26 566v70h266v-70h-266z" />
    <glyph glyph-name="uni0137" unicode="&#x137;" horiz-adv-x="421" 
d="M267 -137q0 -42 -23.5 -67.5t-73.5 -25.5v33q22 0 36 13.5t13 37.5h-47v96h95v-87v0zM291 0l-78 192l-46 -80v-112h-122v666h122v-403l112 218h119l-108 -201l120 -280h-119z" />
    <glyph glyph-name="lacute" unicode="&#x13a;" 
d="M137 705h-68l41 143h116zM45 0v666h122v-666h-122z" />
    <glyph glyph-name="lcaron" unicode="&#x13e;" 
d="M264 501h-54v165h96zM45 0v666h122v-666h-122z" />
    <glyph glyph-name="uni013C" unicode="&#x13c;" 
d="M155 -137q0 -42 -23.5 -67.5t-73.5 -25.5v33q22 0 36 13.5t13 37.5h-47v96h95v-87v0zM45 0v666h122v-666h-122z" />
    <glyph glyph-name="nacute" unicode="&#x144;" horiz-adv-x="439" 
d="M242 546h-68l41 143h116zM275 0v341q0 25 -13.5 40t-34.5 15q-14 0 -25.5 -8.5t-19 -20.5t-11.5 -26t-4 -24v-317h-122v480h104l7 -93q17 51 49.5 76t72.5 25q59 0 88.5 -36.5t29.5 -96.5v-355h-121z" />
    <glyph glyph-name="ncaron" unicode="&#x148;" horiz-adv-x="439" 
d="M353 648q-65 0 -93 -97h-98q-28 97 -92 97v31q11 4 24.5 5.5t24.5 1.5q35 0 60 -22t35 -60q10 38 35 60t60 22q22 0 44 -7v-31v0zM275 0v341q0 25 -13.5 40t-34.5 15q-14 0 -25.5 -8.5t-19 -20.5t-11.5 -26t-4 -24v-317h-122v480h104l7 -93q17 51 49.5 76t72.5 25
q59 0 88.5 -36.5t29.5 -96.5v-355h-121z" />
    <glyph glyph-name="uni0146" unicode="&#x146;" horiz-adv-x="439" 
d="M264 -137q0 -42 -23.5 -67.5t-73.5 -25.5v33q22 0 36 13.5t13 37.5h-47v96h95v-87v0zM275 0v341q0 25 -13.5 40t-34.5 15q-14 0 -25.5 -8.5t-19 -20.5t-11.5 -26t-4 -24v-317h-122v480h104l7 -93q17 51 49.5 76t72.5 25q59 0 88.5 -36.5t29.5 -96.5v-355h-121z" />
    <glyph glyph-name="ntilde" unicode="&#xf1;" horiz-adv-x="439" 
d="M275 0v341q0 25 -13.5 40t-34.5 15q-14 0 -25.5 -8.5t-19 -20.5t-11.5 -26t-4 -24v-317h-122v480h104l7 -93q17 51 49.5 76t72.5 25q59 0 88.5 -36.5t29.5 -96.5v-355h-121zM359 642q0 -38 -20 -61.5t-64 -23.5q-20 0 -38.5 8t-35 17.5t-30.5 17.5t-25 8q-23 0 -23 -25
v-24h-46q-15 19 -15 44q0 38 20 61.5t63 23.5q21 0 39.5 -8t35 -17t30.5 -17t25 -8q23 0 23 25v24h46q7 -10 11 -20.5t4 -24.5z" />
    <glyph glyph-name="oacute" unicode="&#xf3;" horiz-adv-x="419" 
d="M380 162q0 -81 -47 -125.5t-123 -44.5q-78 0 -125 44.5t-47 125.5v155q0 80 47 126t125 46q76 0 123 -46t47 -126v-155zM263 340q0 26 -14.5 41.5t-38.5 15.5q-26 0 -40 -15.5t-14 -41.5v-200q0 -26 14 -41.5t40 -15.5q24 0 38.5 15.5t14.5 41.5v200zM246 546h-68l41 143
h116z" />
    <glyph glyph-name="obreve" unicode="&#x14f;" horiz-adv-x="419" 
d="M380 162q0 -81 -47 -125.5t-123 -44.5q-78 0 -125 44.5t-47 125.5v155q0 80 47 126t125 46q76 0 123 -46t47 -126v-155zM263 340q0 26 -14.5 41.5t-38.5 15.5q-26 0 -40 -15.5t-14 -41.5v-200q0 -26 14 -41.5t40 -15.5q24 0 38.5 15.5t14.5 41.5v200zM336 634
q0 -38 -36 -63t-91 -25t-90.5 25t-35.5 63q0 14 3 24t8 20h55v-15q0 -20 14 -34t46 -14q33 0 47 14t14 34v15h55q5 -10 8 -20t3 -24z" />
    <glyph glyph-name="ocircumflex" unicode="&#xf4;" horiz-adv-x="419" 
d="M380 162q0 -81 -47 -125.5t-123 -44.5q-78 0 -125 44.5t-47 125.5v155q0 80 47 126t125 46q76 0 123 -46t47 -126v-155zM263 340q0 26 -14.5 41.5t-38.5 15.5q-26 0 -40 -15.5t-14 -41.5v-200q0 -26 14 -41.5t40 -15.5q24 0 38.5 15.5t14.5 41.5v200zM356 553
q-26 -8 -50 -8q-35 0 -59.5 22.5t-34.5 61.5q-10 -39 -35.5 -61.5t-60.5 -22.5q-19 0 -43 8v31q64 0 92 97h98q28 -97 93 -97v-31v0z" />
    <glyph glyph-name="odieresis" unicode="&#xf6;" horiz-adv-x="419" 
d="M380 162q0 -81 -47 -125.5t-123 -44.5q-78 0 -125 44.5t-47 125.5v155q0 80 47 126t125 46q76 0 123 -46t47 -126v-155zM263 340q0 26 -14.5 41.5t-38.5 15.5q-26 0 -40 -15.5t-14 -41.5v-200q0 -26 14 -41.5t40 -15.5q24 0 38.5 15.5t14.5 41.5v200zM239 555v102h95
v-102h-95zM87 555v102h95v-102h-95z" />
    <glyph glyph-name="ograve" unicode="&#xf2;" horiz-adv-x="419" 
d="M380 162q0 -81 -47 -125.5t-123 -44.5q-78 0 -125 44.5t-47 125.5v155q0 80 47 126t125 46q76 0 123 -46t47 -126v-155zM263 340q0 26 -14.5 41.5t-38.5 15.5q-26 0 -40 -15.5t-14 -41.5v-200q0 -26 14 -41.5t40 -15.5q24 0 38.5 15.5t14.5 41.5v200zM176 546l-89 143
h116l40 -143h-67z" />
    <glyph glyph-name="ohungarumlaut" unicode="&#x151;" horiz-adv-x="419" 
d="M299 546h-68l59 143h96zM172 546h-66l39 143h93zM380 162q0 -81 -47 -125.5t-123 -44.5q-78 0 -125 44.5t-47 125.5v155q0 80 47 126t125 46q76 0 123 -46t47 -126v-155zM263 340q0 26 -14.5 41.5t-38.5 15.5q-26 0 -40 -15.5t-14 -41.5v-200q0 -26 14 -41.5t40 -15.5
q24 0 38.5 15.5t14.5 41.5v200z" />
    <glyph glyph-name="omacron" unicode="&#x14d;" horiz-adv-x="419" 
d="M76 566v70h266v-70h-266zM380 162q0 -81 -47 -125.5t-123 -44.5q-78 0 -125 44.5t-47 125.5v155q0 80 47 126t125 46q76 0 123 -46t47 -126v-155zM263 340q0 26 -14.5 41.5t-38.5 15.5q-26 0 -40 -15.5t-14 -41.5v-200q0 -26 14 -41.5t40 -15.5q24 0 38.5 15.5t14.5 41.5
v200z" />
    <glyph glyph-name="oslashacute" unicode="&#x1ff;" horiz-adv-x="419" 
d="M357 412q23 -40 23 -95v-155q0 -81 -47 -125.5t-123 -44.5q-70 0 -115 36q-3 -4 -7 -9q-3 -5 -6.5 -10.5t-7.5 -10.5l-20 -30l-39 31l46 68q-23 40 -23 95v155q0 80 47 126t125 46q69 0 113 -38l42 61l40 -30zM260 359q-5 17 -17.5 27.5t-32.5 10.5q-26 0 -40 -15.5
t-14 -41.5v-134zM263 274l-105 -153q5 -17 18.5 -27.5t33.5 -10.5q24 0 38.5 15.5t14.5 41.5v134zM242 546h-68l41 143h116z" />
    <glyph glyph-name="otilde" unicode="&#xf5;" horiz-adv-x="419" 
d="M380 162q0 -81 -47 -125.5t-123 -44.5q-78 0 -125 44.5t-47 125.5v155q0 80 47 126t125 46q76 0 123 -46t47 -126v-155zM263 340q0 26 -14.5 41.5t-38.5 15.5q-26 0 -40 -15.5t-14 -41.5v-200q0 -26 14 -41.5t40 -15.5q24 0 38.5 15.5t14.5 41.5v200zM354 642
q0 -38 -20 -61.5t-64 -23.5q-20 0 -38.5 8t-35 17.5t-30.5 17.5t-25 8q-23 0 -23 -25v-24h-46q-15 19 -15 44q0 38 20 61.5t63 23.5q21 0 39.5 -8t35 -17t30.5 -17t25 -8q23 0 23 25v24h46q7 -10 11 -20.5t4 -24.5z" />
    <glyph glyph-name="racute" unicode="&#x155;" horiz-adv-x="313" 
d="M200 546h-68l41 143h116zM296 364q-36 6 -60.5 3t-40 -12t-22 -23t-6.5 -31v-301h-122v480h101l8 -95q17 64 53.5 87t88.5 11v-119v0z" />
    <glyph glyph-name="rcaron" unicode="&#x159;" horiz-adv-x="313" 
d="M310 648q-65 0 -93 -97h-98q-28 97 -92 97v31q11 4 24.5 5.5t24.5 1.5q35 0 60 -22t35 -60q10 38 35 60t60 22q22 0 44 -7v-31v0zM296 364q-36 6 -60.5 3t-40 -12t-22 -23t-6.5 -31v-301h-122v480h101l8 -95q17 64 53.5 87t88.5 11v-119v0z" />
    <glyph glyph-name="uni0157" unicode="&#x157;" horiz-adv-x="313" 
d="M155 -137q0 -42 -23.5 -67.5t-73.5 -25.5v33q22 0 36 13.5t13 37.5h-47v96h95v-87v0zM296 364q-36 6 -60.5 3t-40 -12t-22 -23t-6.5 -31v-301h-122v480h101l8 -95q17 64 53.5 87t88.5 11v-119v0z" />
    <glyph glyph-name="sacute" unicode="&#x15b;" horiz-adv-x="388" 
d="M232 546h-68l41 143h116zM362 135q0 -26 -9.5 -52t-30 -46t-51.5 -32.5t-73 -12.5q-41 0 -72.5 11.5t-53 31.5t-32.5 47.5t-11 59.5v17h102v-17q0 -33 17 -47.5t46 -14.5q57 0 57 48q0 31 -28.5 48.5t-78.5 38.5q-51 20 -79 50t-28 83q0 66 45 103.5t116 37.5
q77 0 118 -40.5t41 -104.5v-8h-100v12q0 23 -14 36.5t-43 13.5q-51 0 -51 -42q0 -21 18.5 -35t62.5 -31q28 -11 52 -24.5t42 -31.5t28 -42t10 -57z" />
    <glyph glyph-name="scaron" unicode="&#x161;" horiz-adv-x="388" 
d="M362 135q0 -26 -9.5 -52t-30 -46t-51.5 -32.5t-73 -12.5q-41 0 -72.5 11.5t-53 31.5t-32.5 47.5t-11 59.5v17h102v-17q0 -33 17 -47.5t46 -14.5q57 0 57 48q0 31 -28.5 48.5t-78.5 38.5q-51 20 -79 50t-28 83q0 66 45 103.5t116 37.5q77 0 118 -40.5t41 -104.5v-8h-100
v12q0 23 -14 36.5t-43 13.5q-51 0 -51 -42q0 -21 18.5 -35t62.5 -31q28 -11 52 -24.5t42 -31.5t28 -42t10 -57zM337 648q-65 0 -93 -97h-98q-28 97 -92 97v31q11 4 24.5 5.5t24.5 1.5q35 0 60 -22t35 -60q10 38 35 60t60 22q22 0 44 -7v-31v0z" />
    <glyph glyph-name="uni0219" unicode="&#x219;" horiz-adv-x="388" 
d="M247 -137q0 -42 -23.5 -67.5t-73.5 -25.5v33q22 0 36 13.5t13 37.5h-47v96h95v-87v0zM362 135q0 -26 -9.5 -52t-30 -46t-51.5 -32.5t-73 -12.5q-41 0 -72.5 11.5t-53 31.5t-32.5 47.5t-11 59.5v17h102v-17q0 -33 17 -47.5t46 -14.5q57 0 57 48q0 31 -28.5 48.5
t-78.5 38.5q-51 20 -79 50t-28 83q0 66 45 103.5t116 37.5q77 0 118 -40.5t41 -104.5v-8h-100v12q0 23 -14 36.5t-43 13.5q-51 0 -51 -42q0 -21 18.5 -35t62.5 -31q28 -11 52 -24.5t42 -31.5t28 -42t10 -57z" />
    <glyph glyph-name="tcaron" unicode="&#x165;" horiz-adv-x="285" 
d="M198 385v-231q0 -47 6.5 -84t25.5 -70h-128q-15 30 -20.5 65t-5.5 89v231h-63v95h68v88l117 29v-117h76v-95h-76zM290 526h-54v165h96z" />
    <glyph glyph-name="uni0163" unicode="&#x163;" horiz-adv-x="285" 
d="M198 385v-231q0 -47 6.5 -84t25.5 -70h-128q-15 30 -20.5 65t-5.5 89v231h-63v95h68v88l117 29v-117h76v-95h-76zM212 -137q0 -42 -23.5 -67.5t-73.5 -25.5v33q22 0 36 13.5t13 37.5h-47v96h95v-87v0z" />
    <glyph glyph-name="uniE00C" unicode="&#xe00c;" horiz-adv-x="285" 
d="M198 382v-228q0 -47 6.5 -84t25.5 -70h-128q-15 30 -20.5 65t-5.5 89v228h-63v94h68v88l117 29v-117h76v-94h-76zM290 523h-54v165h96z" />
    <glyph glyph-name="uniE007" unicode="&#xe007;" horiz-adv-x="285" 
d="M198 382v-228q0 -47 6.5 -84t25.5 -70h-128q-15 30 -20.5 65t-5.5 89v228h-63v94h68v88l117 29v-117h76v-94h-76zM212 -137q0 -42 -23.5 -67.5t-73.5 -25.5v33q22 0 36 13.5t13 37.5h-47v96h95v-87v0z" />
    <glyph glyph-name="uacute" unicode="&#xfa;" horiz-adv-x="442" 
d="M295 0l-6 85q-18 -46 -51.5 -69.5t-73.5 -23.5q-60 0 -89.5 36.5t-29.5 96.5v355h122v-341q0 -26 13.5 -40.5t34.5 -14.5q14 0 25 8t19 20t12 25.5t4 24.5v318h121v-480h-101zM254 546h-68l41 143h116z" />
    <glyph glyph-name="ubreve" unicode="&#x16d;" horiz-adv-x="442" 
d="M295 0l-6 85q-18 -46 -51.5 -69.5t-73.5 -23.5q-60 0 -89.5 36.5t-29.5 96.5v355h122v-341q0 -26 13.5 -40.5t34.5 -14.5q14 0 25 8t19 20t12 25.5t4 24.5v318h121v-480h-101zM349 634q0 -38 -36 -63t-91 -25t-90.5 25t-35.5 63q0 14 3 24t8 20h55v-15q0 -20 14 -34
t46 -14q33 0 47 14t14 34v15h55q5 -10 8 -20t3 -24z" />
    <glyph glyph-name="ucircumflex" unicode="&#xfb;" horiz-adv-x="442" 
d="M295 0l-6 85q-18 -46 -51.5 -69.5t-73.5 -23.5q-60 0 -89.5 36.5t-29.5 96.5v355h122v-341q0 -26 13.5 -40.5t34.5 -14.5q14 0 25 8t19 20t12 25.5t4 24.5v318h121v-480h-101zM365 553q-26 -8 -50 -8q-35 0 -59.5 22.5t-34.5 61.5q-10 -39 -35.5 -61.5t-60.5 -22.5
q-19 0 -43 8v31q64 0 92 97h98q28 -97 93 -97v-31v0z" />
    <glyph glyph-name="udieresis" unicode="&#xfc;" horiz-adv-x="442" 
d="M295 0l-6 85q-18 -46 -51.5 -69.5t-73.5 -23.5q-60 0 -89.5 36.5t-29.5 96.5v355h122v-341q0 -26 13.5 -40.5t34.5 -14.5q14 0 25 8t19 20t12 25.5t4 24.5v318h121v-480h-101zM251 555v102h95v-102h-95zM99 555v102h95v-102h-95z" />
    <glyph glyph-name="ugrave" unicode="&#xf9;" horiz-adv-x="442" 
d="M295 0l-6 85q-18 -46 -51.5 -69.5t-73.5 -23.5q-60 0 -89.5 36.5t-29.5 96.5v355h122v-341q0 -26 13.5 -40.5t34.5 -14.5q14 0 25 8t19 20t12 25.5t4 24.5v318h121v-480h-101zM188 546l-89 143h116l40 -143h-67z" />
    <glyph glyph-name="uhungarumlaut" unicode="&#x171;" horiz-adv-x="442" 
d="M295 0l-6 85q-18 -46 -51.5 -69.5t-73.5 -23.5q-60 0 -89.5 36.5t-29.5 96.5v355h122v-341q0 -26 13.5 -40.5t34.5 -14.5q14 0 25 8t19 20t12 25.5t4 24.5v318h121v-480h-101zM311 546h-68l59 143h96zM184 546h-66l39 143h93z" />
    <glyph glyph-name="umacron" unicode="&#x16b;" horiz-adv-x="442" 
d="M295 0l-6 85q-18 -46 -51.5 -69.5t-73.5 -23.5q-60 0 -89.5 36.5t-29.5 96.5v355h122v-341q0 -26 13.5 -40.5t34.5 -14.5q14 0 25 8t19 20t12 25.5t4 24.5v318h121v-480h-101zM88 566v70h266v-70h-266z" />
    <glyph glyph-name="uring" unicode="&#x16f;" horiz-adv-x="442" 
d="M316 632q0 -18 -7 -34.5t-19.5 -29t-29.5 -20t-38 -7.5q-42 0 -68 27.5t-26 63.5t26 63.5t68 27.5q21 0 38 -7.5t29.5 -20t19.5 -29t7 -34.5zM268 632q0 23 -12 36.5t-34 13.5t-34 -13.5t-12 -36.5q0 -22 12 -36t34 -14t34 14t12 36zM295 0l-6 85q-18 -46 -51.5 -69.5
t-73.5 -23.5q-60 0 -89.5 36.5t-29.5 96.5v355h122v-341q0 -26 13.5 -40.5t34.5 -14.5q14 0 25 8t19 20t12 25.5t4 24.5v318h121v-480h-101z" />
    <glyph glyph-name="wacute" unicode="&#x1e83;" horiz-adv-x="564" 
d="M317 546h-68l41 143h116zM441 0h-96l-46 199l-16 85l-17 -85l-46 -199h-96l-118 480h117l40 -238l14 -90l15 90l46 238h99l41 -238l15 -90l14 90l45 238h108z" />
    <glyph glyph-name="wcircumflex" unicode="&#x175;" horiz-adv-x="564" 
d="M429 553q-26 -8 -50 -8q-35 0 -59.5 22.5t-34.5 61.5q-10 -39 -35.5 -61.5t-60.5 -22.5q-19 0 -43 8v31q64 0 92 97h98q28 -97 93 -97v-31v0zM441 0h-96l-46 199l-16 85l-17 -85l-46 -199h-96l-118 480h117l40 -238l14 -90l15 90l46 238h99l41 -238l15 -90l14 90l45 238
h108z" />
    <glyph glyph-name="wdieresis" unicode="&#x1e85;" horiz-adv-x="564" 
d="M314 555v102h95v-102h-95zM162 555v102h95v-102h-95zM441 0h-96l-46 199l-16 85l-17 -85l-46 -199h-96l-118 480h117l40 -238l14 -90l15 90l46 238h99l41 -238l15 -90l14 90l45 238h108z" />
    <glyph glyph-name="wgrave" unicode="&#x1e81;" horiz-adv-x="564" 
d="M441 0h-96l-46 199l-16 85l-17 -85l-46 -199h-96l-118 480h117l40 -238l14 -90l15 90l46 238h99l41 -238l15 -90l14 90l45 238h108zM259 546l-89 143h116l40 -143h-67z" />
    <glyph glyph-name="yacute" unicode="&#xfd;" horiz-adv-x="387" 
d="M246 -2q-9 -35 -20.5 -63t-29.5 -48t-45 -31t-69 -11h-39v87h26q17 0 27.5 2.5t17.5 8t11 15t8 23.5l8 28l-133 471h118l54 -238l18 -90l17 90l52 238h115zM230 546h-68l41 143h116z" />
    <glyph glyph-name="ycircumflex" unicode="&#x177;" horiz-adv-x="387" 
d="M246 -2q-9 -35 -20.5 -63t-29.5 -48t-45 -31t-69 -11h-39v87h26q17 0 27.5 2.5t17.5 8t11 15t8 23.5l8 28l-133 471h118l54 -238l18 -90l17 90l52 238h115zM338 553q-26 -8 -50 -8q-35 0 -59.5 22.5t-34.5 61.5q-10 -39 -35.5 -61.5t-60.5 -22.5q-19 0 -43 8v31
q64 0 92 97h98q28 -97 93 -97v-31v0z" />
    <glyph glyph-name="ydieresis" unicode="&#xff;" horiz-adv-x="387" 
d="M246 -2q-9 -35 -20.5 -63t-29.5 -48t-45 -31t-69 -11h-39v87h26q17 0 27.5 2.5t17.5 8t11 15t8 23.5l8 28l-133 471h118l54 -238l18 -90l17 90l52 238h115zM227 555v102h95v-102h-95zM75 555v102h95v-102h-95z" />
    <glyph glyph-name="ygrave" unicode="&#x1ef3;" horiz-adv-x="387" 
d="M246 -2q-9 -35 -20.5 -63t-29.5 -48t-45 -31t-69 -11h-39v87h26q17 0 27.5 2.5t17.5 8t11 15t8 23.5l8 28l-133 471h118l54 -238l18 -90l17 90l52 238h115zM168 546l-89 143h116l40 -143h-67z" />
    <glyph glyph-name="zacute" unicode="&#x17a;" horiz-adv-x="359" 
d="M213 546h-68l41 143h116zM156 103h176v-103h-310v60l185 321h-175v99h306v-60z" />
    <glyph glyph-name="zcaron" unicode="&#x17e;" horiz-adv-x="359" 
d="M156 103h176v-103h-310v60l185 321h-175v99h306v-60zM328 648q-65 0 -93 -97h-98q-28 97 -92 97v31q11 4 24.5 5.5t24.5 1.5q35 0 60 -22t35 -60q10 38 35 60t60 22q22 0 44 -7v-31v0z" />
    <glyph glyph-name="zdotaccent" unicode="&#x17c;" horiz-adv-x="359" 
d="M156 103h176v-103h-310v60l185 321h-175v99h306v-60zM135 555v102h95v-102h-95z" />
    <glyph glyph-name="aeacute" unicode="&#x1fd;" horiz-adv-x="631" 
d="M349 546h-68l41 143h116zM598 158q0 -38 -11 -68.5t-31 -52t-48 -33.5t-62 -12q-42 0 -80 15.5t-59 49.5q-23 -31 -60.5 -48t-86.5 -17q-63 0 -99 35.5t-36 93.5v6q0 39 16.5 65.5t46.5 44.5t71 29.5t91 19.5v58q0 22 -11.5 35.5t-37.5 13.5q-49 0 -49 -48v-25h-106v23
q0 31 9.5 57.5t28 46t46 31t64.5 11.5q44 0 73.5 -17t47.5 -46q20 29 54.5 46t76.5 17q72 0 112 -46.5t40 -121.5v-89h-220v-89q0 -26 13.5 -41.5t41.5 -15.5t42 15.5t14 41.5v32h109v-17zM486 338q0 26 -14.5 41.5t-39.5 15.5q-26 0 -40 -15.5t-14 -41.5v-58h108v58z
M250 222q-57 -8 -83.5 -26t-26.5 -54v-15q0 -21 12 -34.5t35 -13.5q26 0 44.5 15t18.5 39v89z" />
    <glyph glyph-name="acute" unicode="&#xb4;" horiz-adv-x="208" 
d="M118 546h-68l41 143h116z" />
    <glyph glyph-name="hungarumlaut" unicode="&#x2dd;" horiz-adv-x="293" 
d="M217 546h-68l59 143h96zM90 546h-66l39 143h93z" />
    <glyph glyph-name="uniE002" unicode="&#xe002;" horiz-adv-x="208" 
d="M124 501h-54v165h96z" />
    <glyph glyph-name="grave" unicode="`" horiz-adv-x="208" 
d="M104 546l-89 143h116l40 -143h-67z" />
    <glyph glyph-name="circumflex" unicode="&#x2c6;" horiz-adv-x="313" 
d="M299 553q-26 -8 -50 -8q-35 0 -59.5 22.5t-34.5 61.5q-10 -39 -35.5 -61.5t-60.5 -22.5q-19 0 -43 8v31q64 0 92 97h98q28 -97 93 -97v-31v0z" />
    <glyph glyph-name="caron" unicode="&#x2c7;" horiz-adv-x="314" 
d="M299 648q-65 0 -93 -97h-98q-28 97 -92 97v31q11 4 24.5 5.5t24.5 1.5q35 0 60 -22t35 -60q10 38 35 60t60 22q22 0 44 -7v-31v0z" />
    <glyph glyph-name="breve" unicode="&#x2d8;" horiz-adv-x="279" 
d="M266 634q0 -38 -36 -63t-91 -25t-90.5 25t-35.5 63q0 14 3 24t8 20h55v-15q0 -20 14 -34t46 -14q33 0 47 14t14 34v15h55q5 -10 8 -20t3 -24z" />
    <glyph glyph-name="tilde" unicode="&#x2dc;" horiz-adv-x="326" 
d="M312 642q0 -38 -20 -61.5t-64 -23.5q-20 0 -38.5 8t-35 17.5t-30.5 17.5t-25 8q-23 0 -23 -25v-24h-46q-15 19 -15 44q0 38 20 61.5t63 23.5q21 0 39.5 -8t35 -17t30.5 -17t25 -8q23 0 23 25v24h46q7 -10 11 -20.5t4 -24.5z" />
    <glyph glyph-name="macron" unicode="&#xaf;" horiz-adv-x="292" 
d="M13 566v70h266v-70h-266z" />
    <glyph glyph-name="dieresis" unicode="&#xa8;" horiz-adv-x="279" 
d="M168 555v102h95v-102h-95zM16 555v102h95v-102h-95z" />
    <glyph glyph-name="dotaccent" unicode="&#x2d9;" horiz-adv-x="279" 
d="M92 555v102h95v-102h-95z" />
    <glyph glyph-name="ring" unicode="&#x2da;" horiz-adv-x="209" 
d="M200 632q0 -18 -7 -34.5t-19.5 -29t-29.5 -20t-38 -7.5q-42 0 -68 27.5t-26 63.5t26 63.5t68 27.5q21 0 38 -7.5t29.5 -20t19.5 -29t7 -34.5zM152 632q0 23 -12 36.5t-34 13.5t-34 -13.5t-12 -36.5q0 -22 12 -36t34 -14t34 14t12 36z" />
    <glyph glyph-name="uni0326" unicode="&#x326;" horiz-adv-x="292" 
d="M192 -137q0 -42 -23.5 -67.5t-73.5 -25.5v33q22 0 36 13.5t13 37.5h-47v96h95v-87v0z" />
    <glyph glyph-name="cedilla" unicode="&#xb8;" horiz-adv-x="219" 
d="M223 -162q0 -40 -29 -67.5t-74 -27.5q-15 0 -26.5 4t-16.5 7v37h20q44 0 44 37v31q0 38 -44 38q-23 0 -48 -25l-36 25l102 138l37 -26l-63 -84q8 5 19.5 6.5t21.5 1.5q45 0 69 -26.5t24 -68.5z" />
    <glyph glyph-name="ogonek" unicode="&#x2db;" horiz-adv-x="218" 
d="M185 -185q-11 -7 -24.5 -11.5t-33.5 -4.5q-47 0 -72 26t-25 62q0 37 27.5 74t76.5 60l22 -11q-21 -20 -35 -46t-14 -52q0 -12 3.5 -24t12.5 -20.5t24 -12t38 0.5v-41z" />
    <glyph glyph-name="fraction" unicode="&#x2044;" horiz-adv-x="105" 
d="M-168 -77l-54 38l497 781l54 -37z" />
    <glyph glyph-name="underscore" unicode="_" horiz-adv-x="375" 
d="M0 -93v93h375v-93h-375z" />
    <glyph glyph-name="asciicircum" unicode="^" horiz-adv-x="313" 
d="M299 538q-26 -8 -50 -8q-35 0 -59.5 22.5t-34.5 61.5q-10 -39 -35.5 -61.5t-60.5 -22.5q-19 0 -43 8v31q64 0 92 97h98q28 -97 93 -97v-31v0z" />
    <glyph glyph-name="asciitilde" unicode="~" horiz-adv-x="326" 
d="M312 352q0 -38 -20 -61.5t-64 -23.5q-20 0 -38.5 8t-35 17.5t-30.5 17.5t-25 8q-23 0 -23 -25v-24h-46q-15 19 -15 44q0 38 20 61.5t63 23.5q21 0 39.5 -8t35 -17t30.5 -17t25 -8q23 0 23 25v24h46q7 -10 11 -20.5t4 -24.5z" />
    <glyph glyph-name="uniE000" unicode="&#xe000;" horiz-adv-x="506" 
d="M24 0v479h458v-479h-458z" />
    <glyph glyph-name="uniE001" unicode="&#xe001;" horiz-adv-x="519" 
d="M24 0v491h471v-491h-471zM444 442h-369v-393h369v393z" />
    <glyph glyph-name="uniE010" unicode="&#xe010;" horiz-adv-x="380" 
d="M38 239v13l287 145v-303z" />
    <glyph glyph-name="uniE011" unicode="&#xe011;" horiz-adv-x="380" 
d="M55 94v303l287 -145v-13z" />
    <glyph glyph-name="uniE00F" unicode="&#xe00f;" horiz-adv-x="694" 
d="M273 18q2 22 -19 22q-9 0 -14.5 -5.5t-5.5 -15.5q1 -20 21 -20q15 0 18 14h-7q-2 -7 -9 -7q-10 0 -10 12h26zM254 35q7 0 7 -12h-14q0 12 7 12zM195 78q-8 0 -8 16q0 15 8 15t8 -15q0 -16 -8 -16zM210 4q-8 0 -8 16q0 15 8 15t8 -15q0 -16 -8 -16zM210 -1q9 0 15 6t6 15
t-6 14.5t-15 5.5t-15 -5.5t-6 -14.5q0 -10 6 -15.5t15 -5.5zM546 4q-8 0 -8 16q0 15 8 15t8 -15q0 -16 -8 -16zM546 -1q9 0 15 6t6 15t-6 14.5t-15 5.5t-15 -5.5t-6 -14.5q0 -10 6 -15.5t15 -5.5zM125 74h30v7h-10v16h4q5 0 6 -8h7v23h-7q-1 -8 -6 -8h-4v18h12q5 0 7 -2.5
t4 -10.5h8v20h-51v-7h7v-41h-7v-7zM195 73q9 0 15 6t6 15t-6 14.5t-15 5.5t-15 -5.5t-6 -14.5q0 -10 6 -15.5t15 -5.5zM644 -100h-594v800h594v-800zM498 -1q22 0 24 23h-8q-2 -16 -14 -16q-16 0 -16 22t14 22q10 0 15 -16h8v22h-8l-1 -6q-7 7 -16 7q-11 0 -19 -8t-8 -22
q0 -28 29 -28zM372 80q-8 0 -8 13t8 13q7 0 7 -13t-7 -13zM276 0h23v7h-5v25h14v-25h-5v-7h23v7h-6v52l-10 -2q-4 2 -9 2q-8 0 -13.5 -4.5t-5.5 -14.5v-1h-7v-7h7v-25h-6v-7zM368 0h26v7h-8v16q4 9 7 9v-1q0 -6 6 -6q7 0 7 7q0 8 -8 8t-12 -11v10h-18v-7h6v-25h-6v-7z
M352 73h6l4 8q5 -8 14 -8t12.5 7t3.5 14q0 20 -15 20q-10 0 -13 -9v27h-18v-7h6v-52zM400 75q-7 0 -7 -7q0 -9 11 -9q12 0 18 16l13 31h5v7h-17v-7h5l-8 -20l-9 20h6v7h-25v-7h5q2 -5 6 -13l5.5 -11l4.5 -9q-2 -8 -8 -8q2 2 1 6t-6 4zM247 428q0 13 7.5 21t19.5 8
q13 0 21 -10.5t8 -27.5q0 -13 -5 -25t-13 -25q-17 17 -27.5 29.5t-10.5 29.5zM302 74h7l1 4q2 -2 5 -3.5t8 -1.5q14 0 14 13q0 6 -4 8.5t-8.5 3.5t-8 2t-3.5 4q0 4 5 4t10 -7h7v13h-6l-2 -5q-3 5 -11 5q-7 0 -10.5 -3.5t-3.5 -8.5q0 -6 3.5 -8.5t8 -4t8.5 -2.5t4 -4
q0 -4 -5 -4q-6 0 -12 9h-7v-14zM261 219q-23 0 -37.5 15.5t-14.5 38.5q0 24 16 40q14 -13 33.5 -34.5t40.5 -47.5q-15 -12 -38 -12zM274 122v-9h-7v-7h7v-20q0 -13 12 -13q11 0 14 13l-5 2q-1 -7 -5 -7t-4 5v20h13v7h-13v11zM428 306q7 -11 18 -18t25 -7q21 0 35.5 15.5
t14.5 38.5t-14.5 37.5t-35.5 14.5q-35 0 -60 -38q-2 20 -15.5 29t-33.5 8q9 15 9 34q0 13 -6 26.5t-18 24t-30 17t-41 6.5q-25 0 -45 -7t-34.5 -19t-22 -27.5t-7.5 -31.5q0 -22 7.5 -37t23.5 -32q-82 -28 -82 -91q0 -20 8.5 -37t23.5 -29.5t34.5 -19.5t42.5 -7q63 0 104 45
q25 -26 43.5 -35.5t41.5 -9.5q32 0 55 25t25 69l-7 2q-8 -13 -17.5 -21t-25.5 -8q-15 0 -29 9.5t-33 31.5q11 15 23 25t23 17zM219 74h22v7h-4v15q0 10 7 10q6 0 6 -7v-18h-4v-7h22v7h-6v19q0 14 -12 14q-9 0 -14 -11v10h-17v-7h6v-25h-6v-7zM446 33v-7h6q-2 -5 -6 -9
q-3 3 -5.5 6t-6.5 7q11 5 11 12q0 5 -3.5 8.5t-10.5 3.5q-8 0 -12.5 -4t-4.5 -10t6 -12q-13 -4 -13 -15q0 -14 18 -14q9 0 15 6q5 -6 12 -6q10 0 13 12l-5 1q-1 -5 -4 -5t-6 5q3 3 5 6t4 8h5v7h-18zM429 6q-10 0 -10 10q0 5 4 9q4 -4 7 -7.5t7 -8.5q-4 -3 -8 -3zM294 42
q0 7 1.5 9.5t4.5 2.5q2 0 3 -1q-1 -2 -1 -4q0 -5 6 -5v-5h-14v3zM425 43q0 5 5 5q6 0 6 -6t-5 -9q-6 6 -6 10zM312 342q30 20 42 34q17 -17 15 -36t-16 -44q-10 11 -19.5 22.5t-21.5 23.5zM366 18q2 22 -19 22q-8 0 -14 -6t-6 -15q0 -20 21 -20q14 0 18 14h-7q-1 -7 -9 -7
q-10 0 -10 12h26zM347 35q7 0 7 -12h-14q0 12 7 12zM124 0h29v7h-8v18h22v-18h-8v-7h29v7h-8v41h8v7h-29v-7h8v-16h-22v16h8v7h-29v-7h8v-41h-8v-7zM576 13q-7 0 -7 -7t7 -7t7 7t-7 7z" />
    <glyph glyph-name="C" unicode="C" horiz-adv-x="504" 
d="M474 177q0 -42 -13.5 -77.5t-39.5 -61.5t-65.5 -40.5t-91.5 -14.5q-53 0 -94.5 16t-70 44t-43.5 65.5t-15 80.5v288q0 43 15 80.5t43.5 65.5t70 44t94.5 16q52 0 91.5 -14.5t65.5 -40.5t39.5 -61.5t13.5 -77.5v-65h-128v62q0 35 -20 55.5t-60 20.5t-60 -21t-20 -53v-311
q0 -32 20 -52.5t60 -20.5t60 20.5t20 55.5v62h128v-65v0z" />
    <glyph glyph-name="uni00A0" unicode="&#xa0;" horiz-adv-x="174" 
 />
    <glyph glyph-name="uni2003" unicode="&#x2003;" horiz-adv-x="1000" 
 />
    <glyph glyph-name="uni2002" unicode="&#x2002;" horiz-adv-x="500" 
 />
    <glyph glyph-name="uni2004" unicode="&#x2004;" horiz-adv-x="333" 
 />
    <glyph glyph-name="uni2005" unicode="&#x2005;" horiz-adv-x="250" 
 />
    <glyph glyph-name="uni2009" unicode="&#x2009;" horiz-adv-x="133" 
 />
    <glyph glyph-name="uni200A" unicode="&#x200a;" horiz-adv-x="75" 
 />
    <glyph glyph-name="A" unicode="A" horiz-adv-x="478" 
d="M331 0l-28 132h-138l-28 -132h-134l156 666h160l155 -666h-143zM237 481l-51 -243h98z" />
    <glyph glyph-name="B" unicode="B" horiz-adv-x="500" 
d="M463 153q0 -72 -43.5 -112.5t-124.5 -40.5h-247v666h244q81 0 124 -40.5t43 -112.5v-48q0 -48 -21 -81.5t-72 -42.5q53 -11 75 -44.5t22 -79.5v-64zM323 500q0 25 -11.5 39.5t-39.5 14.5h-80v-170h74q57 0 57 58v58zM326 226q0 59 -57 59h-77v-173h83q28 0 39.5 14
t11.5 39v61z" />
    </font>
</defs>
</svg>
